<?xml version="1.0" encoding="UTF-8"?>
<svg version="1.1" xmlns="http://www.w3.org/2000/svg" width="1536" height="1024">
<path d="M0 0 C506.88 0 1013.76 0 1536 0 C1536 337.92 1536 675.84 1536 1024 C1029.12 1024 522.24 1024 0 1024 C0 686.08 0 348.16 0 0 Z " fill="#0F132D" transform="translate(0,0)"/>
<path d="M0 0 C2.19139698 0.01508512 4.38280408 0.0287667 6.57421875 0.04101562 C11.88303777 0.07369214 17.19146986 0.12358313 22.5 0.1875 C20.85611492 3.65493471 18.92784132 6.11059063 16.3125 8.9375 C13.56808664 11.93021743 10.83867394 14.92437703 8.1875 18 C-0.08352127 27.45259574 -8.57421868 36.42429279 -17.94824219 44.78857422 C-19.56840923 46.24917164 -21.16535563 47.73191602 -22.7578125 49.22265625 C-29.46164167 55.49801165 -36.3181993 61.45744214 -43.5 67.1875 C-44.62969208 68.10841185 -45.75855532 69.03034111 -46.88671875 69.953125 C-66.09992555 85.59968412 -86.57175763 99.48331856 -107.72021484 112.36938477 C-112.01738586 114.99401613 -116.25137771 117.66635013 -120.3984375 120.5234375 C-121.16599365 121.04607178 -121.9335498 121.56870605 -122.72436523 122.10717773 C-124.16035868 123.09201737 -125.58525102 124.09331946 -126.99633789 125.11352539 C-130.07141801 127.20892025 -131.7634198 128.30485669 -135.515625 127.70703125 C-136.50046875 127.20558594 -137.4853125 126.70414062 -138.5 126.1875 C-139.65113281 125.61515625 -140.80226563 125.0428125 -141.98828125 124.453125 C-143.26323894 123.78166398 -144.53796788 123.10976847 -145.8125 122.4375 C-173.55002741 108.23031579 -201.97069857 106.79493727 -232.5 107.1875 C-233.84350008 103.44106427 -235.17301661 99.68981451 -236.5 95.9375 C-236.8815625 94.87402344 -237.263125 93.81054688 -237.65625 92.71484375 C-238.0171875 91.69003906 -238.378125 90.66523438 -238.75 89.609375 C-239.08515625 88.66674805 -239.4203125 87.72412109 -239.765625 86.75292969 C-240.5 84.1875 -240.5 84.1875 -240.5 80.1875 C-234.37613107 78.39698304 -227.83782527 78.47648443 -221.5 78.1875 C-220.80487305 78.15205078 -220.10974609 78.11660156 -219.39355469 78.08007812 C-204.19862534 77.3941716 -189.45703113 79.6958379 -174.5 82.1875 C-173.66259277 82.32591309 -172.82518555 82.46432617 -171.96240234 82.60693359 C-164.57917883 83.86013217 -157.75786113 85.55327933 -150.8671875 88.515625 C-147.81417009 89.38215799 -146.47612674 89.350895 -143.5 88.1875 C-141.2984532 86.11721073 -139.35183794 84.0802786 -137.375 81.8125 C-130.87303406 74.58740414 -124.08876928 67.70446757 -117.16162109 60.88720703 C-112.9480247 56.71806724 -108.92472919 52.47120731 -105.0612793 47.97583008 C-102.93644171 45.54198562 -100.67555044 43.26726273 -98.375 41 C-97.16457031 39.80310547 -97.16457031 39.80310547 -95.9296875 38.58203125 C-95.12789062 37.79183594 -94.32609375 37.00164062 -93.5 36.1875 C-91.10485861 33.8070753 -88.72331129 31.42199757 -86.39453125 28.9765625 C-63.16870467 4.83564707 -32.10026978 -0.38789656 0 0 Z " fill="#063EDC" transform="translate(536.5,363.8125)"/>
<path d="M0 0 C2.38893321 1.70638086 2.9995668 2.94474675 4.1875 5.5625 C3.6298999 6.23285278 3.6298999 6.23285278 3.06103516 6.91674805 C-6.0365316 17.86103053 -6.0365316 17.86103053 -14.8125 29.0625 C-18.62980523 34.08559886 -22.59136628 38.96180957 -26.625 43.8125 C-31.39077584 49.54566686 -36.00624017 55.36380985 -40.5 61.3125 C-44.79204525 66.99387035 -49.21912323 72.49892173 -53.86230469 77.89599609 C-57.38051431 82.00228226 -60.69613357 86.23417661 -63.96679688 90.5390625 C-67.24655501 94.84989784 -70.60781337 99.08968149 -74 103.3125 C-75.01047638 104.57286879 -76.02089484 105.83328403 -77.03125 107.09375 C-78.71844636 109.19816068 -80.40597107 111.3023064 -82.09375 113.40625 C-82.7228125 114.2003125 -83.351875 114.994375 -84 115.8125 C-84.52980469 116.47765625 -85.05960938 117.1428125 -85.60546875 117.828125 C-87.00219552 119.66099288 -87.00219552 119.66099288 -87.8125 122.5625 C-88.8025 122.5625 -89.7925 122.5625 -90.8125 122.5625 C-91.0703125 123.305 -91.328125 124.0475 -91.59375 124.8125 C-95.14394309 132.82319209 -102.92380214 137.49268997 -110.8125 140.5625 C-117.82860034 143.22418717 -124.94774966 142.871753 -132.36328125 142.86328125 C-133.78663761 142.86717553 -135.20999282 142.87151169 -136.63334656 142.87626648 C-139.60968805 142.88370367 -142.58591087 142.88345626 -145.56225586 142.87817383 C-149.35137064 142.87239093 -153.13999472 142.88929338 -156.92902851 142.9125185 C-159.86753618 142.92734893 -162.80592831 142.92811485 -165.74446678 142.92500877 C-167.14012814 142.9255176 -168.53579673 142.93067176 -169.93142128 142.94082069 C-182.65874432 143.02200816 -192.46599283 141.67489428 -201.8125 132.5625 C-207.8383871 126.15912113 -209.79811043 117.97772862 -212.23828125 109.76171875 C-213.81307402 104.47069536 -215.59737643 99.26635374 -217.4375 94.0625 C-217.73269531 93.22364258 -218.02789062 92.38478516 -218.33203125 91.52050781 C-220.22042392 86.17644162 -222.15907926 80.85282621 -224.18359375 75.55859375 C-224.8125 73.5625 -224.8125 73.5625 -224.8125 70.5625 C-219.87277827 70.46170518 -214.9336874 70.39015091 -209.99316406 70.34277344 C-208.32150823 70.32297163 -206.64991853 70.29592263 -204.97851562 70.26074219 C-187.73643432 69.90759112 -172.61212247 72.91942958 -156.5625 79.3125 C-155.45567871 79.74280518 -154.34885742 80.17311035 -153.20849609 80.61645508 C-145.8155001 83.56182208 -139.01413722 86.91839473 -132.3515625 91.26171875 C-129.99527049 92.71995735 -129.99527049 92.71995735 -127.83984375 92.53125 C-124.90751523 91.13006026 -122.35281883 89.29908262 -119.75 87.375 C-119.14639648 86.93575195 -118.54279297 86.49650391 -117.92089844 86.04394531 C-116.59272563 85.0753885 -115.26682015 84.10371697 -113.94287109 83.12939453 C-111.73405172 81.50480105 -109.51784904 79.89065858 -107.30078125 78.27734375 C-98.61108221 71.93396295 -90.04758035 65.45388367 -81.58300781 58.81347656 C-75.4577685 54.023876 -69.2132267 49.41272286 -62.93554688 44.82568359 C-56.53554635 40.13366675 -50.26820423 35.28654953 -44.02172852 30.39282227 C-39.32852639 26.72211784 -34.57474521 23.16516634 -29.73046875 19.6953125 C-25.0626715 16.28350889 -20.4902158 12.74711641 -15.91186523 9.21655273 C-13.88488359 7.65695245 -11.85021874 6.10803553 -9.8125 4.5625 C-8.83567261 3.80924438 -8.83567261 3.80924438 -7.83911133 3.04077148 C-3.13545764 -0.48773786 -3.13545764 -0.48773786 0 0 Z " fill="#1F2650" transform="translate(534.8125,415.4375)"/>
<path d="M0 0 C0.92401611 0.00644531 1.84803223 0.01289063 2.80004883 0.01953125 C15.05992797 0.34523284 25.24375417 4.56356545 33.8125 13.5 C35.84584839 16.37258416 37.3991454 19.28275861 38.8125 22.5 C39.225 23.36625 39.6375 24.2325 40.0625 25.125 C41.0500274 28.25217011 41.55765681 31.24495749 41.8125 34.5 C41.92851563 35.92699219 41.92851563 35.92699219 42.046875 37.3828125 C42.52807131 48.47706083 39.77324722 57.50615593 32.5 66 C24.27048256 74.39274754 14.98052262 78.7877174 3.16333008 79.01977539 C-10.70479396 78.91680371 -19.89641976 76.62919713 -30.12890625 66.69140625 C-37.68635089 58.64638453 -39.75141571 49.8470338 -39.625 39.0625 C-39.61525146 38.13526123 -39.60550293 37.20802246 -39.59545898 36.25268555 C-39.30692131 25.16207975 -36.25240989 18.73727497 -28.55078125 10.6953125 C-20.29389563 3.0252799 -11.14542632 -0.08131638 0 0 Z " fill="#ECEEF2" transform="translate(1028.1875,424.5)"/>
<path d="M0 0 C6.6 0 13.2 0 20 0 C23.36782185 11.22607284 26.5155608 22.48942669 29.50024414 33.82373047 C31.13078118 39.96711895 32.91809013 45.99400546 35 52 C35.1858667 51.35675781 35.3717334 50.71351563 35.56323242 50.05078125 C40.41984158 33.2644243 45.41112692 16.55962393 51 0 C57.27 0 63.54 0 70 0 C70.96552466 3.21841552 71.93103568 6.43683513 72.89648438 9.65527344 C73.71778523 12.39299791 74.53943214 15.1306182 75.36132812 17.86816406 C77.21266052 24.03544587 79.06242708 30.20313434 80.8984375 36.375 C81.17284668 37.29571289 81.44725586 38.21642578 81.72998047 39.16503906 C82.23310921 40.85404575 82.73479947 42.54348178 83.23486328 44.23339844 C84.3910333 48.20261384 84.3910333 48.20261384 86 52 C86.20568604 51.27224365 86.41137207 50.5444873 86.62329102 49.79467773 C90.30864368 36.77486931 94.01877885 23.76434648 97.9375 10.8125 C98.23148682 9.834021 98.52547363 8.85554199 98.82836914 7.84741211 C99.10028076 6.95546143 99.37219238 6.06351074 99.65234375 5.14453125 C100.00800415 3.97434448 100.00800415 3.97434448 100.37084961 2.78051758 C101 1 101 1 102 0 C104.69654854 -0.07319621 107.36691458 -0.09242537 110.0625 -0.0625 C110.82111328 -0.05798828 111.57972656 -0.05347656 112.36132812 -0.04882812 C114.24091871 -0.0370068 116.12046899 -0.01907078 118 0 C115.98555496 7.73676063 113.63684575 15.30776239 111.0625 22.875 C108.60932393 30.15464188 106.21175732 37.43696571 103.99609375 44.79296875 C102.46292204 49.7291804 100.80007741 54.62125165 99.15332031 59.52050781 C97.32297601 64.98327287 95.60647568 70.46658376 94 76 C88.06 76 82.12 76 76 76 C72.63387521 67.02366722 72.63387521 67.02366722 71.82421875 63.6953125 C71.63907715 62.95587402 71.45393555 62.21643555 71.26318359 61.45458984 C71.07320801 60.6858252 70.88323242 59.91706055 70.6875 59.125 C68.44100715 50.3078201 65.70255476 41.71978175 62.72949219 33.12402344 C61.45911836 29.42514381 60.23089416 25.71216894 59 22 C58.6596875 23.08152344 58.319375 24.16304688 57.96875 25.27734375 C54.61358202 35.92655983 51.22611259 46.564982 47.8046875 57.19311523 C45.79836654 63.44222086 43.86633565 69.70761759 42 76 C35.73 76.33 29.46 76.66 23 77 C22.54625 74.999375 22.0925 72.99875 21.625 70.9375 C18.87633708 59.49886273 15.00191704 48.36555791 11.33984375 37.1953125 C9.71830293 32.2468006 8.16944906 27.28643405 6.69506836 22.29248047 C5.24733192 17.51754363 3.601755 12.80619192 1.98632812 8.0859375 C0 2.21158365 0 2.21158365 0 0 Z " fill="#EBEDF2" transform="translate(1073,426)"/>
<path d="M0 0 C2.38893321 1.70638086 2.9995668 2.94474675 4.1875 5.5625 C3.6298999 6.23285278 3.6298999 6.23285278 3.06103516 6.91674805 C-6.0365316 17.86103053 -6.0365316 17.86103053 -14.8125 29.0625 C-18.62980523 34.08559886 -22.59136628 38.96180957 -26.625 43.8125 C-31.39077584 49.54566686 -36.00624017 55.36380985 -40.5 61.3125 C-44.79204525 66.99387035 -49.21912323 72.49892173 -53.86230469 77.89599609 C-57.38187913 82.00387522 -60.69749392 86.23830269 -63.97119141 90.54345703 C-71.99504105 101.08285781 -80.39416134 111.33719471 -88.8125 121.5625 C-92.61294872 120.25154382 -95.03850656 118.70421997 -97.9375 115.9375 C-106.77677127 107.8421278 -116.9487342 101.33697826 -126.8125 94.5625 C-125.51672335 90.67517005 -123.18551784 89.45522377 -119.9375 87.25 C-118.65264822 86.35429393 -117.36885007 85.45707515 -116.0859375 84.55859375 C-115.39467773 84.07632324 -114.70341797 83.59405273 -113.99121094 83.09716797 C-110.14391259 80.38715929 -106.35183511 77.60274399 -102.5625 74.8125 C-101.75828613 74.22041748 -100.95407227 73.62833496 -100.12548828 73.01831055 C-93.86309347 68.38538464 -87.71158375 63.62130814 -81.58300781 58.81347656 C-75.4577685 54.023876 -69.2132267 49.41272286 -62.93554688 44.82568359 C-56.53554635 40.13366675 -50.26820423 35.28654953 -44.02172852 30.39282227 C-39.32852639 26.72211784 -34.57474521 23.16516634 -29.73046875 19.6953125 C-25.0626715 16.28350889 -20.4902158 12.74711641 -15.91186523 9.21655273 C-13.88488359 7.65695245 -11.85021874 6.10803553 -9.8125 4.5625 C-8.83567261 3.80924438 -8.83567261 3.80924438 -7.83911133 3.04077148 C-3.13545764 -0.48773786 -3.13545764 -0.48773786 0 0 Z " fill="#EFF0F4" transform="translate(534.8125,415.4375)"/>
<path d="M0 0 C1.34191406 -0.03673828 1.34191406 -0.03673828 2.7109375 -0.07421875 C13.1716413 -0.11983228 19.96803639 3.9251972 27.45703125 11.0078125 C30.39882324 14.21993132 32.16410143 17.29807375 33.625 21.375 C34.0375 22.40625 34.45 23.4375 34.875 24.5 C36.00821004 30.35491854 35.625 36.41142422 35.625 42.375 C17.145 42.375 -1.335 42.375 -20.375 42.375 C-19.28140431 50.03016986 -17.42973628 55.09074144 -11.33984375 60.0234375 C-4.27090714 64.59512361 2.2879246 65.10750605 10.625 64.375 C15.05785756 63.29739927 19.3170452 61.86483437 23.625 60.375 C24.95357745 60.02318919 26.28512519 59.68098103 27.625 59.375 C32.625 67.55681818 32.625 67.55681818 32.625 71.375 C22.34499446 77.10808001 12.67416752 78.65978695 1 78.8125 C0.03441162 78.83473633 -0.93117676 78.85697266 -1.92602539 78.87988281 C-14.56288381 78.84108969 -23.37958298 73.37041702 -32.125 64.625 C-40.46775312 52.57435661 -41.23754867 40.19493736 -38.78125 25.92578125 C-35.76312189 16.13083769 -28.06517034 9.03672145 -19.7109375 3.53125 C-13.2612489 0.338762 -7.04534749 0.01006478 0 0 Z " fill="#EBEDF2" transform="translate(722.375,424.625)"/>
<path d="M0 0 C7.26 0 14.52 0 22 0 C26.64398784 10.88434651 30.82710721 21.92835577 35 33 C35.25894043 33.68545898 35.51788086 34.37091797 35.78466797 35.07714844 C37.22225973 38.88375724 38.65001342 42.69393362 40.07080078 46.50683594 C40.78452285 48.42184639 41.49922692 50.33649089 42.21435547 52.25097656 C43.58280968 55.91642566 44.94796715 59.58308946 46.3125 63.25 C46.75770996 64.44189941 47.20291992 65.63379883 47.66162109 66.86181641 C48.07879395 67.98507324 48.4959668 69.10833008 48.92578125 70.265625 C49.30130127 71.27399414 49.67682129 72.28236328 50.0637207 73.32128906 C50.83962378 75.54116092 51.48307171 77.70875028 52 80 C52.25168945 79.32533691 52.50337891 78.65067383 52.76269531 77.95556641 C53.92392942 74.84492784 55.08695452 71.73496173 56.25 68.625 C56.64574219 67.56410156 57.04148437 66.50320313 57.44921875 65.41015625 C59.22055372 60.67691691 61.0025788 55.95211271 62.89453125 51.265625 C64.66935422 46.86615103 66.37108968 42.44129499 68.05859375 38.0078125 C68.46880264 36.93057419 68.46880264 36.93057419 68.88729858 35.83157349 C70.02233976 32.84900727 71.15635684 29.86605625 72.28833008 26.88232422 C75.71496668 17.85466378 79.23065161 8.89143488 83 0 C88.61 0 94.22 0 100 0 C97.84445913 7.66100429 95.12040842 14.90742609 92.0625 22.25 C91.08373526 24.62593146 90.10590736 27.00224902 89.12890625 29.37890625 C88.74993698 30.29891167 88.74993698 30.29891167 88.36331177 31.23750305 C85.6296877 37.88074538 82.953909 44.5469251 80.28756714 51.21740723 C79.51698787 53.14500497 78.7449798 55.07202617 77.97290039 56.99902344 C75.1969428 63.92317582 75.1969428 63.92317582 72.54296875 70.89453125 C70.10410598 77.48191183 67.4281059 83.98127018 64.8125 90.5 C64.24796633 91.90882189 63.68351253 93.31767579 63.11914062 94.7265625 C61.74716226 98.15147178 60.37354614 101.57571753 59 105 C52.73 105 46.46 105 40 105 C39.10796875 102.66164063 38.2159375 100.32328125 37.296875 97.9140625 C36.4199494 95.61695202 35.54275099 93.31994589 34.66552734 91.02294922 C34.06205278 89.44232863 33.45885609 87.86160191 32.85595703 86.28076172 C31.98285095 83.99157315 31.1087029 81.70278465 30.234375 79.4140625 C29.97066101 78.72196686 29.70694702 78.02987122 29.4352417 77.31680298 C28.00679872 73.58068364 26.54813629 69.85869589 25.05737305 66.14697266 C22.93642444 60.86208861 20.88555838 55.55174996 18.84765625 50.234375 C18.4656456 49.23851379 18.08363495 48.24265259 17.69004822 47.21661377 C16.88713146 45.12258637 16.08461105 43.02840696 15.2824707 40.93408203 C14.07085725 37.77181214 12.85677136 34.61049885 11.64257812 31.44921875 C7.6380214 21.00673058 3.70004774 10.55447961 0 0 Z " fill="#EDEFF3" transform="translate(589,397)"/>
<path d="M0 0 C14.16816923 -0.63955808 27.8671832 1.32544349 41.82910156 3.60791016 C44.32216113 4.01428363 46.81631048 4.39355687 49.31542969 4.75976562 C69.06902614 8.05922006 94.12885117 18.61243464 109.89355469 31.10742188 C110.22355469 32.09742188 110.55355469 33.08742188 110.89355469 34.10742188 C107.27098062 36.83705685 103.60452324 39.49953818 99.89355469 42.10742188 C99.33249023 42.50219727 98.77142578 42.89697266 98.19335938 43.30371094 C96.5051083 44.47250015 94.79796113 45.60625483 93.08105469 46.73242188 C92.04335938 47.4259375 91.00566406 48.11945313 89.93652344 48.83398438 C86.89355469 50.10742188 86.89355469 50.10742188 83.96386719 49.55273438 C80.45711645 47.90197385 77.00836107 46.165199 73.58105469 44.35742188 C45.84352727 30.15023766 17.42285611 28.71485915 -13.10644531 29.10742188 C-14.44994539 25.36098614 -15.77946193 21.60973638 -17.10644531 17.85742188 C-17.48800781 16.79394531 -17.86957031 15.73046875 -18.26269531 14.63476562 C-18.62363281 13.60996094 -18.98457031 12.58515625 -19.35644531 11.52929688 C-19.69160156 10.58666992 -20.02675781 9.64404297 -20.37207031 8.67285156 C-21.10644531 6.10742188 -21.10644531 6.10742188 -21.10644531 2.10742188 C-14.33282464 0.12692836 -7.00826992 0.35739902 0 0 Z " fill="#3BB3E4" transform="translate(317.1064453125,441.892578125)"/>
<path d="M0 0 C2.66505488 0.01836618 5.32976104 0.02050784 7.99487305 0.02026367 C22.41328839 0.04739766 36.33194483 0.68683288 50.46948242 3.76831055 C51.66694092 4.02644531 52.86439941 4.28458008 54.09814453 4.55053711 C65.99759246 7.23784028 79.68623366 10.35031137 89.96948242 17.20581055 C88.04997121 21.71513848 84.81872236 24.46522119 81.32495117 27.8034668 C79.12403996 30.04817723 77.41868474 32.34472765 75.59448242 34.89331055 C72.73650308 38.12462953 72.73650308 38.12462953 69.82885742 38.43237305 C66.7829749 37.92472596 63.93122689 37.08615227 60.96948242 36.20581055 C58.47865064 35.56679579 55.98202543 34.95768147 53.48168945 34.35693359 C51.74626305 33.9383785 50.01379161 33.50726485 48.28540039 33.06054688 C31.57595813 28.88719145 15.08188828 28.95172465 -2.03051758 29.08081055 C-4.36645122 29.09086525 -6.70238908 29.09998667 -9.03833008 29.1081543 C-14.70248608 29.12995925 -20.36648154 29.1632376 -26.03051758 29.20581055 C-27.35239753 25.8344103 -28.66132003 22.45812114 -29.96801758 19.08081055 C-30.34120117 18.12948242 -30.71438477 17.1781543 -31.09887695 16.19799805 C-32.89183763 11.54599196 -34.50046828 7.20341825 -35.03051758 2.20581055 C-23.31115975 0.51767976 -11.83581742 -0.08409688 0 0 Z " fill="#063EDB" transform="translate(316.030517578125,398.794189453125)"/>
<path d="M0 0 C22.77 0 45.54 0 69 0 C69 4.29 69 8.58 69 13 C52.17 13 35.34 13 18 13 C18 22.9 18 32.8 18 43 C31.86 43 45.72 43 60 43 C60 47.29 60 51.58 60 56 C46.14 56 32.28 56 18 56 C18 71.84 18 87.68 18 104 C12.06 104 6.12 104 0 104 C0 69.68 0 35.36 0 0 Z " fill="#EEF0F4" transform="translate(873,397)"/>
<path d="M0 0 C6.27 0 12.54 0 19 0 C19 35.64 19 71.28 19 108 C12.73 108 6.46 108 0 108 C0 72.36 0 36.72 0 0 Z " fill="#EEEFF3" transform="translate(953,394)"/>
<path d="M0 0 C5.1484559 1.92672276 9.17102578 5.28504296 12 10 C16.33882305 20.34931385 16.21239848 30.64224097 12 41 C9.25084506 46.39648933 5.67337352 49.88480861 0 52 C-6.20745018 52.96095359 -12.03492885 53.06705124 -17.5625 49.8125 C-22.60506228 46.05446411 -26.31678057 41.49588918 -27.53515625 35.26171875 C-28.7994841 26.39017459 -28.86157721 17.24832892 -25 9 C-22.6875 6.125 -22.6875 6.125 -20 4 C-19.195625 3.236875 -18.39125 2.47375 -17.5625 1.6875 C-11.84042532 -1.02295643 -6.21034796 -0.82237484 0 0 Z " fill="#11152E" transform="translate(1036,438)"/>
<path d="M0 0 C0 5.61 0 11.22 0 17 C-3.465 17.0928125 -3.465 17.0928125 -7 17.1875 C-14.72895267 17.6224663 -19.29136092 19.08199775 -24.61743164 24.70874023 C-31.17554037 33.63519904 -29.89220055 44.5604208 -29.875 55.125 C-29.89314776 57.1510675 -29.91395693 59.17711301 -29.9375 61.203125 C-29.9890704 66.13569717 -30.00445029 71.06717323 -30 76 C-35.94 76 -41.88 76 -48 76 C-48 51.58 -48 27.16 -48 2 C-42.06 2 -36.12 2 -30 2 C-29.67 6.29 -29.34 10.58 -29 15 C-28.05125 13.63875 -27.1025 12.2775 -26.125 10.875 C-18.71236998 1.47180401 -11.76905905 -0.82109714 0 0 Z " fill="#EAECF0" transform="translate(821,425)"/>
<path d="M0 0 C5.94 0 11.88 0 18 0 C18 24.75 18 49.5 18 75 C12.06 75 6.12 75 0 75 C0 50.25 0 25.5 0 0 Z " fill="#ECEFF3" transform="translate(834,426)"/>
<path d="M0 0 C4.6522721 2.05221723 7.3580202 4.61113613 9.52734375 9.296875 C10.02234375 14.246875 10.02234375 14.246875 10.52734375 19.296875 C-2.34265625 19.296875 -15.21265625 19.296875 -28.47265625 19.296875 C-27.42498307 10.9154896 -26.09059935 7.38965907 -20.03515625 1.921875 C-14.08730008 -2.3027705 -6.81605231 -1.93821393 0 0 Z " fill="#131730" transform="translate(730.47265625,437.703125)"/>
<path d="M0 0 C1.98 0 3.96 0 6 0 C6 0.33 6 0.66 6 1 C4.35 1 2.7 1 1 1 C1 4.63 1 8.26 1 12 C1.66 12 2.32 12 3 12 C3.33 10.35 3.66 8.7 4 7 C6.62386487 10.06117568 7 10.73173127 7 15 C7.763125 15.12375 8.52625 15.2475 9.3125 15.375 C12 16 12 16 15 18 C14.835 18.598125 14.67 19.19625 14.5 19.8125 C13.67257989 23.43246297 14.22768344 26.42803591 15 30 C14.01 29.67 13.02 29.34 12 29 C11.67 28.34 11.34 27.68 11 27 C10.34 26.67 9.68 26.34 9 26 C9 23.69 9 21.38 9 19 C7.02463255 19.34786708 7.02463255 19.34786708 5 20 C4.67 20.66 4.34 21.32 4 22 C3.34 21.34 2.68 20.68 2 20 C2 40.79 2 61.58 2 83 C2.495 82.01 2.495 82.01 3 81 C5.0625 80.375 5.0625 80.375 7 80 C6.67 79.01 6.34 78.02 6 77 C6.94875 76.87625 7.8975 76.7525 8.875 76.625 C12.08667191 76.28312823 12.08667191 76.28312823 14 74 C15.81359313 77.88134031 16.2373701 80.90693517 16.1953125 85.17578125 C16.18886719 86.33271484 16.18242188 87.48964844 16.17578125 88.68164062 C16.15902344 89.87982422 16.14226563 91.07800781 16.125 92.3125 C16.11597656 93.53001953 16.10695313 94.74753906 16.09765625 96.00195312 C16.07413128 99.00138647 16.03826156 102.00071844 16 105 C10.72 105 5.44 105 0 105 C0 70.35 0 35.7 0 0 Z M8 78 C8 78.66 8 79.32 8 80 C8.66 80 9.32 80 10 80 C10 79.34 10 78.68 10 78 C9.34 78 8.68 78 8 78 Z " fill="#F0F2F5" transform="translate(954,395)"/>
<path d="M0 0 C3.5625 0.25 3.5625 0.25 6.5625 2.25 C6.5625 2.91 6.5625 3.57 6.5625 4.25 C3.5925 4.25 0.6225 4.25 -2.4375 4.25 C-2.7675 5.57 -3.0975 6.89 -3.4375 8.25 C-2.81101562 8.44335938 -2.18453125 8.63671875 -1.5390625 8.8359375 C-0.72179687 9.09632813 0.09546875 9.35671875 0.9375 9.625 C1.74960937 9.88023437 2.56171875 10.13546875 3.3984375 10.3984375 C5.5625 11.25 5.5625 11.25 7.5625 13.25 C7.40741045 16.27424622 6.97000539 17.79547475 4.9375 20.0625 C1.62914784 21.71667608 -0.77353922 21.56585869 -4.4375 21.25 C-5.46875 20.87875 -6.5 20.5075 -7.5625 20.125 C-11.12437606 19.04095076 -12.11031574 19.78928496 -15.4375 21.25 C-19.69168888 21.70580595 -21.69330086 21.73534726 -25.3125 19.375 C-28.34668475 16.34081525 -28.63183318 14.5668124 -28.75 10.375 C-28.68940698 7.14958694 -28.57609206 5.51458484 -27.0625 2.625 C-22.92863655 0.45964296 -18.98273591 0.23668408 -14.4375 1.25 C-12.07983694 3.05876146 -11.04289922 4.68136125 -9.4375 7.25 C-8.81875 6.46625 -8.2 5.6825 -7.5625 4.875 C-3.84228381 0.27943882 -3.84228381 0.27943882 0 0 Z " fill="#1D203B" transform="translate(631.4375,574.75)"/>
<path d="M0 0 C6.27 0 12.54 0 19 0 C19 35.64 19 71.28 19 108 C12.73 108 6.46 108 0 108 C0 72.36 0 36.72 0 0 Z M1 1 C1 35.65 1 70.3 1 106 C6.28 106 11.56 106 17 106 C17 71.68 17 37.36 17 2 C11.72 1.67 6.44 1.34 1 1 Z " fill="#BABCC6" transform="translate(953,394)"/>
<path d="M0 0 C2.87910442 0.59072198 4.81709657 1.61015297 7.11328125 3.43359375 C8.01046875 4.02140625 8.01046875 4.02140625 8.92578125 4.62109375 C10.56650299 7.12535325 10.64054339 9.48618577 10.54296875 12.4296875 C9.82180757 15.79292101 7.73126101 17.37660966 5.11328125 19.43359375 C1.39874893 21.29085991 -2.842513 21.01860464 -6.88671875 20.43359375 C-10.55322003 17.59018459 -12.57724257 15.3346617 -13.32421875 10.74609375 C-12.78832707 6.68862821 -11.56136372 4.74980116 -8.80078125 1.79296875 C-5.88341791 -0.2789546 -3.49406674 -0.28774667 0 0 Z " fill="#EBEDF2" transform="translate(843.88671875,394.56640625)"/>
<path d="M0 0 C0.99 0 1.98 0 3 0 C3 8.91 3 17.82 3 27 C1.68 26.67 0.36 26.34 -1 26 C-1.33 26.33 -1.66 26.66 -2 27 C-6.3982667 27.54420744 -9.87803353 27.84147485 -13.5 25.125 C-15.89717269 21.72900535 -16.38622944 19.24623001 -16.36328125 15.0390625 C-15.75965397 11.650961 -13.5844052 10.08013101 -11 8 C-10.67 7.67 -10.34 7.34 -10 7 C-5.96839809 6.73706944 -4.44107266 6.70595156 -1 9 C-0.67 6.03 -0.34 3.06 0 0 Z " fill="#DBDAE1" transform="translate(692,568)"/>
<path d="M0 0 C0.33 0 0.66 0 1 0 C1.33 17.16 1.66 34.32 2 52 C2.66 52.33 3.32 52.66 4 53 C4.33 52.34 4.66 51.68 5 51 C4.34 50.67 3.68 50.34 3 50 C3.66 50 4.32 50 5 50 C5 49.34 5 48.68 5 48 C4.34 47.67 3.68 47.34 3 47 C4.485 46.505 4.485 46.505 6 46 C6.5534764 48.07553648 7 49.84365964 7 52 C7.33 51.34 7.66 50.68 8 50 C8.66 50 9.32 50 10 50 C10.33 50.66 10.66 51.32 11 52 C10.95875 51.319375 10.9175 50.63875 10.875 49.9375 C11.02549965 46.40075832 11.94375853 43.36676967 13 40 C11.35 40 9.7 40 8 40 C8 38.35 8 36.7 8 35 C7.01 34.67 6.02 34.34 5 34 C5 31.03 5 28.06 5 25 C5.66 25.33 6.32 25.66 7 26 C6.67 28.31 6.34 30.62 6 33 C7.65 33 9.3 33 11 33 C11 32.01 11 31.02 11 30 C11.66 30 12.32 30 13 30 C15.35953094 27.64046906 15.49141413 26.22104383 16 23 C16.33 23 16.66 23 17 23 C17 35.21 17 47.42 17 60 C11.06 60 5.12 60 -1 60 C-0.505 30.3 -0.505 30.3 0 0 Z " fill="#F2F3F7" transform="translate(774,441)"/>
<path d="M0 0 C2.75329021 1.79562405 4.52627461 3.05254922 6 6 C6.42068924 9.05901174 6.49028455 11.94758326 6 15 C3.5625 18 3.5625 18 1 20 C0.67 20.33 0.34 20.66 0 21 C-4.16400962 21.40038554 -6.32250696 21.44184328 -9.875 19.125 C-12.73785628 16.26214372 -13.1865146 14.63283238 -13.3125 10.6875 C-13.28413514 7.16458401 -13.06650675 6.10641081 -11.125 3 C-7.4943374 -0.41709421 -4.9378642 -0.41846307 0 0 Z " fill="#DDDEE6" transform="translate(1161,575)"/>
<path d="M0 0 C2.78901573 1.23956255 4.44350587 2.28450754 6.3125 4.6875 C7.3524514 8.18551833 7.6580534 11.42669926 7 15 C5.125 18 5.125 18 2 20 C-2.1094206 20.88251492 -6.06598599 21.18189745 -9.7578125 18.92578125 C-12.28013971 16.29535431 -13.36707411 13.54513748 -13.6875 10 C-13.46320073 6.76012162 -12.57435075 4.93555032 -10.4375 2.5 C-7.04156764 -0.43940372 -4.46949671 -0.73137219 0 0 Z " fill="#D6D6DE" transform="translate(1263,575)"/>
<path d="M0 0 C5.57894737 3.15789474 5.57894737 3.15789474 7 6 C7.64233846 10.6707182 7.62020335 13.9870012 5.125 18.0625 C0.75508541 20.77184705 -2.98556054 21.05032178 -8 20 C-11.01762885 17.49757608 -11.78752713 15.7284784 -12.875 12 C-13.01645196 8.60515287 -12.69932147 6.93519164 -11 4 C-7.455332 0.356869 -5.06747162 -0.82734231 0 0 Z " fill="#191C35" transform="translate(532,575)"/>
<path d="M0 0 C5.57894737 3.15789474 5.57894737 3.15789474 7 6 C7.64233846 10.6707182 7.62020335 13.9870012 5.125 18.0625 C0.71774648 20.79499718 -2.94663642 20.86921262 -8 20 C-10.625 18.6875 -10.625 18.6875 -12 16 C-12.75653698 11.60938357 -13.30342547 7.08905178 -10.859375 3.171875 C-7.45347633 0.05278885 -4.45691424 -0.83567142 0 0 Z " fill="#1A1C36" transform="translate(962,575)"/>
<path d="M0 0 C3.477916 1.94312716 6.39032354 4.05520927 7.6171875 7.96875 C7.87318455 11.88399905 7.00028936 13.99945985 5.125 17.5 C2.65261326 20.07128221 0.51782484 20.51897867 -3 20.75 C-6.51782484 20.51897867 -8.65261326 20.07128221 -11.125 17.5 C-13.00028936 13.99945985 -13.87318455 11.88399905 -13.6171875 7.96875 C-11.79351005 2.15144977 -5.84577852 -1.46144463 0 0 Z " fill="#DEDEE4" transform="translate(798,575)"/>
<path d="M0 0 C1.48831242 0.00667405 2.97660807 0.01863442 4.46484375 0.03515625 C5.22345703 0.03966797 5.98207031 0.04417969 6.76367188 0.04882812 C8.64326246 0.06064945 10.52281274 0.07858547 12.40234375 0.09765625 C10.62323447 6.84817727 8.69796184 13.50385962 6.40234375 20.09765625 C5.08234375 19.76765625 3.76234375 19.43765625 2.40234375 19.09765625 C2.73234375 17.77765625 3.06234375 16.45765625 3.40234375 15.09765625 C0.43234375 14.60265625 0.43234375 14.60265625 -2.59765625 14.09765625 C-3.91765625 15.74765625 -5.23765625 17.39765625 -6.59765625 19.09765625 C-5.93765625 19.09765625 -5.27765625 19.09765625 -4.59765625 19.09765625 C-3.93765625 21.07765625 -3.27765625 23.05765625 -2.59765625 25.09765625 C-5.26432292 25.09765625 -7.93098958 25.09765625 -10.59765625 25.09765625 C-10.92765625 26.08765625 -11.25765625 27.07765625 -11.59765625 28.09765625 C-10.82270143 22.33392974 -9.20627789 16.85842319 -7.59765625 11.28515625 C-7.324375 10.31900391 -7.05109375 9.35285156 -6.76953125 8.35742188 C-6.5065625 7.44025391 -6.24359375 6.52308594 -5.97265625 5.578125 C-5.61300781 4.32358521 -5.61300781 4.32358521 -5.24609375 3.04370117 C-4.11716988 -0.34434557 -3.89787508 0.10580551 0 0 Z " fill="#EEF0F3" transform="translate(1178.59765625,425.90234375)"/>
<path d="M0 0 C2.1796875 1.47265625 2.1796875 1.47265625 4 4 C4.48497961 6.9333444 4.37774803 9.78722842 4.25 12.75 C4.23195313 13.54277344 4.21390625 14.33554687 4.1953125 15.15234375 C4.14833082 17.10208348 4.07659044 19.05119878 4 21 C2.68 21 1.36 21 0 21 C-0.33 15.72 -0.66 10.44 -1 5 C-3.475 4.505 -3.475 4.505 -6 4 C-8.84614024 6.84614024 -8.45579076 9.80369142 -8.625 13.625 C-8.66367187 14.33140625 -8.70234375 15.0378125 -8.7421875 15.765625 C-8.83647724 17.50998524 -8.91932891 19.25495691 -9 21 C-10.32 21 -11.64 21 -13 21 C-13.33 15.39 -13.66 9.78 -14 4 C-15.65 4 -17.3 4 -19 4 C-21.84614024 6.84614024 -21.45579076 9.80369142 -21.625 13.625 C-21.66367187 14.33140625 -21.70234375 15.0378125 -21.7421875 15.765625 C-21.83647724 17.50998524 -21.91932891 19.25495691 -22 21 C-23.32 21 -24.64 21 -26 21 C-26 14.4 -26 7.8 -26 1 C-25.01 1 -24.02 1 -23 1 C-22.67 1.66 -22.34 2.32 -22 3 C-21.34 2.34 -20.68 1.68 -20 1 C-17.29723124 0.91281391 -14.69313525 0.90853503 -12 1 C-7.64258447 1 -4.44385999 -0.444386 0 0 Z " fill="#C2C4CF" transform="translate(570,575)"/>
<path d="M0 0 C0.86367188 -0.03738281 1.72734375 -0.07476563 2.6171875 -0.11328125 C5.125 0.3125 5.125 0.3125 7.4296875 1.81640625 C9.80522039 5.31402265 9.56172772 8.49758117 9.375 12.5625 C9.35695313 13.30757812 9.33890625 14.05265625 9.3203125 14.8203125 C9.27335649 16.65159701 9.20161652 18.48221649 9.125 20.3125 C7.805 20.3125 6.485 20.3125 5.125 20.3125 C5.125 19.6525 5.125 18.9925 5.125 18.3125 C4.568125 18.6425 4.01125 18.9725 3.4375 19.3125 C0.69338177 20.49914572 -0.91454738 20.75656789 -3.875 20.3125 C-6.64889443 18.28830677 -7.73019403 17.16064923 -8.3125 13.75 C-7.78553498 10.81405205 -7.2487025 10.07756084 -4.875 8.3125 C-2.17578125 8.01953125 -2.17578125 8.01953125 0.8125 8.125 C1.80636719 8.15207031 2.80023437 8.17914062 3.82421875 8.20703125 C4.96310547 8.25923828 4.96310547 8.25923828 6.125 8.3125 C5.465 6.6625 4.805 5.0125 4.125 3.3125 C3.0525 3.3125 1.98 3.3125 0.875 3.3125 C-1.70833333 3.3125 -4.29166667 3.3125 -6.875 3.3125 C-6.875 2.6525 -6.875 1.9925 -6.875 1.3125 C-4.44538821 0.0976941 -2.71115884 0.07642733 0 0 Z " fill="#C0C2CD" transform="translate(729.875,575.6875)"/>
<path d="M0 0 C0.99 0 1.98 0 3 0 C3.27714844 0.85464844 3.55429688 1.70929687 3.83984375 2.58984375 C4.20207031 3.69457031 4.56429688 4.79929687 4.9375 5.9375 C5.29714844 7.03964844 5.65679688 8.14179687 6.02734375 9.27734375 C6.73856668 11.88123475 6.73856668 11.88123475 8 13 C8.19335938 12.31292969 8.38671875 11.62585938 8.5859375 10.91796875 C8.84632812 10.01691406 9.10671875 9.11585938 9.375 8.1875 C9.75785156 6.84751953 9.75785156 6.84751953 10.1484375 5.48046875 C11 3 11 3 13 0 C14.32 0 15.64 0 17 0 C17.26554687 0.92683594 17.53109375 1.85367188 17.8046875 2.80859375 C18.15789062 4.00613281 18.51109375 5.20367188 18.875 6.4375 C19.22304687 7.63246094 19.57109375 8.82742188 19.9296875 10.05859375 C20.6608291 13.11691031 20.6608291 13.11691031 23 14 C23.12375 12.80375 23.2475 11.6075 23.375 10.375 C23.82325054 6.72403187 24.70446837 3.45475101 26 0 C26.99 0 27.98 0 29 0 C28.35731596 4.45143264 27.29333357 8.58881647 25.9375 12.875 C25.57527344 14.02742187 25.21304687 15.17984375 24.83984375 16.3671875 C24.56269531 17.23601563 24.28554687 18.10484375 24 19 C22.35 19 20.7 19 19 19 C17.68 15.04 16.36 11.08 15 7 C12.65085508 9.34914492 12.26859643 10.95679446 11.375 14.125 C11.11460938 15.03507813 10.85421875 15.94515625 10.5859375 16.8828125 C10.39257812 17.58148437 10.19921875 18.28015625 10 19 C8.35 19 6.7 19 5 19 C2.48590969 12.63876684 0.51621228 6.83981276 0 0 Z " fill="#D7D8E1" transform="translate(1273,576)"/>
<path d="M0 0 C0 5.61 0 11.22 0 17 C-3.96 17 -7.92 17 -12 17 C-12 16.67 -12 16.34 -12 16 C-9.36 15.67 -6.72 15.34 -4 15 C-4.99 14.01 -5.98 13.02 -7 12 C-7.99 12.495 -7.99 12.495 -9 13 C-9.99 12.67 -10.98 12.34 -12 12 C-12.33 11.34 -12.66 10.68 -13 10 C-14.32 10 -15.64 10 -17 10 C-17 9.34 -17 8.68 -17 8 C-18.98 8 -20.96 8 -23 8 C-15.72956279 0.08805362 -10.40013879 -0.34667129 0 0 Z " fill="#E2E4EA" transform="translate(821,425)"/>
<path d="M0 0 C2.9375 2.125 2.9375 2.125 5 5 C5 6.98 5 8.96 5 11 C0.05 11 -4.9 11 -10 11 C-8.23148964 14.18074165 -8.23148964 14.18074165 -6 17 C-4.31391034 17.07205511 -2.62499341 17.08386068 -0.9375 17.0625 C-0.01839844 17.05347656 0.90070312 17.04445313 1.84765625 17.03515625 C2.55792969 17.02355469 3.26820313 17.01195312 4 17 C4 17.66 4 18.32 4 19 C0.3132962 21.35949043 -2.69893022 21.66740738 -7 21 C-10.28147987 18.63762171 -12.46409349 15.87387445 -13.58203125 11.96484375 C-13.83809586 8.87420344 -13.50116152 6.82823536 -11.88671875 4.16015625 C-8.36123324 0.1215273 -5.43099794 -1.08619959 0 0 Z " fill="#F3F3F6" transform="translate(831,575)"/>
<path d="M0 0 C0.66 0 1.32 0 2 0 C0.89703209 6.16501009 -1.13091131 12.03097481 -3 18 C-12.405 18.495 -12.405 18.495 -22 19 C-22.33 16.03 -22.66 13.06 -23 10 C-22.01 10 -21.02 10 -20 10 C-19.67 9.34 -19.34 8.68 -19 8 C-16 9 -16 9 -15 11 C-14.34 10.67 -13.68 10.34 -13 10 C-13 10.66 -13 11.32 -13 12 C-12.34 12 -11.68 12 -11 12 C-11 10.02 -11 8.04 -11 6 C-10.01 6.33 -9.02 6.66 -8 7 C-8 6.34 -8 5.68 -8 5 C-5.03 5.495 -5.03 5.495 -2 6 C-2.66 5.67 -3.32 5.34 -4 5 C-3.67 4.01 -3.34 3.02 -3 2 C-2.01 2 -1.02 2 0 2 C0 1.34 0 0.68 0 0 Z " fill="#E3E5EA" transform="translate(1118,484)"/>
<path d="M0 0 C2.625 2.1875 2.625 2.1875 4 5 C4 6.65 4 8.3 4 10 C-0.95 10 -5.9 10 -11 10 C-9.66436384 14.94463635 -9.66436384 14.94463635 -7 16 C-5.29297265 16.06996014 -3.58331997 16.08440154 -1.875 16.0625 C-0.96492187 16.05347656 -0.05484375 16.04445313 0.8828125 16.03515625 C1.58148437 16.02355469 2.28015625 16.01195312 3 16 C3 16.66 3 17.32 3 18 C-0.65851291 20.34144827 -3.72830036 20.44965259 -8 20 C-10.75329021 18.20437595 -12.52627461 16.94745078 -14 14 C-14.47755807 9.50625682 -14.75112895 5.43397346 -12.625 1.375 C-8.49802088 -0.78675097 -4.54614189 -0.87600076 0 0 Z " fill="#EFEFF3" transform="translate(617,576)"/>
<path d="M0 0 C2.5625 1.625 2.5625 1.625 4 4 C4 5.98 4 7.96 4 10 C-0.95 10 -5.9 10 -11 10 C-7.92753792 16.10028345 -7.92753792 16.10028345 -4.421875 16.5859375 C-3.54015625 16.51632812 -2.6584375 16.44671875 -1.75 16.375 C-0.41195313 16.29378906 -0.41195313 16.29378906 0.953125 16.2109375 C1.62859375 16.14132812 2.3040625 16.07171875 3 16 C3 16.66 3 17.32 3 18 C-0.72579089 20.48386059 -2.58711402 20.3804212 -7 20 C-9.78901573 18.76043745 -11.44350587 17.71549246 -13.3125 15.3125 C-14.35186067 11.81646867 -14.66471655 8.57108357 -14 5 C-10.43355423 -0.52223862 -6.13937264 -1.22558372 0 0 Z " fill="#EAEBF0" transform="translate(1209,576)"/>
<path d="M0 0 C2.5625 1.0625 2.5625 1.0625 4 3 C4 5.31 4 7.62 4 10 C-0.62 10 -5.24 10 -10 10 C-8.54711014 14.5841963 -8.54711014 14.5841963 -7 16 C-5.31391034 16.07205511 -3.62499341 16.08386068 -1.9375 16.0625 C-1.01839844 16.05347656 -0.09929688 16.04445313 0.84765625 16.03515625 C1.55792969 16.02355469 2.26820313 16.01195312 3 16 C3 16.66 3 17.32 3 18 C-0.41557022 20.10188936 -3.02173 20.4871351 -7 20 C-10.38182152 17.84793176 -12.75151347 15.85895837 -14 12 C-14.62446621 7.89636489 -14.15209428 6.26493843 -12.0625 2.625 C-8.64312205 -1.09723714 -4.72318995 -0.86356831 0 0 Z " fill="#DFE0E6" transform="translate(714,576)"/>
<path d="M0 0 C1.31291016 -0.03867187 1.31291016 -0.03867187 2.65234375 -0.078125 C5.0625 0.25 5.0625 0.25 6.8671875 1.25390625 C8.78413544 4.45508402 8.3730383 7.82522167 8.25 11.4375 C8.22969727 12.56188477 8.22969727 12.56188477 8.20898438 13.70898438 C8.17368539 15.55629767 8.11987917 17.40324066 8.0625 19.25 C7.4025 19.25 6.7425 19.25 6.0625 19.25 C6.0625 18.59 6.0625 17.93 6.0625 17.25 C5.0725 17.91 4.0825 18.57 3.0625 19.25 C0.87109375 19.55078125 0.87109375 19.55078125 -1.5 19.5625 C-2.28503906 19.57925781 -3.07007813 19.59601562 -3.87890625 19.61328125 C-4.55824219 19.49339844 -5.23757813 19.37351562 -5.9375 19.25 C-8.09252531 16.01746204 -8.40606135 14.99849077 -7.9375 11.25 C-6.7421875 9.60546875 -6.7421875 9.60546875 -4.9375 8.25 C-2.45703125 7.95703125 -2.45703125 7.95703125 0.25 8.0625 C1.60158203 8.10310547 1.60158203 8.10310547 2.98046875 8.14453125 C3.66753906 8.17933594 4.35460938 8.21414063 5.0625 8.25 C4.4025 6.6 3.7425 4.95 3.0625 3.25 C-1.3925 3.745 -1.3925 3.745 -5.9375 4.25 C-6.2675 3.26 -6.5975 2.27 -6.9375 1.25 C-4.48367866 0.02308933 -2.73765897 0.04824069 0 0 Z " fill="#DCDCE5" transform="translate(1060.9375,575.75)"/>
<path d="M0 0 C2.5625 1.625 2.5625 1.625 4 4 C4 5.98 4 7.96 4 10 C-0.95 10 -5.9 10 -11 10 C-9.23148964 13.18074165 -9.23148964 13.18074165 -7 16 C-5.31391034 16.07205511 -3.62499341 16.08386068 -1.9375 16.0625 C-1.01839844 16.05347656 -0.09929688 16.04445313 0.84765625 16.03515625 C1.55792969 16.02355469 2.26820313 16.01195312 3 16 C3 16.66 3 17.32 3 18 C-0.68876027 19.84438013 -4.97330313 19.48788734 -9 19 C-11.57637471 17.11484777 -12.59667428 15.80665143 -14 13 C-14.68288206 6.05736576 -14.68288206 6.05736576 -12.0625 2 C-7.96834083 -0.6737366 -4.76446179 -0.95111457 0 0 Z " fill="#E1E2E8" transform="translate(873,576)"/>
<path d="M0 0 C3.4375 0.9375 3.4375 0.9375 5.140625 2.48046875 C6.99337984 5.99065789 6.75805586 9.32546836 6.625 13.1875 C6.60469727 14.30511719 6.60469727 14.30511719 6.58398438 15.4453125 C6.54877204 17.27635416 6.49496851 19.10702169 6.4375 20.9375 C5.1175 20.9375 3.7975 20.9375 2.4375 20.9375 C2.37691406 19.79410156 2.31632813 18.65070312 2.25390625 17.47265625 C2.16951572 15.98175695 2.08486698 14.49087225 2 13 C1.96068359 12.24525391 1.92136719 11.49050781 1.88085938 10.71289062 C1.99711976 7.01805813 1.99711976 7.01805813 0.4375 3.9375 C-2.02059998 3.6874227 -2.02059998 3.6874227 -4.5625 3.9375 C-7.40864024 6.78364024 -7.01829076 9.74119142 -7.1875 13.5625 C-7.22617187 14.26890625 -7.26484375 14.9753125 -7.3046875 15.703125 C-7.39897724 17.44748524 -7.48182891 19.19245691 -7.5625 20.9375 C-8.8825 20.9375 -10.2025 20.9375 -11.5625 20.9375 C-11.5625 14.3375 -11.5625 7.7375 -11.5625 0.9375 C-10.5725 0.9375 -9.5825 0.9375 -8.5625 0.9375 C-8.2325 1.5975 -7.9025 2.2575 -7.5625 2.9375 C-7.046875 2.421875 -6.53125 1.90625 -6 1.375 C-3.5625 -0.0625 -3.5625 -0.0625 0 0 Z " fill="#C1C3CE" transform="translate(985.5625,575.0625)"/>
<path d="M0 0 C0.33 0 0.66 0 1 0 C1.47191339 8.3633539 1.32925411 15.60550757 -3 23 C-3.66 23.33 -4.32 23.66 -5 24 C-5.94244961 19.85322173 -6.26399685 17.64755048 -4 14 C-3.67 13.01 -3.34 12.02 -3 11 C-2.34 10.67 -1.68 10.34 -1 10 C-0.53248212 7.64400765 -0.53248212 7.64400765 -0.375 4.9375 C-0.26285156 3.55884766 -0.26285156 3.55884766 -0.1484375 2.15234375 C-0.09945313 1.44207031 -0.05046875 0.73179687 0 0 Z M-8 7 C-7.67 7 -7.34 7 -7 7 C-7 8.65 -7 10.3 -7 12 C-6.34 12 -5.68 12 -5 12 C-4.67 12.99 -4.34 13.98 -4 15 C-5.2065625 15.8971875 -5.2065625 15.8971875 -6.4375 16.8125 C-9.22327984 18.80947276 -9.22327984 18.80947276 -10 22 C-10 22.66 -10 23.32 -10 24 C-12.875 24.125 -12.875 24.125 -16 24 C-18.68092691 21.31907309 -18.38670257 19.60832637 -18.625 15.875 C-18.69976563 14.77929688 -18.77453125 13.68359375 -18.8515625 12.5546875 C-18.90054687 11.71164062 -18.94953125 10.86859375 -19 10 C-17.68 9.34 -16.36 8.68 -15 8 C-15.33 9.32 -15.66 10.64 -16 12 C-12.95086772 13.01111093 -12.95086772 13.01111093 -10 12 C-9.27840576 10.35636866 -8.60648579 8.68949614 -8 7 Z " fill="#EAECF0" transform="translate(1069,459)"/>
<path d="M0 0 C-0.33 0.99 -0.66 1.98 -1 3 C-0.01 3 0.98 3 2 3 C3.2077558 6.62326739 2.54311128 7.64146369 1 11 C0.01 11 -0.98 11 -2 11 C-2 9.35 -2 7.7 -2 6 C-2.9075 6.350625 -3.815 6.70125 -4.75 7.0625 C-7.87758436 7.96468779 -9.05208081 8.13381507 -12 7 C-12 6.34 -12 5.68 -12 5 C-12.66 5 -13.32 5 -14 5 C-13.34 6.65 -12.68 8.3 -12 10 C-12.66 10 -13.32 10 -14 10 C-14 10.99 -14 11.98 -14 13 C-16.64 12.67 -19.28 12.34 -22 12 C-21.01 11.67 -20.02 11.34 -19 11 C-19.33 10.01 -19.66 9.02 -20 8 C-20.99 7.67 -21.98 7.34 -23 7 C-23 6.34 -23 5.68 -23 5 C-20.35261084 3.5393715 -19.10551666 3 -16 3 C-16 2.34 -16 1.68 -16 1 C-5.62642369 -1.48063781 -5.62642369 -1.48063781 0 0 Z " fill="#F1F3F7" transform="translate(1042,490)"/>
<path d="M0 0 C0.33 0 0.66 0 1 0 C1 9.9 1 19.8 1 30 C14.86 30 28.72 30 43 30 C43 30.66 43 31.32 43 32 C41.77369873 32.01981934 40.54739746 32.03963867 39.28393555 32.06005859 C34.73831492 32.13607619 30.19301601 32.22479947 25.64770508 32.31738281 C23.67967069 32.35568847 21.7115659 32.39053855 19.7434082 32.421875 C16.91592228 32.46749111 14.08892166 32.52549098 11.26171875 32.5859375 C10.38037766 32.59748871 9.49903656 32.60903992 8.59098816 32.62094116 C7.77036392 32.64081085 6.94973969 32.66068054 6.10424805 32.68115234 C5.38254929 32.69447601 4.66085052 32.70779968 3.9172821 32.7215271 C1.67398371 32.90726155 1.67398371 32.90726155 -1 35 C-1.33 31.04 -1.66 27.08 -2 23 C-2.66 23 -3.32 23 -4 23 C-4.144375 22.236875 -4.28875 21.47375 -4.4375 20.6875 C-4.9632594 17.91827092 -4.9632594 17.91827092 -6 15 C-5.0625 12.8125 -5.0625 12.8125 -4 11 C-4 12.65 -4 14.3 -4 16 C-3.34 16 -2.68 16 -2 16 C-1.67 17.32 -1.34 18.64 -1 20 C-1 18.35 -1 16.7 -1 15 C-1.66 15 -2.32 15 -3 15 C-2.67 13.68 -2.34 12.36 -2 11 C-1.67 11.33 -1.34 11.66 -1 12 C-0.67 8.04 -0.34 4.08 0 0 Z " fill="#E4E5EB" transform="translate(890,410)"/>
<path d="M0 0 C0.33 0 0.66 0 1 0 C1 8.91 1 17.82 1 27 C-4.94 27 -10.88 27 -17 27 C-17 26.67 -17 26.34 -17 26 C-11.39 26 -5.78 26 0 26 C-0.33 25.34 -0.66 24.68 -1 24 C-2.32 24.33 -3.64 24.66 -5 25 C-4.67 24.01 -4.34 23.02 -4 22 C-4.66 22 -5.32 22 -6 22 C-6.33 22.66 -6.66 23.32 -7 24 C-7.33 23.01 -7.66 22.02 -8 21 C-8.66 21.66 -9.32 22.32 -10 23 C-10.33 21.68 -10.66 20.36 -11 19 C-11.66 19.99 -12.32 20.98 -13 22 C-13.22224251 19.41718164 -13.42823488 16.83477813 -13.625 14.25 C-13.72167969 13.15558594 -13.72167969 13.15558594 -13.8203125 12.0390625 C-14.10381649 8.14088264 -14.27081383 5.29354678 -12 2 C-12 2.99 -12 3.98 -12 5 C-11.34 5 -10.68 5 -10 5 C-9.67 4.01 -9.34 3.02 -9 2 C-9 2.99 -9 3.98 -9 5 C-8.34 5 -7.68 5 -7 5 C-6.67 4.34 -6.34 3.68 -6 3 C-6 3.99 -6 4.98 -6 6 C-9.75 7.125 -9.75 7.125 -12 6 C-11.67 8.64 -11.34 11.28 -11 14 C-9.02 13.67 -7.04 13.34 -5 13 C-4.67 13.66 -4.34 14.32 -4 15 C-4.66 15 -5.32 15 -6 15 C-5.67 15.99 -5.34 16.98 -5 18 C-5.33 18.33 -5.66 18.66 -6 19 C-5.01 19 -4.02 19 -3 19 C-3 16.69 -3 14.38 -3 12 C-2.67 12.66 -2.34 13.32 -2 14 C-1.34 14 -0.68 14 0 14 C-0.12568359 12.98679687 -0.12568359 12.98679687 -0.25390625 11.953125 C-0.35574219 11.06109375 -0.45757813 10.1690625 -0.5625 9.25 C-0.66691406 8.36828125 -0.77132812 7.4865625 -0.87890625 6.578125 C-0.99456676 4.11567549 -0.73638695 2.33461936 0 0 Z " fill="#F4F5F8" transform="translate(890,474)"/>
<path d="M0 0 C5.57894737 3.15789474 5.57894737 3.15789474 7 6 C7.64233846 10.6707182 7.62020335 13.9870012 5.125 18.0625 C0.75508541 20.77184705 -2.98556054 21.05032178 -8 20 C-11.01762885 17.49757608 -11.78752713 15.7284784 -12.875 12 C-13.01645196 8.60515287 -12.69932147 6.93519164 -11 4 C-7.455332 0.356869 -5.06747162 -0.82734231 0 0 Z M-7.875 4.5625 C-9.42190908 7.91413635 -9.39126176 10.34822358 -9 14 C-8.04826062 16.52040427 -8.04826062 16.52040427 -6 18 C-2.38925156 18.61459548 -0.69861159 18.45961289 2.375 16.4375 C4.62340519 13.06489221 4.56783945 10.97487617 4 7 C2.52006844 4.43661311 2.52006844 4.43661311 0 3 C-3.46179158 2.43480954 -5.1377904 2.281492 -7.875 4.5625 Z " fill="#D7D6E0" transform="translate(532,575)"/>
<path d="M0 0 C3.375 0.9375 3.375 0.9375 5.375 3.9375 C5.80573122 7.8858695 5.98079756 10.06245909 3.6875 13.375 C1.375 14.9375 1.375 14.9375 -1.125 15.4375 C-4.53024375 14.75645125 -5.65047983 13.7895847 -7.625 10.9375 C-8.19145882 6.97228823 -8.20090314 4.85894502 -6.0625 1.4375 C-3.625 -0.0625 -3.625 -0.0625 0 0 Z " fill="#191B34" transform="translate(1158.625,578.0625)"/>
<path d="M0 0 C2.15174713 1.60623378 2.906388 2.49339389 3.3984375 5.15625 C3.39070312 5.9296875 3.38296875 6.703125 3.375 7.5 C3.38273438 8.2734375 3.39046875 9.046875 3.3984375 9.84375 C2.90650464 12.50597491 2.14352664 13.38605053 0 15 C-2.9375 15.5 -2.9375 15.5 -6 15 C-8.4375 12.9375 -8.4375 12.9375 -10 10 C-9.93931504 6.48027215 -9.66225706 4.08052467 -7.8125 1.0625 C-5.08912093 -0.5339636 -3.09046979 -0.38630872 0 0 Z " fill="#1B1E38" transform="translate(798,578)"/>
<path d="M0 0 C5.57894737 3.15789474 5.57894737 3.15789474 7 6 C7.64233846 10.6707182 7.62020335 13.9870012 5.125 18.0625 C0.71774648 20.79499718 -2.94663642 20.86921262 -8 20 C-10.625 18.6875 -10.625 18.6875 -12 16 C-12.75653698 11.60938357 -13.30342547 7.08905178 -10.859375 3.171875 C-7.45347633 0.05278885 -4.45691424 -0.83567142 0 0 Z M-7.875 4 C-9.68159223 7.21171951 -9.51338313 10.45623032 -9 14 C-8.06756129 16.57951684 -8.06756129 16.57951684 -6 18 C-2.38925156 18.61459548 -0.69861159 18.45961289 2.375 16.4375 C4.62340519 13.06489221 4.56783945 10.97487617 4 7 C2.52006844 4.43661311 2.52006844 4.43661311 0 3 C-3.14389944 2.55087151 -5.05480125 2.495894 -7.875 4 Z " fill="#D9DBE4" transform="translate(962,575)"/>
<path d="M0 0 C2.15174713 1.60623378 2.906388 2.49339389 3.3984375 5.15625 C3.39070313 5.9296875 3.38296875 6.703125 3.375 7.5 C3.38273437 8.2734375 3.39046875 9.046875 3.3984375 9.84375 C2.906388 12.50660611 2.15174713 13.39376622 0 15 C-5.13939394 15.64242424 -5.13939394 15.64242424 -7.6640625 13.7578125 C-9.35152036 11.53747321 -9.4026536 10.26536019 -9.375 7.5 C-9.38273437 6.7265625 -9.39046875 5.953125 -9.3984375 5.15625 C-8.41808061 -0.1492108 -4.82244972 -0.60280621 0 0 Z " fill="#151831" transform="translate(1263,578)"/>
<path d="M0 0 C1.875 1 1.875 1 3 3 C3.76325088 9.86925795 3.76325088 9.86925795 1.3125 13.5 C-1.45122422 15.29268598 -2.76822531 15.58006212 -6 15 C-8.11933507 13.37873409 -8.90860636 12.49460087 -9.3984375 9.84375 C-9.39070312 9.0703125 -9.38296875 8.296875 -9.375 7.5 C-9.38273438 6.7265625 -9.39046875 5.953125 -9.3984375 5.15625 C-8.41808061 -0.1492108 -4.82244972 -0.60280621 0 0 Z " fill="#181B34" transform="translate(689,578)"/>
<path d="M0 0 C0.99 0 1.98 0 3 0 C3 6.6 3 13.2 3 20 C2.01 20 1.02 20 0 20 C-0.33 19.34 -0.66 18.68 -1 18 C-1.66 18.66 -2.32 19.32 -3 20 C-5.09375 20.30078125 -5.09375 20.30078125 -7.5 20.3125 C-8.2940625 20.32925781 -9.088125 20.34601562 -9.90625 20.36328125 C-10.5971875 20.24339844 -11.288125 20.12351562 -12 20 C-14.52775351 16.20836973 -14.22443035 13.19125969 -14.125 8.8125 C-14.11597656 8.06291016 -14.10695313 7.31332031 -14.09765625 6.54101562 C-14.07412578 4.69387346 -14.03825561 2.84689588 -14 1 C-13.01 1 -12.02 1 -11 1 C-10.93941406 2.07121094 -10.87882813 3.14242187 -10.81640625 4.24609375 C-10.73201463 5.64324391 -10.64736594 7.04037857 -10.5625 8.4375 C-10.52318359 9.14455078 -10.48386719 9.85160156 -10.44335938 10.58007812 C-10.52375562 14.08690419 -10.52375562 14.08690419 -9 17 C-6.33990339 17.28001017 -4.65339787 17.42982558 -2.37890625 15.93359375 C-0.29784788 13.01539576 -0.47473786 10.34928528 -0.3125 6.8125 C-0.24675781 5.54019531 -0.18101562 4.26789062 -0.11328125 2.95703125 C-0.05720703 1.49330078 -0.05720703 1.49330078 0 0 Z " fill="#E2E3EB" transform="translate(917,575)"/>
<path d="M0 0 C5.61 0 11.22 0 17 0 C17 0.66 17 1.32 17 2 C12.38 2 7.76 2 3 2 C3 4.97 3 7.94 3 11 C6.96 11 10.92 11 15 11 C15 11.99 15 12.98 15 14 C11.04 14 7.08 14 3 14 C3 17.96 3 21.92 3 26 C2.01 26 1.02 26 0 26 C0 17.42 0 8.84 0 0 Z " fill="#DFDFE7" transform="translate(485,569)"/>
<path d="M0 0 C1.32 0.33 2.64 0.66 4 1 C4.33 0.67 4.66 0.34 5 0 C6.9609375 -0.203125 6.9609375 -0.203125 9.375 -0.25 C10.16648437 -0.27578125 10.95796875 -0.3015625 11.7734375 -0.328125 C14 0 14 0 15.77734375 1.00390625 C17.73314199 4.19691872 17.31084781 7.56613481 17.1875 11.1875 C17.16719727 12.31188477 17.16719727 12.31188477 17.14648438 13.45898438 C17.11118539 15.30629767 17.05737917 17.15324066 17 19 C16.01 19 15.02 19 14 19 C13.67 13.72 13.34 8.44 13 3 C10.69 3 8.38 3 6 3 C3.65229357 6.52155964 3.62330386 8.50771843 3.375 12.6875 C3.30023437 13.86699219 3.22546875 15.04648437 3.1484375 16.26171875 C3.09945313 17.16535156 3.05046875 18.06898438 3 19 C2.01 19 1.02 19 0 19 C0 12.73 0 6.46 0 0 Z " fill="#E4E5EC" transform="translate(1116,576)"/>
<path d="M0 0 C1.32 0.33 2.64 0.66 4 1 C4.33 0.67 4.66 0.34 5 0 C6.9609375 -0.203125 6.9609375 -0.203125 9.375 -0.25 C10.16648437 -0.27578125 10.95796875 -0.3015625 11.7734375 -0.328125 C14 0 14 0 15.77734375 1.00390625 C17.73314199 4.19691872 17.31084781 7.56613481 17.1875 11.1875 C17.16719727 12.31188477 17.16719727 12.31188477 17.14648438 13.45898438 C17.11118539 15.30629767 17.05737917 17.15324066 17 19 C16.01 19 15.02 19 14 19 C13.67 14.05 13.34 9.1 13 4 C7.54117766 2.44957005 7.54117766 2.44957005 5.16796875 4.01953125 C3.47873614 6.8838822 3.47588343 9.38715477 3.3125 12.6875 C3.21388672 14.45673828 3.21388672 14.45673828 3.11328125 16.26171875 C3.05720703 17.61716797 3.05720703 17.61716797 3 19 C2.01 19 1.02 19 0 19 C0 12.73 0 6.46 0 0 Z " fill="#E5E6ED" transform="translate(1173,576)"/>
<path d="M0 0 C1.875 0.1875 1.875 0.1875 4 1 C5.25 3.5625 5.25 3.5625 6 6 C9.73639216 4.75453595 10.18756513 3.36595047 12 0 C13.32 0.33 14.64 0.66 16 1 C15.62746094 1.45890625 15.25492188 1.9178125 14.87109375 2.390625 C14.39800781 3.00421875 13.92492187 3.6178125 13.4375 4.25 C12.96183594 4.85328125 12.48617187 5.4565625 11.99609375 6.078125 C10.80242829 7.94927359 10.80242829 7.94927359 11.21875 10.0703125 C12.31649146 12.7817339 14.16083344 14.74553776 16 17 C16 17.66 16 18.32 16 19 C14.68 19 13.36 19 12 19 C9 14.92857143 9 14.92857143 9 12 C6.93105065 13.99760627 5.0814519 15.88270926 3.4375 18.25 C2.7259375 19.11625 2.7259375 19.11625 2 20 C1.01 20 0.02 20 -1 20 C-0.02003892 17.28626162 0.84966873 15.18373822 2.6875 12.9375 C4.20659503 11.12132051 4.20659503 11.12132051 3.875 9.0625 C2.81123119 6.55504494 1.40889673 4.32774243 0 2 C0 1.34 0 0.68 0 0 Z " fill="#DFDFE6" transform="translate(840,576)"/>
<path d="M0 0 C0.99 0.66 1.98 1.32 3 2 C3 2.66 3 3.32 3 4 C0.03 4 -2.94 4 -6 4 C-6.33 5.32 -6.66 6.64 -7 8 C-6.37351562 8.19335938 -5.74703125 8.38671875 -5.1015625 8.5859375 C-4.28429687 8.84632813 -3.46703125 9.10671875 -2.625 9.375 C-1.81289063 9.63023437 -1.00078125 9.88546875 -0.1640625 10.1484375 C2 11 2 11 4 13 C3.84491045 16.02424622 3.40750539 17.54547475 1.375 19.8125 C-1.90103721 21.45051861 -4.38586357 21.32855786 -8 21 C-8.99 20.34 -9.98 19.68 -11 19 C-11 18.34 -11 17.68 -11 17 C-7.7 17 -4.4 17 -1 17 C-1 15.68 -1 14.36 -1 13 C-1.56589844 12.79503906 -2.13179687 12.59007812 -2.71484375 12.37890625 C-3.44832031 12.10949219 -4.18179688 11.84007812 -4.9375 11.5625 C-5.66839844 11.29566406 -6.39929688 11.02882813 -7.15234375 10.75390625 C-9 10 -9 10 -10 9 C-10.45232816 3.79822616 -10.45232816 3.79822616 -8.9375 1.125 C-5.92517484 -0.62409203 -3.40497373 -0.30401551 0 0 Z " fill="#D2D2DB" transform="translate(635,575)"/>
<path d="M0 0 C0 0.99 0 1.98 0 3 C-2.97 3 -5.94 3 -9 3 C-8.67 4.32 -8.34 5.64 -8 7 C-6.02253397 7.73080266 -4.01927511 8.39421747 -2 9 C-0.125 10.3125 -0.125 10.3125 1 12 C1.375 14.5625 1.375 14.5625 1 17 C-2.27127586 19.18085057 -3.27376723 19.24887859 -7.0625 19.1875 C-7.94035156 19.18105469 -8.81820312 19.17460938 -9.72265625 19.16796875 C-12 19 -12 19 -14 18 C-14 17.34 -14 16.68 -14 16 C-10.7 16 -7.4 16 -4 16 C-4 14.68 -4 13.36 -4 12 C-4.56589844 11.79503906 -5.13179687 11.59007812 -5.71484375 11.37890625 C-6.44832031 11.10949219 -7.18179688 10.84007812 -7.9375 10.5625 C-8.66839844 10.29566406 -9.39929688 10.02882813 -10.15234375 9.75390625 C-12 9 -12 9 -13 8 C-13.56883759 2.76669415 -13.56883759 2.76669415 -11.5625 0.0625 C-7.64726537 -1.56088997 -4.09325725 -0.72594092 0 0 Z " fill="#E8E9EE" transform="translate(757,576)"/>
<path d="M0 0 C0.99 0 1.98 0 3 0 C3 1.98 3 3.96 3 6 C4.98 6 6.96 6 9 6 C9 6.66 9 7.32 9 8 C7.35 8 5.7 8 4 8 C4 12.95 4 17.9 4 23 C5.65 23 7.3 23 9 23 C9 23.99 9 24.98 9 26 C3.59016393 26.36065574 3.59016393 26.36065574 1.3125 24.96875 C-0.708874 21.936689 -0.31526465 18.82111386 -0.1875 15.3125 C-0.16719727 14.2596582 -0.16719727 14.2596582 -0.14648438 13.18554688 C-0.11120182 11.45670171 -0.05739583 9.72825235 0 8 C-0.99 8 -1.98 8 -3 8 C-3 7.01 -3 6.02 -3 5 C-2.01 5 -1.02 5 0 5 C0 3.35 0 1.7 0 0 Z " fill="#B6B8C7" transform="translate(927,570)"/>
<path d="M0 0 C5.94 0 11.88 0 18 0 C18 24.42 18 48.84 18 74 C17.67 74 17.34 74 17 74 C16.505 38.36 16.505 38.36 16 2 C10.72 2 5.44 2 0 2 C0 1.34 0 0.68 0 0 Z " fill="#D2D5DE" transform="translate(834,426)"/>
<path d="M0 0 C3.6875 0.3125 3.6875 0.3125 6.125 2.3125 C6.8984375 3.3025 6.8984375 3.3025 7.6875 4.3125 C5.33250383 4.3125 2.97559476 4.26891396 0.625 4.125 C-2.24414158 4.09351828 -2.24414158 4.09351828 -4.1875 5.375 C-5.95523274 8.4194286 -5.68073916 10.8756012 -5.3125 14.3125 C-4.33201062 16.37652685 -4.33201062 16.37652685 -2.3125 17.3125 C1.11952271 17.59850189 3.41179875 17.40440042 6.6875 16.3125 C6.6875 17.3025 6.6875 18.2925 6.6875 19.3125 C4.00957206 21.133491 2.5470082 21.3099456 -0.75 21.25 C-5.13690811 20.0955505 -6.7399428 19.05440139 -9.3125 15.3125 C-10.01437469 12.16262335 -10.04761201 9.45809556 -9.3125 6.3125 C-6.875 3.3125 -6.875 3.3125 -4.3125 1.3125 C-3.3125 0.3125 -3.3125 0.3125 0 0 Z " fill="#E1E2E9" transform="translate(890.3125,574.6875)"/>
<path d="M0 0 C0 0.99 0 1.98 0 3 C-1.98 3 -3.96 3 -6 3 C-6.33 4.98 -6.66 6.96 -7 9 C-5.02 9 -3.04 9 -1 9 C-1 9.66 -1 10.32 -1 11 C-2.98 11 -4.96 11 -7 11 C-7 16.61 -7 22.22 -7 28 C-7.99 28 -8.98 28 -10 28 C-10 22.39 -10 16.78 -10 11 C-10.99 11 -11.98 11 -13 11 C-13 10.34 -13 9.68 -13 9 C-12.01 9 -11.02 9 -10 9 C-9.8453125 7.329375 -9.8453125 7.329375 -9.6875 5.625 C-9.460625 4.42875 -9.23375 3.2325 -9 2 C-5.5647952 -0.29013653 -4.014669 -0.17842973 0 0 Z " fill="#E4E5ED" transform="translate(1239,567)"/>
<path d="M0 0 C0.99 0 1.98 0 3 0 C3 1.65 3 3.3 3 5 C4.65 5 6.3 5 8 5 C8 5.99 8 6.98 8 8 C6.35 8 4.7 8 3 8 C3.33 12.62 3.66 17.24 4 22 C5.65 22.33 7.3 22.66 9 23 C8.67 23.99 8.34 24.98 8 26 C5.6568787 25.74438677 3.32156597 25.40729228 1 25 C-0.53266582 21.93466836 -0.10276471 18.73245728 -0.0625 15.375 C-0.05798828 14.66859375 -0.05347656 13.9621875 -0.04882812 13.234375 C-0.03703875 11.48954725 -0.01910324 9.744763 0 8 C-1.32 8 -2.64 8 -4 8 C-4 7.34 -4 6.68 -4 6 C-2.68 6 -1.36 6 0 6 C0 4.02 0 2.04 0 0 Z " fill="#C5C6D2" transform="translate(591,570)"/>
<path d="M0 0 C1.88391785 3.26545761 2.49287967 6.28111761 3 10 C2.01 10.33 1.02 10.66 0 11 C-0.33 11.66 -0.66 12.32 -1 13 C-1 12.34 -1 11.68 -1 11 C-1.99 11.33 -2.98 11.66 -4 12 C-10.3022508 12.45016077 -10.3022508 12.45016077 -12.9375 10.75 C-14 9 -14 9 -14 5 C-9.38 5 -4.76 5 0 5 C0 3.35 0 1.7 0 0 Z " fill="#272A43" transform="translate(718,581)"/>
<path d="M0 0 C0.99 0 1.98 0 3 0 C3 1.98 3 3.96 3 6 C4.98 6 6.96 6 9 6 C9 6.66 9 7.32 9 8 C7.02 8 5.04 8 3 8 C3 12.62 3 17.24 3 22 C4.98 22.33 6.96 22.66 9 23 C9 23.66 9 24.32 9 25 C5.625 25.125 5.625 25.125 2 25 C0 23 0 23 -0.1953125 19.5234375 C-0.18201493 18.14049032 -0.15816232 16.75761346 -0.125 15.375 C-0.11597656 14.66859375 -0.10695313 13.9621875 -0.09765625 13.234375 C-0.07407603 11.48943902 -0.03820461 9.74467705 0 8 C-0.99 8 -1.98 8 -3 8 C-3 7.01 -3 6.02 -3 5 C-2.01 5 -1.02 5 0 5 C0 3.35 0 1.7 0 0 Z " fill="#F2F1F5" transform="translate(644,570)"/>
<path d="M0 0 C0.99 0 1.98 0 3 0 C3 1.98 3 3.96 3 6 C4.98 6 6.96 6 9 6 C9 6.66 9 7.32 9 8 C7.02 8 5.04 8 3 8 C3.33 12.29 3.66 16.58 4 21 C6.475 21.99 6.475 21.99 9 23 C9 23.66 9 24.32 9 25 C5.625 25.125 5.625 25.125 2 25 C0 23 0 23 -0.1953125 19.5234375 C-0.18201493 18.14049032 -0.15816232 16.75761346 -0.125 15.375 C-0.11597656 14.66859375 -0.10695313 13.9621875 -0.09765625 13.234375 C-0.07407603 11.48943902 -0.03820461 9.74467705 0 8 C-0.99 8 -1.98 8 -3 8 C-3 7.34 -3 6.68 -3 6 C-2.01 6 -1.02 6 0 6 C0 4.02 0 2.04 0 0 Z " fill="#F2F2F6" transform="translate(773,570)"/>
<path d="M0 0 C1.32 0.33 2.64 0.66 4 1 C3.68950274 2.43793392 3.3765224 3.8753318 3.0625 5.3125 C2.80146484 6.51326172 2.80146484 6.51326172 2.53515625 7.73828125 C2 10 2 10 1 13 C-4.94 13 -10.88 13 -17 13 C-15.68 12.34 -14.36 11.68 -13 11 C-11.70768358 7.95800528 -11.70768358 7.95800528 -11 5 C-10.34 5 -9.68 5 -9 5 C-9 5.66 -9 6.32 -9 7 C-5.47159682 6.33246426 -2.23429356 5.61714678 1 4 C0.67 2.68 0.34 1.36 0 0 Z " fill="#D8DAE1" transform="translate(1166,489)"/>
<path d="M0 0 C0.99 0 1.98 0 3 0 C3.33 0.66 3.66 1.32 4 2 C4.66 1.34 5.32 0.68 6 0 C8.68839385 -0.26991906 11.29141936 -0.08737357 14 0 C14 0.99 14 1.98 14 3 C12.88625 2.95875 11.7725 2.9175 10.625 2.875 C6.95633975 2.58878141 6.95633975 2.58878141 5 5 C4.69400937 7.56916657 4.48912913 10.04758384 4.375 12.625 C4.33632813 13.33140625 4.29765625 14.0378125 4.2578125 14.765625 C4.16352276 16.50998524 4.08067109 18.25495691 4 20 C2.68 20 1.36 20 0 20 C0 13.4 0 6.8 0 0 Z " fill="#CCCDD6" transform="translate(544,576)"/>
<path d="M0 0 C1.31291016 -0.03867187 1.31291016 -0.03867187 2.65234375 -0.078125 C5.0625 0.25 5.0625 0.25 6.8671875 1.25390625 C8.78413544 4.45508402 8.3730383 7.82522167 8.25 11.4375 C8.23646484 12.18708984 8.22292969 12.93667969 8.20898438 13.70898438 C8.17368539 15.55629767 8.11987917 17.40324066 8.0625 19.25 C7.4025 19.25 6.7425 19.25 6.0625 19.25 C4.95405081 15.92465243 5.21795644 13.62817425 6.0625 10.25 C2.7625 10.25 -0.5375 10.25 -3.9375 10.25 C-3.6075 9.59 -3.2775 8.93 -2.9375 8.25 C-0.2975 8.25 2.3425 8.25 5.0625 8.25 C4.4025 6.6 3.7425 4.95 3.0625 3.25 C-1.3925 3.745 -1.3925 3.745 -5.9375 4.25 C-6.2675 3.26 -6.5975 2.27 -6.9375 1.25 C-4.48367866 0.02308933 -2.73765897 0.04824069 0 0 Z " fill="#ECECF2" transform="translate(1060.9375,575.75)"/>
<path d="M0 0 C3 0 3 0 5.6875 2.5 C6.450625 3.325 7.21375 4.15 8 5 C7.01 5.495 7.01 5.495 6 6 C6.226875 6.556875 6.45375 7.11375 6.6875 7.6875 C7.12979676 10.96049601 5.93512486 12.41983352 4 15 C3.34 15 2.68 15 2 15 C1.67 15.99 1.34 16.98 1 18 C-1.3548854 11.76647981 -0.87557031 6.54311329 0 0 Z " fill="#E8EAEF" transform="translate(1147,483)"/>
<path d="M0 0 C0.33 0.66 0.66 1.32 1 2 C5.62 2 10.24 2 15 2 C15 1.34 15 0.68 15 0 C15.66 0 16.32 0 17 0 C17 1.32 17 2.64 17 4 C12.05 4 7.1 4 2 4 C3.76851036 7.18074165 3.76851036 7.18074165 6 10 C7.68608966 10.07205511 9.37500659 10.08386068 11.0625 10.0625 C11.98160156 10.05347656 12.90070312 10.04445313 13.84765625 10.03515625 C14.55792969 10.02355469 15.26820313 10.01195312 16 10 C16 10.66 16 11.32 16 12 C12.29135694 13.85432153 8.04832596 13.44400994 4 13 C1.375 11.5625 1.375 11.5625 0 9 C-0.30266213 5.9681604 -0.23343035 3.0345946 0 0 Z " fill="#DEDFE7" transform="translate(860,582)"/>
<path d="M0 0 C0.87527344 -0.01417969 1.75054688 -0.02835938 2.65234375 -0.04296875 C5.0625 0.1875 5.0625 0.1875 8.0625 2.1875 C8.2833564 5.13814148 8.34310989 7.87118231 8.25 10.8125 C8.23646484 11.61429688 8.22292969 12.41609375 8.20898438 13.2421875 C8.17359051 15.22424378 8.11978234 17.20595551 8.0625 19.1875 C7.4025 19.1875 6.7425 19.1875 6.0625 19.1875 C5.14357884 15.51181536 5.10345144 14.02369425 6.0625 10.1875 C2.7625 10.1875 -0.5375 10.1875 -3.9375 10.1875 C-3.6075 9.5275 -3.2775 8.8675 -2.9375 8.1875 C0.0325 8.1875 3.0025 8.1875 6.0625 8.1875 C5.4025 6.5375 4.7425 4.8875 4.0625 3.1875 C2.99 3.1875 1.9175 3.1875 0.8125 3.1875 C-1.77083333 3.1875 -4.35416667 3.1875 -6.9375 3.1875 C-6.9375 2.5275 -6.9375 1.8675 -6.9375 1.1875 C-4.47380468 -0.04434766 -2.7480499 0.02017658 0 0 Z " fill="#F6F6F9" transform="translate(729.9375,575.8125)"/>
<path d="M0 0 C1.32 0 2.64 0 4 0 C4 6.6 4 13.2 4 20 C2.68 20.33 1.36 20.66 0 21 C0 14.07 0 7.14 0 0 Z " fill="#B9BBC7" transform="translate(941,575)"/>
<path d="M0 0 C0.99 0 1.98 0 3 0 C3 8.91 3 17.82 3 27 C2.01 27 1.02 27 0 27 C0 18.09 0 9.18 0 0 Z " fill="#E4E4EC" transform="translate(1242,568)"/>
<path d="M0 0 C0.99 0 1.98 0 3 0 C3 8.91 3 17.82 3 27 C2.01 27 1.02 27 0 27 C0 18.09 0 9.18 0 0 Z " fill="#E2E3EC" transform="translate(1076,568)"/>
<path d="M0 0 C0.99 0 1.98 0 3 0 C3 8.91 3 17.82 3 27 C2.01 27 1.02 27 0 27 C0 18.09 0 9.18 0 0 Z " fill="#E9EBF2" transform="translate(1086,568)"/>
<path d="M0 0 C0.66 0 1.32 0 2 0 C2 0.66 2 1.32 2 2 C5.3 1.67 8.6 1.34 12 1 C12 2.65 12 4.3 12 6 C13.32 6.33 14.64 6.66 16 7 C12.32612505 7.85298376 8.9552607 8.10789471 5.1875 8.0625 C3.72376953 8.04896484 3.72376953 8.04896484 2.23046875 8.03515625 C1.12638672 8.01775391 1.12638672 8.01775391 0 8 C0.17402344 7.38640625 0.34804687 6.7728125 0.52734375 6.140625 C1.06005393 3.7280202 0.74723504 2.32473122 0 0 Z " fill="#EEF0F4" transform="translate(1028,495)"/>
<path d="M0 0 C0.99 0 1.98 0 3 0 C4.14982602 4.09003859 4.11094256 8.03177051 4.0625 12.25 C4.05798828 12.99507812 4.05347656 13.74015625 4.04882812 14.5078125 C4.03709246 16.3385764 4.0191585 18.16929873 4 20 C2.68 20 1.36 20 0 20 C0 13.4 0 6.8 0 0 Z " fill="#C2C3CD" transform="translate(974,576)"/>
<path d="M0 0 C1.32 0.33 2.64 0.66 4 1 C4.33 0.67 4.66 0.34 5 0 C6.66617115 -0.04063832 8.33388095 -0.042721 10 0 C10 0.66 10 1.32 10 2 C8.7934375 2.433125 8.7934375 2.433125 7.5625 2.875 C4.8673532 3.73262568 4.8673532 3.73262568 4 6 C3.77049681 8.204364 3.58924067 10.41392173 3.4375 12.625 C3.35371094 13.81351563 3.26992188 15.00203125 3.18359375 16.2265625 C3.12300781 17.14179687 3.06242187 18.05703125 3 19 C2.01 19 1.02 19 0 19 C0 12.73 0 6.46 0 0 Z " fill="#DDDEE5" transform="translate(507,576)"/>
<path d="M0 0 C1.64826111 2.96687001 2.44271087 5.65626525 3 9 C2.01 9.495 2.01 9.495 1 10 C1 11.65 1 13.3 1 15 C0.01 15 -0.98 15 -2 15 C-2.66 15.66 -3.32 16.32 -4 17 C-4 16.34 -4 15.68 -4 15 C-4.66 15 -5.32 15 -6 15 C-7.0326802 12.21176345 -7.04509293 11.1322726 -6.0625 8.25 C-5.711875 7.5075 -5.36125 6.765 -5 6 C-4.34 6 -3.68 6 -3 6 C-2.67 6.66 -2.34 7.32 -2 8 C-1.34 5.36 -0.68 2.72 0 0 Z " fill="#E3E5EA" transform="translate(1161,470)"/>
<path d="M0 0 C0.33 0 0.66 0 1 0 C1.47191339 8.3633539 1.32925411 15.60550757 -3 23 C-3.66 23.33 -4.32 23.66 -5 24 C-5.94244961 19.85322173 -6.26399685 17.64755048 -4 14 C-3.67 13.01 -3.34 12.02 -3 11 C-2.34 10.67 -1.68 10.34 -1 10 C-0.53248212 7.64400765 -0.53248212 7.64400765 -0.375 4.9375 C-0.26285156 3.55884766 -0.26285156 3.55884766 -0.1484375 2.15234375 C-0.09945313 1.44207031 -0.05046875 0.73179687 0 0 Z M-5 15 C-6.32 16.32 -7.64 17.64 -9 19 C-9.99 18.01 -10.98 17.02 -12 16 C-9.53721199 14.768606 -7.7204945 14.92840804 -5 15 Z " fill="#EDEFF2" transform="translate(1069,459)"/>
<path d="M0 0 C0.66 0 1.32 0 2 0 C2 8.91 2 17.82 2 27 C1.34 27 0.68 27 0 27 C-0.66 21.72 -1.32 16.44 -2 11 C-1.34 11 -0.68 11 0 11 C0 7.37 0 3.74 0 0 Z " fill="#EAECF1" transform="translate(693,568)"/>
<path d="M0 0 C2.6875 0.875 2.6875 0.875 5 2 C5.33 4.31 5.66 6.62 6 9 C2.72872414 11.18085057 1.72623277 11.24887859 -2.0625 11.1875 C-3.37927734 11.17783203 -3.37927734 11.17783203 -4.72265625 11.16796875 C-7 11 -7 11 -9 10 C-9 9.34 -9 8.68 -9 8 C-5.7 8 -2.4 8 1 8 C1 6.68 1 5.36 1 4 C-0.32 3.34 -1.64 2.68 -3 2 C-2.01 1.34 -1.02 0.68 0 0 Z " fill="#D9DAE1" transform="translate(752,584)"/>
<path d="M0 0 C1.875 0.1875 1.875 0.1875 4 1 C5.25 3.5625 5.25 3.5625 6 6 C9.73639216 4.75453595 10.18756513 3.36595047 12 0 C13.32 0.33 14.64 0.66 16 1 C15.12639244 2.51305227 14.22522237 4.01021638 13.3125 5.5 C12.56419922 6.75296875 12.56419922 6.75296875 11.80078125 8.03125 C10 10 10 10 7.46875 10.5234375 C5 10 5 10 3.41796875 8.3203125 C3.01191406 7.59585938 2.60585938 6.87140625 2.1875 6.125 C1.55908203 5.04605469 1.55908203 5.04605469 0.91796875 3.9453125 C0 2 0 2 0 0 Z " fill="#D7D7E0" transform="translate(840,576)"/>
<path d="M0 0 C0.33 0 0.66 0 1 0 C1.0825 0.721875 1.165 1.44375 1.25 2.1875 C2.24630805 5.92365518 4.29234054 8.29234054 7 11 C8.68608966 11.07205511 10.37500659 11.08386068 12.0625 11.0625 C12.98160156 11.05347656 13.90070313 11.04445313 14.84765625 11.03515625 C15.55792969 11.02355469 16.26820312 11.01195312 17 11 C17 11.66 17 12.32 17 13 C13.27420911 15.48386059 11.41288598 15.3804212 7 15 C4.21098427 13.76043745 2.55649413 12.71549246 0.6875 10.3125 C-0.34720816 6.832118 -0.12078138 3.62344134 0 0 Z " fill="#D5D6DF" transform="translate(1195,581)"/>
<path d="M0 0 C1.23556641 0.01740234 1.23556641 0.01740234 2.49609375 0.03515625 C3.32238281 0.04417969 4.14867187 0.05320312 5 0.0625 C5.63808594 0.07410156 6.27617188 0.08570313 6.93359375 0.09765625 C6.62109375 2.47265625 6.62109375 2.47265625 5.93359375 5.09765625 C2.71145618 7.24574796 1.65583974 7.39151778 -2.06640625 7.09765625 C-3.06640625 6.09765625 -3.06640625 6.09765625 -3.19140625 3.59765625 C-3.01865637 0.14265862 -3.01865637 0.14265862 0 0 Z " fill="#222741" transform="translate(729.06640625,585.90234375)"/>
<path d="M0 0 C0.33 0 0.66 0 1 0 C1.03738281 0.60328125 1.07476563 1.2065625 1.11328125 1.828125 C1.40238493 5.34271878 1.66440488 8.29348395 3.1875 11.5 C5.66384592 13.54938973 7.84961526 13.7199658 11 14 C11 14.66 11 15.32 11 16 C8.0717158 16.29779161 5.85647674 16.49631943 3 16 C-0.12692152 13.39423207 -1.66840716 11.88484353 -2.37109375 7.890625 C-2.4375 5.75 -2.4375 5.75 -2 2 C-1.34 1.34 -0.68 0.68 0 0 Z " fill="#E5E5EB" transform="translate(1252,579)"/>
<path d="M0 0 C3.0625 0.375 3.0625 0.375 4.9375 2.25 C6.0625 4.375 6.0625 4.375 6.0625 6.375 C1.7725 6.375 -2.5175 6.375 -6.9375 6.375 C-4.00568182 0.51136364 -4.00568182 0.51136364 0 0 Z " fill="#20253F" transform="translate(827.9375,577.625)"/>
<path d="M0 0 C3.0625 0.375 3.0625 0.375 4.9375 2.25 C6.0625 4.375 6.0625 4.375 6.0625 6.375 C1.7725 6.375 -2.5175 6.375 -6.9375 6.375 C-4.00568182 0.51136364 -4.00568182 0.51136364 0 0 Z " fill="#1F223C" transform="translate(709.9375,577.625)"/>
<path d="M0 0 C0.33 0.99 0.66 1.98 1 3 C5.29 3 9.58 3 14 3 C14 3.66 14 4.32 14 5 C10.04 5 6.08 5 2 5 C2 8.96 2 12.92 2 17 C1.01 17 0.02 17 -1 17 C-0.67 11.39 -0.34 5.78 0 0 Z " fill="#F0F0F4" transform="translate(486,578)"/>
<path d="M0 0 C0.99 0 1.98 0 3 0 C3 6.6 3 13.2 3 20 C2.01 20 1.02 20 0 20 C0 13.4 0 6.8 0 0 Z " fill="#E1E3EB" transform="translate(668,575)"/>
<path d="M0 0 C3.0625 0.3125 3.0625 0.3125 4.9375 1.625 C6.0625 3.3125 6.0625 3.3125 6.0625 6.3125 C2.1025 6.3125 -1.8575 6.3125 -5.9375 6.3125 C-4.47848361 0.47643443 -4.47848361 0.47643443 0 0 Z " fill="#181C37" transform="translate(611.9375,577.6875)"/>
<path d="M0 0 C1.48831242 0.00667405 2.97660807 0.01863442 4.46484375 0.03515625 C5.22345703 0.03966797 5.98207031 0.04417969 6.76367188 0.04882812 C8.64326246 0.06064945 10.52281274 0.07858547 12.40234375 0.09765625 C12.40234375 0.75765625 12.40234375 1.41765625 12.40234375 2.09765625 C7.45234375 2.09765625 2.50234375 2.09765625 -2.59765625 2.09765625 C-2.26765625 4.40765625 -1.93765625 6.71765625 -1.59765625 9.09765625 C-3.57765625 10.08765625 -5.55765625 11.07765625 -7.59765625 12.09765625 C-7.12259947 10.28407471 -6.64249583 8.47181446 -6.16015625 6.66015625 C-5.89332031 5.65082031 -5.62648438 4.64148438 -5.3515625 3.6015625 C-4.19516977 -0.23909937 -4.26649276 0.11581142 0 0 Z " fill="#CBCDD7" transform="translate(1178.59765625,425.90234375)"/>
<path d="M0 0 C3.125 0.25 3.125 0.25 5 1.5625 C6.125 3.25 6.125 3.25 6.125 6.25 C2.165 6.25 -1.795 6.25 -5.875 6.25 C-3.49662162 0.30405405 -3.49662162 0.30405405 0 0 Z " fill="#1B1E39" transform="translate(1203.875,577.75)"/>
<path d="M0 0 C3.125 0.25 3.125 0.25 5 1.5625 C6.125 3.25 6.125 3.25 6.125 6.25 C2.165 6.25 -1.795 6.25 -5.875 6.25 C-3.49662162 0.30405405 -3.49662162 0.30405405 0 0 Z " fill="#1D213D" transform="translate(867.875,577.75)"/>
<path d="M0 0 C2.05078125 0.03255208 4.1015625 0.06510417 6.15234375 0.09765625 C5.40234375 4.84765625 5.40234375 4.84765625 3.15234375 7.09765625 C0.65234375 7.34765625 0.65234375 7.34765625 -1.84765625 7.09765625 C-2.50765625 6.43765625 -3.16765625 5.77765625 -3.84765625 5.09765625 C-3.1001104 0.16385362 -3.1001104 0.16385362 0 0 Z " fill="#1A1E39" transform="translate(1059.84765625,585.90234375)"/>
<path d="M0 0 C0.66 0 1.32 0 2 0 C2 0.99 2 1.98 2 3 C2.99 3.33 3.98 3.66 5 4 C4.67 4.66 4.34 5.32 4 6 C3.77049681 8.204364 3.58924067 10.41392173 3.4375 12.625 C3.35371094 13.81351563 3.26992187 15.00203125 3.18359375 16.2265625 C3.12300781 17.14179687 3.06242187 18.05703125 3 19 C2.01 19 1.02 19 0 19 C0 12.73 0 6.46 0 0 Z " fill="#E7E9F0" transform="translate(1116,576)"/>
<path d="M0 0 C0.99 0 1.98 0 3 0 C3 6.27 3 12.54 3 19 C2.01 19 1.02 19 0 19 C0 12.73 0 6.46 0 0 Z " fill="#E3E5EE" transform="translate(1106,576)"/>
<path d="M0 0 C2.38671875 0.41796875 2.38671875 0.41796875 5.01171875 2.60546875 C6.44287408 5.53283192 6.75318576 7.21138243 6.38671875 10.41796875 C5.72671875 10.41796875 5.06671875 10.41796875 4.38671875 10.41796875 C3.91234375 9.44859375 3.43796875 8.47921875 2.94921875 7.48046875 C1.68477928 4.61319438 1.68477928 4.61319438 0.38671875 3.41796875 C-4.2780621 2.99389776 -6.79792131 3.7247735 -10.61328125 6.41796875 C-10.61328125 3.41796875 -10.61328125 3.41796875 -9.421875 1.76171875 C-6.43561599 -0.45701365 -3.60481117 -0.11051246 0 0 Z " fill="#E0E0E7" transform="translate(614.61328125,575.58203125)"/>
<path d="M0 0 C0.99 0 1.98 0 3 0 C3.26554687 0.85464844 3.53109375 1.70929687 3.8046875 2.58984375 C4.15789062 3.69457031 4.51109375 4.79929687 4.875 5.9375 C5.39707031 7.59072266 5.39707031 7.59072266 5.9296875 9.27734375 C6.70024295 12.12878804 6.70024295 12.12878804 9 13 C8.67 13.99 8.34 14.98 8 16 C6.1875 15.9375 6.1875 15.9375 4 15 C1.26571649 10.03778178 0.49190035 5.60766401 0 0 Z " fill="#BABBC9" transform="translate(1273,576)"/>
<path d="M0 0 C0.33 0 0.66 0 1 0 C1.33 4.29 1.66 8.58 2 13 C3.98 13.66 5.96 14.32 8 15 C7.67 15.99 7.34 16.98 7 18 C4.6568787 17.74438677 2.32156597 17.40729228 0 17 C-1.49341703 14.01316593 -1.13175178 11.25600226 -1.125 7.9375 C-1.12757813 6.66777344 -1.13015625 5.39804687 -1.1328125 4.08984375 C-1 1 -1 1 0 0 Z " fill="#E2E3EB" transform="translate(592,578)"/>
<path d="M0 0 C3.89301165 -0.37076301 5.80577827 -0.10260771 9.3125 1.75 C12 4 12 4 12.875 6.25 C12.936875 7.11625 12.936875 7.11625 13 8 C12.34 8 11.68 8 11 8 C11 9.65 11 11.3 11 13 C10.67 13 10.34 13 10 13 C9.34 10.03 8.68 7.06 8 4 C4.7 4 1.4 4 -2 4 C-1.34 2.68 -0.68 1.36 0 0 Z " fill="#DADAE3" transform="translate(526,575)"/>
<path d="M0 0 C0.33 0 0.66 0 1 0 C1 3.63 1 7.26 1 11 C0.01 11.33 -0.98 11.66 -2 12 C-2.33 11.67 -2.66 11.34 -3 11 C-7.03160191 10.73706944 -8.55892734 10.70595156 -12 13 C-12.66 12.67 -13.32 12.34 -14 12 C-13 9 -13 9 -10 7 C-5.92509248 6.66042437 -4.46998729 6.68667514 -1 9 C-0.67 6.03 -0.34 3.06 0 0 Z " fill="#D4D3DC" transform="translate(692,568)"/>
<path d="M0 0 C1.99954746 -0.04254356 4.00041636 -0.04080783 6 0 C7 1 7 1 7.0625 4.5625 C7.041875 5.696875 7.02125 6.83125 7 8 C6.34 8 5.68 8 5 8 C5 7.34 5 6.68 5 6 C3.02 6 1.04 6 -1 6 C-0.67 4.02 -0.34 2.04 0 0 Z " fill="#20243F" transform="translate(1233,570)"/>
<path d="M0 0 C2.30143236 3.45214853 2.13833854 4.23479324 1.625 8.1875 C1.45871094 9.53908203 1.45871094 9.53908203 1.2890625 10.91796875 C1.14597656 11.94857422 1.14597656 11.94857422 1 13 C0.67 13 0.34 13 0 13 C0 11.35 0 9.7 0 8 C-2.31 8.33 -4.62 8.66 -7 9 C-5.62845496 6.04590299 -4.01136276 3.55991624 -2 1 C-1.67 1.33 -1.34 1.66 -1 2 C-0.67 1.34 -0.34 0.68 0 0 Z " fill="#E5E6EC" transform="translate(1067,449)"/>
<path d="M0 0 C0.66 0 1.32 0 2 0 C2.41668469 4.25018379 2.44022082 6.35342568 0 9.9375 C-4.03031789 12.70834355 -6.19839142 12.40691598 -11 12 C-11 11.34 -11 10.68 -11 10 C-8.98177083 9.57682292 -6.96354167 9.15364583 -4.9453125 8.73046875 C-2.62953451 8.07691162 -2.62953451 8.07691162 -1 5 C-0.61500109 3.34450469 -0.27206865 1.6777567 0 0 Z " fill="#EAEAEF" transform="translate(537,583)"/>
<path d="M0 0 C2 3 2 3 2 5 C2.66 5 3.32 5 4 5 C4.66 6.98 5.32 8.96 6 11 C3.33333333 11 0.66666667 11 -2 11 C-2.33 11.99 -2.66 12.98 -3 14 C-2.28547412 9.23649415 -1.20465156 4.65798604 0 0 Z " fill="#E5E7EC" transform="translate(1170,440)"/>
<path d="M0 0 C2.875 1.5 2.875 1.5 5 3 C4.01 3.99 3.02 4.98 2 6 C2 5.34 2 4.68 2 4 C0.1128125 3.938125 0.1128125 3.938125 -1.8125 3.875 C-2.52019531 3.85179687 -3.22789062 3.82859375 -3.95703125 3.8046875 C-6.31359719 3.86745538 -6.31359719 3.86745538 -9 6 C-9.66 5.34 -10.32 4.68 -11 4 C-7.2916337 0.5097729 -5.11538773 -0.74599404 0 0 Z " fill="#D4D3DA" transform="translate(962,575)"/>
<path d="M0 0 C3 2 3 2 3.5 4.3125 C2.80272228 8.06036772 0.80728166 9.54362855 -2 12 C-3 11 -3 11 -3.125 8.5625 C-3 6 -3 6 -2 4 C-2.33 3.01 -2.66 2.02 -3 1 C-2.01 0.67 -1.02 0.34 0 0 Z " fill="#E8E9EE" transform="translate(1062,478)"/>
<path d="M0 0 C0.33 0.66 0.66 1.32 1 2 C5.62 2 10.24 2 15 2 C15 1.34 15 0.68 15 0 C15.66 0 16.32 0 17 0 C17 1.32 17 2.64 17 4 C12.05 4 7.1 4 2 4 C2 4.66 2 5.32 2 6 C1.34 6 0.68 6 0 6 C0 4.02 0 2.04 0 0 Z " fill="#FBFBFC" transform="translate(860,582)"/>
<path d="M0 0 C2.42857143 7.42857143 2.42857143 7.42857143 1 11 C0.01 10.67 -0.98 10.34 -2 10 C-2 9.34 -2 8.68 -2 8 C-2.66 8 -3.32 8 -4 8 C-4.66 6.02 -5.32 4.04 -6 2 C-1.125 0 -1.125 0 0 0 Z " fill="#E2E4E9" transform="translate(1098,443)"/>
<path d="M0 0 C0.99 0 1.98 0 3 0 C3.042721 1.66611905 3.04063832 3.33382885 3 5 C2.67 5.33 2.34 5.66 2 6 C1.76298761 8.85877909 1.57780818 11.69883297 1.4375 14.5625 C1.39431641 15.36880859 1.35113281 16.17511719 1.30664062 17.00585938 C1.20024738 19.00368805 1.09959112 21.0018207 1 23 C0.67 23 0.34 23 0 23 C0 18.05 0 13.1 0 8 C-0.99 8 -1.98 8 -3 8 C-3 7.01 -3 6.02 -3 5 C-2.01 5 -1.02 5 0 5 C0 3.35 0 1.7 0 0 Z " fill="#C2C1CC" transform="translate(644,570)"/>
<path d="M0 0 C0.99 0.66 1.98 1.32 3 2 C3.66 2 4.32 2 5 2 C5 2.99 5 3.98 5 5 C4.34 5 3.68 5 3 5 C2.67 5.99 2.34 6.98 2 8 C-0.0625 8.6875 -0.0625 8.6875 -2 9 C-2.66 7.02 -3.32 5.04 -4 3 C-2.68 2.67 -1.36 2.34 0 2 C0 1.34 0 0.68 0 0 Z " fill="#F0F2F6" transform="translate(1099,467)"/>
<path d="M0 0 C0 1.32 0 2.64 0 4 C-1.36125 3.9071875 -1.36125 3.9071875 -2.75 3.8125 C-6.28982642 4.01672076 -7.44931155 4.64551835 -10 7 C-10.66 6.67 -11.32 6.34 -12 6 C-9.40401988 0.00927665 -6.20086134 -0.23399477 0 0 Z " fill="#CCCDD7" transform="translate(1161,575)"/>
<path d="M0 0 C0.33 0 0.66 0 1 0 C1.66964286 7.76785714 1.66964286 7.76785714 -1.375 11.5 C-4 14 -4 14 -6 14 C-5.125 10.125 -5.125 10.125 -4 9 C-3.63239269 6.67182036 -3.29758419 4.3381615 -3 2 C-2.34 2.33 -1.68 2.66 -1 3 C-0.67 2.01 -0.34 1.02 0 0 Z " fill="#CCCCD6" transform="translate(804,581)"/>
<path d="M0 0 C0.33 0 0.66 0 1 0 C1.33 2.97 1.66 5.94 2 9 C3.65 9.33 5.3 9.66 7 10 C7 10.99 7 11.98 7 13 C4.125 13.125 4.125 13.125 1 13 C-1 11 -1 11 -1.23046875 8.90625 C-1.21628906 8.1121875 -1.20210937 7.318125 -1.1875 6.5 C-1.18105469 5.7059375 -1.17460938 4.911875 -1.16796875 4.09375 C-1 2 -1 2 0 0 Z " fill="#E0E2EA" transform="translate(929,583)"/>
<path d="M0 0 C0.33 0 0.66 0 1 0 C0.25 7.75 0.25 7.75 -2 10 C-2.99 9.67 -3.98 9.34 -5 9 C-5.33 7.02 -5.66 5.04 -6 3 C-4.125 1.9375 -4.125 1.9375 -2 1 C-1.34 1.33 -0.68 1.66 0 2 C0 1.34 0 0.68 0 0 Z " fill="#E6E8EC" transform="translate(1186,436)"/>
<path d="M0 0 C1.6875 1.75 1.6875 1.75 2.6875 3.75 C-3.7475 4.245 -3.7475 4.245 -10.3125 4.75 C-8.3125 0.75 -8.3125 0.75 -5.4375 -0.6875 C-2.3125 -1.25 -2.3125 -1.25 0 0 Z " fill="#F3F5F7" transform="translate(816.3125,437.25)"/>
<path d="M0 0 C0.33 0 0.66 0 1 0 C1.03738281 0.75925781 1.07476563 1.51851562 1.11328125 2.30078125 C1.17902344 3.29464844 1.24476563 4.28851562 1.3125 5.3125 C1.37050781 6.29863281 1.42851563 7.28476562 1.48828125 8.30078125 C2.05224668 11.27559125 2.60698344 12.21696805 5 14 C7.10332891 14.71447643 7.10332891 14.71447643 9 15 C9 15.66 9 16.32 9 17 C5.625 17.125 5.625 17.125 2 17 C0 15 0 15 -0.1953125 11.5234375 C-0.18201493 10.14049032 -0.15816232 8.75761346 -0.125 7.375 C-0.11597656 6.66859375 -0.10695313 5.9621875 -0.09765625 5.234375 C-0.07407603 3.48943902 -0.03820461 1.74467705 0 0 Z " fill="#D3D3DD" transform="translate(773,578)"/>
<path d="M0 0 C-2.25987714 3.38981571 -3.33531169 3.62574188 -7 5 C-7.66 5.66 -8.32 6.32 -9 7 C-9.99 7 -10.98 7 -12 7 C-12 9.31 -12 11.62 -12 14 C-12.33 14 -12.66 14 -13 14 C-13.70299213 7.20440945 -13.70299213 7.20440945 -11.91015625 4.1328125 C-8.25564587 0.080862 -5.5505351 -0.66606421 0 0 Z " fill="#C6C7D2" transform="translate(831,575)"/>
<path d="M0 0 C0 0.99 0 1.98 0 3 C-1.98 3 -3.96 3 -6 3 C-6.33 4.98 -6.66 6.96 -7 9 C-7.99 9 -8.98 9 -10 9 C-9.6875 5.625 -9.6875 5.625 -9 2 C-5.5647952 -0.29013653 -4.014669 -0.17842973 0 0 Z " fill="#D5D4DD" transform="translate(1239,567)"/>
<path d="M0 0 C0.99 0.33 1.98 0.66 3 1 C2.01 2.98 1.02 4.96 0 7 C4.29 7 8.58 7 13 7 C13 7.33 13 7.66 13 8 C7.39 8 1.78 8 -4 8 C-4 5 -4 5 -2.5625 3.4375 C-2.046875 2.963125 -1.53125 2.48875 -1 2 C-0.67 1.34 -0.34 0.68 0 0 Z " fill="#F5F7F9" transform="translate(1153,493)"/>
<path d="M0 0 C0.99 0 1.98 0 3 0 C3 1.98 3 3.96 3 6 C4.98 6 6.96 6 9 6 C9 6.33 9 6.66 9 7 C3.06 7.495 3.06 7.495 -3 8 C-3 7.01 -3 6.02 -3 5 C-2.01 5 -1.02 5 0 5 C0 3.35 0 1.7 0 0 Z " fill="#DADBE4" transform="translate(927,570)"/>
<path d="M0 0 C0.87527344 -0.01417969 1.75054688 -0.02835938 2.65234375 -0.04296875 C5.0625 0.1875 5.0625 0.1875 8.0625 2.1875 C8.0625 2.8475 8.0625 3.5075 8.0625 4.1875 C7.546875 4.0225 7.03125 3.8575 6.5 3.6875 C3.32049107 3.03529304 0.30208194 3.12965032 -2.9375 3.1875 C-4.2575 3.1875 -5.5775 3.1875 -6.9375 3.1875 C-6.9375 2.5275 -6.9375 1.8675 -6.9375 1.1875 C-4.47380468 -0.04434766 -2.7480499 0.02017658 0 0 Z " fill="#DAD9E2" transform="translate(729.9375,575.8125)"/>
<path d="M0 0 C3.5625 0.25 3.5625 0.25 6.5625 2.25 C6.5625 2.91 6.5625 3.57 6.5625 4.25 C5.93601562 4.21519531 5.30953125 4.18039062 4.6640625 4.14453125 C3.84679687 4.11746094 3.02953125 4.09039063 2.1875 4.0625 C0.96933594 4.01029297 0.96933594 4.01029297 -0.2734375 3.95703125 C-0.98757813 4.05371094 -1.70171875 4.15039062 -2.4375 4.25 C-3.0975 5.24 -3.7575 6.23 -4.4375 7.25 C-5.0625 4.875 -5.0625 4.875 -5.4375 2.25 C-3.4375 0.25 -3.4375 0.25 0 0 Z " fill="#C7C6D2" transform="translate(631.4375,574.75)"/>
<path d="M0 0 C0 0.99 0 1.98 0 3 C-1.83380676 3 -3.66848121 2.96657594 -5.5 2.875 C-8.25305475 2.79859497 -8.25305475 2.79859497 -11 5 C-11 2 -11 2 -9.4375 0.25 C-6.02862887 -1.49813904 -3.66340563 -0.77495119 0 0 Z " fill="#D3D4DD" transform="translate(989,576)"/>
<path d="M0 0 C0.99 0 1.98 0 3 0 C3.06058594 0.77085937 3.12117188 1.54171875 3.18359375 2.3359375 C3.26738281 3.33882812 3.35117188 4.34171875 3.4375 5.375 C3.55931641 6.87160156 3.55931641 6.87160156 3.68359375 8.3984375 C3.84965626 10.97927613 3.84965626 10.97927613 5 13 C1.125 11.25 1.125 11.25 0 9 C-0.06950541 7.45976004 -0.08452357 5.91665012 -0.0625 4.375 C-0.05347656 3.55773437 -0.04445313 2.74046875 -0.03515625 1.8984375 C-0.02355469 1.27195312 -0.01195312 0.64546875 0 0 Z " fill="#E7E9EF" transform="translate(1148,581)"/>
<path d="M0 0 C3.375 -0.125 3.375 -0.125 7 0 C9 2 9 2 9 6 C6.03 6 3.06 6 0 6 C0 5.67 0 5.34 0 5 C2.64 5 5.28 5 8 5 C6.81575674 3.58422523 6.81575674 3.58422523 3.4375 3.9375 C1.7359375 3.9684375 1.7359375 3.9684375 0 4 C0 2.66666667 0 1.33333333 0 0 Z " fill="#383C54" transform="translate(727,578)"/>
<path d="M0 0 C0.886875 -0.00257813 1.77375 -0.00515625 2.6875 -0.0078125 C5 0.125 5 0.125 7 1.125 C7 1.785 7 2.445 7 3.125 C6.01 3.455 5.02 3.785 4 4.125 C3.67 3.795 3.34 3.465 3 3.125 C1.47480724 3.21437803 -0.04681929 3.37037146 -1.5625 3.5625 C-2.38878906 3.66433594 -3.21507812 3.76617188 -4.06640625 3.87109375 C-4.70449219 3.95488281 -5.34257813 4.03867187 -6 4.125 C-6.33 3.135 -6.66 2.145 -7 1.125 C-4.51245214 -0.11877393 -2.77344699 -0.00806235 0 0 Z " fill="#D0CFDA" transform="translate(1061,575.875)"/>
<path d="M0 0 C3.125 -0.1875 3.125 -0.1875 6 0 C5.67 1.32 5.34 2.64 5 4 C5.99 4.66 6.98 5.32 8 6 C6.72125 6.061875 5.4425 6.12375 4.125 6.1875 C3.40570312 6.22230469 2.68640625 6.25710938 1.9453125 6.29296875 C1.30335938 6.19628906 0.66140625 6.09960938 0 6 C-0.66 5.01 -1.32 4.02 -2 3 C-1.34 2.01 -0.68 1.02 0 0 Z " fill="#DDDFE5" transform="translate(1018,497)"/>
<path d="M0 0 C0.66 0 1.32 0 2 0 C2.0309375 0.8971875 2.0309375 0.8971875 2.0625 1.8125 C2.90456616 4.43314602 2.90456616 4.43314602 6.5625 5.75 C7.696875 6.1625 8.83125 6.575 10 7 C10 7.66 10 8.32 10 9 C2.25 8.25 2.25 8.25 0 6 C-0.125 2.875 -0.125 2.875 0 0 Z " fill="#E8E7EC" transform="translate(625,578)"/>
<path d="M0 0 C0.33 1.32 0.66 2.64 1 4 C2.32 4.33 3.64 4.66 5 5 C0.59085217 6.10228696 -3.48382401 6.07654536 -8 6 C-7.67 5.01 -7.34 4.02 -7 3 C-3.535 2.505 -3.535 2.505 0 2 C0 1.34 0 0.68 0 0 Z " fill="#DADBE2" transform="translate(1039,497)"/>
<path d="M0 0 C0.53625 0.474375 1.0725 0.94875 1.625 1.4375 C4.42842836 3.28186076 6.69620258 3.62456847 10 4 C10 4.99 10 5.98 10 7 C6.625 7.125 6.625 7.125 3 7 C0.64046906 4.64046906 0.50858587 3.22104383 0 0 Z " fill="#C9CAD6" transform="translate(1151,589)"/>
<path d="M0 0 C-0.33 0.99 -0.66 1.98 -1 3 C-4 4.125 -4 4.125 -7 5 C-8.96822886 6.96822886 -8.66248381 10.34808709 -9 13 C-9.33 13 -9.66 13 -10 13 C-10.45580933 5.09930487 -10.45580933 5.09930487 -8.9375 1.4375 C-6.02766357 -0.7214109 -3.5092034 -0.26484554 0 0 Z " fill="#C3C3CE" transform="translate(1263,575)"/>
<path d="M0 0 C2.64 0 5.28 0 8 0 C8 1.32 8 2.64 8 4 C2.06 4.495 2.06 4.495 -4 5 C-3.34 4.67 -2.68 4.34 -2 4 C-2 3.34 -2 2.68 -2 2 C-1.34 2 -0.68 2 0 2 C0 1.34 0 0.68 0 0 Z " fill="#E7E8EE" transform="translate(895,405)"/>
<path d="M0 0 C0.66 0 1.32 0 2 0 C2 1.65 2 3.3 2 5 C-2.62 5 -7.24 5 -12 5 C-10 3 -10 3 -7.6171875 2.8046875 C-6.71226562 2.82789063 -5.80734375 2.85109375 -4.875 2.875 C-3.50988281 2.90207031 -3.50988281 2.90207031 -2.1171875 2.9296875 C-1.41851563 2.95289063 -0.71984375 2.97609375 0 3 C0 2.01 0 1.02 0 0 Z " fill="#F8F9FA" transform="translate(716,581)"/>
<path d="M0 0 C4 0 8 0 12 0 C12.33 1.32 12.66 2.64 13 4 C12.01 4.495 12.01 4.495 11 5 C11 4.34 11 3.68 11 3 C7.37 3 3.74 3 0 3 C0 2.01 0 1.02 0 0 Z " fill="#D9DAE3" transform="translate(1118,576)"/>
<path d="M0 0 C0.66 0.66 1.32 1.32 2 2 C1.625 4.125 1.625 4.125 1 6 C-2.33333333 6 -5.66666667 6 -9 6 C-9 5.34 -9 4.68 -9 4 C-8.43410156 3.87882813 -7.86820313 3.75765625 -7.28515625 3.6328125 C-6.18494141 3.38144531 -6.18494141 3.38144531 -5.0625 3.125 C-4.33160156 2.96257813 -3.60070312 2.80015625 -2.84765625 2.6328125 C-0.79299706 2.17038477 -0.79299706 2.17038477 0 0 Z " fill="#DFDFE7" transform="translate(691,589)"/>
<path d="M0 0 C1.32 0 2.64 0 4 0 C4.33 6.93 4.66 13.86 5 21 C4.34 21.33 3.68 21.66 3 22 C2.01 21.34 1.02 20.68 0 20 C0.99 20 1.98 20 3 20 C3 13.73 3 7.46 3 1 C2.01 0.67 1.02 0.34 0 0 Z " fill="#33374F" transform="translate(1106,575)"/>
<path d="M0 0 C0.33 0 0.66 0 1 0 C1.05451714 2.04136395 1.09302485 4.08315856 1.125 6.125 C1.14820313 7.26195312 1.17140625 8.39890625 1.1953125 9.5703125 C0.99672109 13.05757767 0.2524801 15.7553862 -1 19 C-1.66 18.01 -2.32 17.02 -3 16 C-2.36281399 13.99041337 -1.68836513 11.99263591 -1 10 C-0.5379234 6.67602962 -0.2512777 3.34596094 0 0 Z " fill="#B3B6C2" transform="translate(1069,459)"/>
<path d="M0 0 C0.66 0 1.32 0 2 0 C2 1.65 2 3.3 2 5 C1.01 5 0.02 5 -1 5 C-1.33 5.33 -1.66 5.66 -2 6 C-3.99958364 6.04080783 -6.00045254 6.04254356 -8 6 C-8 5.34 -8 4.68 -8 4 C-6.576875 3.566875 -6.576875 3.566875 -5.125 3.125 C-1.94788422 2.23174891 -1.94788422 2.23174891 0 0 Z " fill="#EBECF2" transform="translate(916,589)"/>
<path d="M0 0 C0 0.66 0 1.32 0 2 C-3.4019487 4.09350689 -6.05272412 4.17942163 -10 4 C-10 3.01 -10 2.02 -10 1 C-3.375 0 -3.375 0 0 0 Z " fill="#D4D4DD" transform="translate(717,592)"/>
<path d="M0 0 C-0.5775 0.2475 -1.155 0.495 -1.75 0.75 C-4.31545762 2.17525423 -5.99948998 3.86612265 -8 6 C-8.66 6.66 -9.32 7.32 -10 8 C-10.75 6.25 -10.75 6.25 -11 4 C-8.00042166 -0.49936751 -5.13756651 -0.39519742 0 0 Z " fill="#E3E3EA" transform="translate(1207,576)"/>
<path d="M0 0 C1.25 2.5625 1.25 2.5625 2 5 C1.34 5 0.68 5 0 5 C-0.33 5.66 -0.66 6.32 -1 7 C-1.4125 6.21625 -1.825 5.4325 -2.25 4.625 C-4.0392777 1.94108344 -5.04988139 1.11901051 -8 0 C-5.00112135 -0.96392528 -2.91185125 -1.35886391 0 0 Z " fill="#D6D7E0" transform="translate(875,577)"/>
<path d="M0 0 C0.66 0.33 1.32 0.66 2 1 C2 4.63 2 8.26 2 12 C1.34 12 0.68 12 0 12 C-0.76173392 7.6835078 -1.16063604 4.25566547 0 0 Z " fill="#F5F6FA" transform="translate(693,583)"/>
<path d="M0 0 C0.99 0 1.98 0 3 0 C2.5020163 3.73487777 2.12508244 5.81237635 0 9 C-0.66 8.67 -1.32 8.34 -2 8 C-1.34 5.36 -0.68 2.72 0 0 Z " fill="#C9CBD7" transform="translate(1299,576)"/>
<path d="M0 0 C1.32 0.33 2.64 0.66 4 1 C3.01 1 2.02 1 1 1 C1.33 2.65 1.66 4.3 2 6 C1.34 6 0.68 6 0 6 C-0.33 7.98 -0.66 9.96 -1 12 C-1.33 12 -1.66 12 -2 12 C-2.66 9.36 -3.32 6.72 -4 4 C-3.01 4 -2.02 4 -1 4 C-0.67 2.68 -0.34 1.36 0 0 Z " fill="#333651" transform="translate(1272,575)"/>
<path d="M0 0 C4 0 8 0 12 0 C10.29171079 2.10633718 9.47851584 2.93801608 6.73828125 3.29296875 C5.93777344 3.25816406 5.13726563 3.22335937 4.3125 3.1875 C3.10013672 3.14689453 3.10013672 3.14689453 1.86328125 3.10546875 C0.94095703 3.05326172 0.94095703 3.05326172 0 3 C0 2.01 0 1.02 0 0 Z " fill="#D1D1DB" transform="translate(1175,576)"/>
<path d="M0 0 C0.88672454 2.4828287 1.14518218 3.62029277 0.1875 6.125 C-1 8 -1 8 -3 10 C-3.66 7.69 -4.32 5.38 -5 3 C-3.35 2.01 -1.7 1.02 0 0 Z " fill="#F3F5F7" transform="translate(1091,439)"/>
<path d="M0 0 C0.33 0 0.66 0 1 0 C1.1953125 1.98567708 1.390625 3.97135417 1.5859375 5.95703125 C1.92665391 8.29988142 1.92665391 8.29988142 4 11 C3.34 11.66 2.68 12.32 2 13 C0.68 11.68 -0.64 10.36 -2 9 C-1.34 8.67 -0.68 8.34 0 8 C0 5.36 0 2.72 0 0 Z " fill="#C3C4D0" transform="translate(679,582)"/>
<path d="M0 0 C2.875 -0.125 2.875 -0.125 6 0 C6.66 0.66 7.32 1.32 8 2 C6 4 6 4 4.0546875 4.1953125 C2.03645833 4.13020833 0.01822917 4.06510417 -2 4 C-1.34 2.68 -0.68 1.36 0 0 Z " fill="#CFCED6" transform="translate(526,575)"/>
<path d="M0 0 C0.66 0.33 1.32 0.66 2 1 C0.68 3.64 -0.64 6.28 -2 9 C-2.66 9 -3.32 9 -4 9 C-4.25 6.75 -4.25 6.75 -4 4 C-2 1.6875 -2 1.6875 0 0 Z " fill="#E1DFE5" transform="translate(524,576)"/>
<path d="M0 0 C0.99 0 1.98 0 3 0 C3.1875 2.875 3.1875 2.875 3 6 C0 8 0 8 -3 8 C-3 7.34 -3 6.68 -3 6 C-2.01 6 -1.02 6 0 6 C0 4.02 0 2.04 0 0 Z " fill="#DDDCE4" transform="translate(773,570)"/>
<path d="M0 0 C6.4 -0.49230769 6.4 -0.49230769 9.4375 2 C10.2109375 2.99 10.2109375 2.99 11 4 C10.67 4.66 10.34 5.32 10 6 C9.34 6 8.68 6 8 6 C6.66666667 4.66666667 5.33333333 3.33333333 4 2 C1.86690808 0.76487921 1.86690808 0.76487921 0 0 Z " fill="#E4E4EA" transform="translate(825,576)"/>
<path d="M0 0 C1.9375 0.6875 1.9375 0.6875 4 2 C4.875 4.4375 4.875 4.4375 5 7 C4.01 8.485 4.01 8.485 3 10 C0 3.375 0 3.375 0 0 Z " fill="#EFEFF4" transform="translate(799,577)"/>
<path d="M0 0 C0 0.66 0 1.32 0 2 C-3.63423209 4.32590854 -6.77088331 4.16265833 -11 4 C-10 2 -10 2 -7.1875 0.875 C-4 0 -4 0 0 0 Z " fill="#BFC0CD" transform="translate(620,592)"/>
<path d="M0 0 C0 0.99 0 1.98 0 3 C-3.13498292 4.85776765 -5.37471432 5.20140476 -9 5 C-8.67 4.01 -8.34 3.02 -8 2 C-5.27366306 0.89786379 -2.95855967 0 0 0 Z " fill="#CFD0DA" transform="translate(897,591)"/>
<path d="M0 0 C6.35051546 -0.36637589 6.35051546 -0.36637589 9.4375 1.375 C11 3 11 3 11 5 C10.01 5.33 9.02 5.66 8 6 C7.4121875 5.0409375 7.4121875 5.0409375 6.8125 4.0625 C4.61527704 1.56221181 3.24208567 1.35049575 0 1 C0 0.67 0 0.34 0 0 Z " fill="#E5E6ED" transform="translate(707,576)"/>
<path d="M0 0 C6.52307692 -0.36923077 6.52307692 -0.36923077 8.9375 1.5 C9.288125 1.995 9.63875 2.49 10 3 C6.21293268 3 2.73486879 2.5745952 -1 2 C-0.67 1.34 -0.34 0.68 0 0 Z " fill="#E8E9EF" transform="translate(888,576)"/>
<path d="M0 0 C0.33 0 0.66 0 1 0 C1 2.31 1 4.62 1 7 C-0.65 7 -2.3 7 -4 7 C-4 5.35 -4 3.7 -4 2 C-3.67 2.66 -3.34 3.32 -3 4 C-2.34 3.67 -1.68 3.34 -1 3 C-0.67 2.01 -0.34 1.02 0 0 Z " fill="#E3E5EC" transform="translate(1282,588)"/>
<path d="M0 0 C0.28875 0.61875 0.5775 1.2375 0.875 1.875 C1.93720042 4.13325765 1.93720042 4.13325765 4 6 C2 9 2 9 0 10 C-1.125 3.375 -1.125 3.375 0 0 Z " fill="#CED0DB" transform="translate(1292,585)"/>
<path d="M0 0 C0.99 0 1.98 0 3 0 C2.67 3.3 2.34 6.6 2 10 C1.34 9.67 0.68 9.34 0 9 C0 6.03 0 3.06 0 0 Z " fill="#EDEDF1" transform="translate(950,580)"/>
<path d="M0 0 C3.625 0.375 3.625 0.375 7 1 C7 1.33 7 1.66 7 2 C5.6696875 2.433125 5.6696875 2.433125 4.3125 2.875 C1.49617576 3.83148748 -1.25083156 4.86798946 -4 6 C-2.84826645 3.53199953 -1.95216435 1.95216435 0 0 Z " fill="#D0D0DA" transform="translate(705,576)"/>
<path d="M0 0 C6.625 -0.25 6.625 -0.25 10 2 C10 2.66 10 3.32 10 4 C9.01 4.33 8.02 4.66 7 5 C6.5875 4.54625 6.175 4.0925 5.75 3.625 C3.93591905 1.94049626 2.24714373 1.00734029 0 0 Z " fill="#DFDFE7" transform="translate(1258,576)"/>
<path d="M0 0 C0 0.33 0 0.66 0 1 C-1.65 1 -3.3 1 -5 1 C-5.12375 1.639375 -5.2475 2.27875 -5.375 2.9375 C-5.58125 3.618125 -5.7875 4.29875 -6 5 C-6.99 5.495 -6.99 5.495 -8 6 C-8.66 5.67 -9.32 5.34 -10 5 C-8.20177069 -0.39468792 -5.09771267 -0.22656501 0 0 Z " fill="#BFBEC9" transform="translate(688,575)"/>
<path d="M0 0 C3.625 0.375 3.625 0.375 7 1 C7 1.33 7 1.66 7 2 C5.6696875 2.433125 5.6696875 2.433125 4.3125 2.875 C1.49617576 3.83148748 -1.25083156 4.86798946 -4 6 C-2.84826645 3.53199953 -1.95216435 1.95216435 0 0 Z " fill="#D2D2DB" transform="translate(607,576)"/>
<path d="M0 0 C0 0.66 0 1.32 0 2 C-3.21451269 3.60725635 -6.43612536 3.05748185 -10 3 C-10 2.34 -10 1.68 -10 1 C-3.375 0 -3.375 0 0 0 Z " fill="#E5E5EC" transform="translate(876,592)"/>
<path d="M0 0 C2.64 0.66 5.28 1.32 8 2 C8 2.66 8 3.32 8 4 C5.69 4 3.38 4 1 4 C0.67 2.68 0.34 1.36 0 0 Z " fill="#E7E8ED" transform="translate(645,591)"/>
<path d="M0 0 C0.66 0 1.32 0 2 0 C2 1.32 2 2.64 2 4 C-4.93 3.505 -4.93 3.505 -12 3 C-12 2.67 -12 2.34 -12 2 C-8.04 2 -4.08 2 0 2 C0 1.34 0 0.68 0 0 Z " fill="#F3F4F6" transform="translate(875,582)"/>
<path d="M0 0 C0.66 0 1.32 0 2 0 C3.35439668 2.70879335 3.06501451 5.00933268 3 8 C2.34 8 1.68 8 1 8 C0.34 5.69 -0.32 3.38 -1 1 C-0.67 0.67 -0.34 0.34 0 0 Z " fill="#E8EAF0" transform="translate(966,579)"/>
<path d="M0 0 C2.97 0.33 5.94 0.66 9 1 C9 1.99 9 2.98 9 4 C6.36 3.67 3.72 3.34 1 3 C0.67 2.01 0.34 1.02 0 0 Z " fill="#B8B8C4" transform="translate(748,575)"/>
<path d="M0 0 C0.66 0.33 1.32 0.66 2 1 C1.25 6.75 1.25 6.75 -1 9 C-1.80967438 6.08517222 -2.21845993 4.53886783 -1.0625 1.6875 C-0.711875 1.130625 -0.36125 0.57375 0 0 Z " fill="#1C203A" transform="translate(1108,471)"/>
<path d="M0 0 C0.99 1.32 1.98 2.64 3 4 C2.67 4.66 2.34 5.32 2 6 C1.34 6 0.68 6 0 6 C0 6.99 0 7.98 0 9 C-0.66 9 -1.32 9 -2 9 C-1.34 6.03 -0.68 3.06 0 0 Z " fill="#D5D9E0" transform="translate(1165,458)"/>
<path d="M0 0 C0.33 0 0.66 0 1 0 C1 2.31 1 4.62 1 7 C-1.3125 8.125 -1.3125 8.125 -4 9 C-4.99 8.34 -5.98 7.68 -7 7 C-5.824375 6.6596875 -5.824375 6.6596875 -4.625 6.3125 C-1.78125 5.21875 -1.78125 5.21875 -0.6875 2.375 C-0.460625 1.59125 -0.23375 0.8075 0 0 Z " fill="#CECFDA" transform="translate(1066,586)"/>
<path d="M0 0 C3.3 0.33 6.6 0.66 10 1 C9.67 1.66 9.34 2.32 9 3 C2.25 3.125 2.25 3.125 0 2 C0 1.34 0 0.68 0 0 Z " fill="#EFF0F4" transform="translate(743,592)"/>
<path d="M0 0 C0.66 0.33 1.32 0.66 2 1 C1.67 2.98 1.34 4.96 1 7 C0.34 6.34 -0.32 5.68 -1 5 C-1.66 5.99 -2.32 6.98 -3 8 C-3.36923077 3.44615385 -3.36923077 3.44615385 -1.5 1.1875 C-1.005 0.795625 -0.51 0.40375 0 0 Z " fill="#B8B9C5" transform="translate(725,584)"/>
<path d="M0 0 C0.99 0 1.98 0 3 0 C3.33 2.31 3.66 4.62 4 7 C3.01 6.67 2.02 6.34 1 6 C0.67 4.02 0.34 2.04 0 0 Z " fill="#E0DFE6" transform="translate(1273,576)"/>
<path d="M0 0 C2.97 0.99 5.94 1.98 9 3 C9 3.33 9 3.66 9 4 C6.36 4.33 3.72 4.66 1 5 C0.67 3.35 0.34 1.7 0 0 Z " fill="#E2E3EC" transform="translate(606,590)"/>
<path d="M0 0 C0.96661363 3.12180401 0.98988909 5.52083795 0.5625 8.75 C0.40974609 9.94882812 0.40974609 9.94882812 0.25390625 11.171875 C0.12822266 12.07679688 0.12822266 12.07679688 0 13 C-1.44977894 10.65887549 -2.04314411 9.4203071 -1.7578125 6.640625 C-1.54898437 5.85171875 -1.34015625 5.0628125 -1.125 4.25 C-0.92132812 3.45078125 -0.71765625 2.6515625 -0.5078125 1.828125 C-0.34023437 1.22484375 -0.17265625 0.6215625 0 0 Z " fill="#C2C4CF" transform="translate(1284,579)"/>
<path d="M0 0 C1.32 0.66 2.64 1.32 4 2 C4 3.65 4 5.3 4 7 C2.35 5.35 0.7 3.7 -1 2 C-0.67 1.34 -0.34 0.68 0 0 Z " fill="#E9E9EF" transform="translate(1162,577)"/>
<path d="M0 0 C1.670625 0.061875 1.670625 0.061875 3.375 0.125 C2.776875 0.3725 2.17875 0.62 1.5625 0.875 C-0.91147521 2.28870012 -2.05870255 3.77555383 -3.625 6.125 C-4.285 4.805 -4.945 3.485 -5.625 2.125 C-3.625 0.125 -3.625 0.125 0 0 Z " fill="#E2E2E9" transform="translate(749.625,575.875)"/>
<path d="M0 0 C0.94875 0.04125 1.8975 0.0825 2.875 0.125 C2.0396875 0.49625 2.0396875 0.49625 1.1875 0.875 C-1.52471127 2.34106015 -3.76087365 4.15489471 -6.125 6.125 C-5.28810868 1.94054341 -4.61542241 0.1846169 0 0 Z " fill="#262843" transform="translate(1260.125,577.875)"/>
<path d="M0 0 C0 0.33 0 0.66 0 1 C-1.98 1.33 -3.96 1.66 -6 2 C-6.33 2.99 -6.66 3.98 -7 5 C-8.32 4.34 -9.64 3.68 -11 3 C-7.48550811 -0.37391222 -4.73940561 -0.27342725 0 0 Z " fill="#B1B1C0" transform="translate(894,575)"/>
<path d="M0 0 C1.11375 0.556875 1.11375 0.556875 2.25 1.125 C1.26 2.115 0.27 3.105 -0.75 4.125 C-0.75 3.465 -0.75 2.805 -0.75 2.125 C-3.72 1.63 -3.72 1.63 -6.75 1.125 C-4.02098495 -0.69434337 -3.21400584 -1.02263822 0 0 Z " fill="#DCDCE3" transform="translate(964.75,576.875)"/>
<path d="M0 0 C2.31 0 4.62 0 7 0 C4.59563974 3.60654039 3.05320393 3.85452932 -1 5 C-0.67 3.35 -0.34 1.7 0 0 Z " fill="#AAABB9" transform="translate(824,575)"/>
<path d="M0 0 C0.66 0 1.32 0 2 0 C1.67 1.65 1.34 3.3 1 5 C0.01 5.33 -0.98 5.66 -2 6 C-2.66 5.67 -3.32 5.34 -4 5 C-3.67 4.01 -3.34 3.02 -3 2 C-2.01 2 -1.02 2 0 2 C0 1.34 0 0.68 0 0 Z " fill="#DDDFE7" transform="translate(1118,484)"/>
<path d="M0 0 C1.02104551 0.97850195 2.0206121 1.97980427 3 3 C3 3.33 3 3.66 3 4 C5.97 4.495 5.97 4.495 9 5 C9 5.33 9 5.66 9 6 C5.625 6.125 5.625 6.125 2 6 C1.34 5.34 0.68 4.68 0 4 C0 2.68 0 1.36 0 0 Z " fill="#B3B6C5" transform="translate(822,590)"/>
<path d="M0 0 C0.99 0 1.98 0 3 0 C2.67 0.99 2.34 1.98 2 3 C1.34 3 0.68 3 0 3 C0 4.98 0 6.96 0 9 C-0.66 9 -1.32 9 -2 9 C-1.34 6.03 -0.68 3.06 0 0 Z " fill="#EBECF3" transform="translate(1286,576)"/>
<path d="M0 0 C2 3 2 3 3 6 C2.01 6.66 1.02 7.32 0 8 C-0.79953138 4.71303767 -1.09658936 3.28976808 0 0 Z " fill="#CFD1D9" transform="translate(1170,440)"/>
<path d="M0 0 C0.66 0 1.32 0 2 0 C2.33 1.98 2.66 3.96 3 6 C1.35 5.67 -0.3 5.34 -2 5 C-1.34 3.35 -0.68 1.7 0 0 Z " fill="#DFE1E8" transform="translate(1146,442)"/>
</svg>
