<?xml version="1.0" encoding="UTF-8"?>
<svg version="1.1" xmlns="http://www.w3.org/2000/svg" width="1536" height="1024">
<path d="M0 0 C506.88 0 1013.76 0 1536 0 C1536 337.92 1536 675.84 1536 1024 C1029.12 1024 522.24 1024 0 1024 C0 686.08 0 348.16 0 0 Z " fill="#F7F7F9" transform="translate(0,0)"/>
<path d="M0 0 C-1.58230398 4.10048288 -4.54622743 6.58745478 -7.75 9.4375 C-8.92615416 10.50219236 -10.10192184 11.56731179 -11.27734375 12.6328125 C-11.88819824 13.18356445 -12.49905273 13.73431641 -13.12841797 14.30175781 C-16.21960076 17.1066453 -19.26250749 19.96300171 -22.3125 22.8125 C-26.45607989 26.67021893 -30.62615818 30.4792554 -34.921875 34.16796875 C-36.66850254 35.70775882 -38.37708056 37.27382286 -40.078125 38.86328125 C-40.62194824 39.36972168 -41.16577148 39.87616211 -41.72607422 40.39794922 C-42.80973521 41.40972983 -43.88961885 42.42557419 -44.96533203 43.44580078 C-48.77847116 47 -48.77847116 47 -51 47 C-51 47.66 -51 48.32 -51 49 C-52.3984375 50.41015625 -52.3984375 50.41015625 -54.375 52.0625 C-58.65834459 55.68804524 -62.78372133 59.46199548 -66.8984375 63.27734375 C-69 65 -69 65 -71 65 C-71 65.66 -71 66.32 -71 67 C-72.3984375 68.41015625 -72.3984375 68.41015625 -74.375 70.0625 C-77.5604506 72.77209242 -80.70761489 75.51065168 -83.8125 78.3125 C-85.07126953 79.44751953 -85.07126953 79.44751953 -86.35546875 80.60546875 C-89.96716802 83.87573707 -93.56740061 87.15851687 -97.1640625 90.4453125 C-99.37555394 92.43748248 -101.60478075 94.39983477 -103.8515625 96.3515625 C-107.90763248 99.89190896 -111.83814413 103.55174758 -115.75 107.25 C-125.04035945 115.9950134 -134.4256752 124.62490527 -143.94140625 133.125 C-145.6789749 134.70760522 -147.35701942 136.32027544 -149 138 C-152.03738908 136.59392775 -154.52868918 134.89851974 -157.1875 132.875 C-179.80918523 116.8832343 -207.91063773 111.48246126 -235.0625 110.4375 C-236.64708008 110.37272461 -236.64708008 110.37272461 -238.26367188 110.30664062 C-240.84234879 110.20162663 -243.42110435 110.09947123 -246 110 C-255 89.52868852 -255 89.52868852 -255 81 C-225.68185731 80.62301102 -198.34672132 82.05531549 -171.25 94.74609375 C-167.86131654 96.05350648 -167.2267926 96.19825564 -164 95 C-162.38927434 93.88738913 -162.38927434 93.88738913 -160.92358398 92.43530273 C-160.34713638 91.89438492 -159.77068878 91.3534671 -159.17677307 90.79615784 C-158.25202431 89.90512611 -158.25202431 89.90512611 -157.30859375 88.99609375 C-156.3268644 88.06451698 -156.3268644 88.06451698 -155.32530212 87.11412048 C-147.42749146 79.57596202 -139.74517237 71.81858204 -132.0625 64.0625 C-129.20223295 61.17537298 -126.33845886 58.29178749 -123.47265625 55.41015625 C-122.83916763 54.76836929 -122.20567902 54.12658234 -121.55299377 53.46534729 C-117.80890732 49.70104136 -113.93390203 46.16980587 -109.91630554 42.70036316 C-106.99383438 40.10721599 -104.29320537 37.3221197 -101.5859375 34.5078125 C-100.40036289 33.29496332 -99.214144 32.08274364 -98.02734375 30.87109375 C-96.20500126 29.00583819 -94.38678859 27.13726309 -92.57958984 25.25732422 C-81.30920761 13.55571665 -69.65304256 4.2797961 -54 -1 C-53.06671875 -1.31839844 -52.1334375 -1.63679688 -51.171875 -1.96484375 C-35.01225855 -6.55468245 -15.86348738 -5.28782913 0 0 Z " fill="#0275D3" transform="translate(553,368)"/>
<path d="M0 0 C0.99 0.495 0.99 0.495 2 1 C-6.11284465 13.76659053 -14.24467362 26.52081781 -22.40429688 39.25756836 C-25.45013939 44.01259711 -28.49046347 48.77084581 -31.515625 53.5390625 C-35.06516013 59.12118194 -38.68597415 64.65521471 -42.3125 70.1875 C-46.75592033 76.97954621 -51.1616249 83.78862337 -55.4375 90.6875 C-59.48773343 97.22066342 -63.70372315 103.62540948 -68 110 C-69.15436783 111.73537079 -70.30576104 113.47269567 -71.45727539 115.20996094 C-73.15495309 117.76641626 -74.862442 120.31623519 -76.57128906 122.86523438 C-77.57317276 124.362239 -78.57228592 125.86109979 -79.56933594 127.36132812 C-98.23660336 155.41220112 -98.23660336 155.41220112 -115 161 C-117.21670918 161.09976079 -119.43633149 161.13830662 -121.65527344 161.14526367 C-122.32721741 161.14862228 -122.99916138 161.1519809 -123.69146729 161.15544128 C-125.91412199 161.1649436 -128.13670124 161.1668943 -130.359375 161.16796875 C-131.9077355 161.17118279 -133.4560957 161.17454698 -135.00445557 161.17805481 C-138.25265201 161.18404496 -141.50082186 161.18589492 -144.74902344 161.18530273 C-148.89939211 161.18520134 -153.04958884 161.1988307 -157.19991684 161.21607494 C-160.39993056 161.22722874 -163.59990323 161.22922087 -166.79993439 161.22869301 C-168.32925253 161.22986891 -169.85857187 161.23426871 -171.38787079 161.24202538 C-173.53441659 161.25188987 -175.68059597 161.24892166 -177.82714844 161.24291992 C-179.04609802 161.24434494 -180.26504761 161.24576996 -181.52093506 161.24723816 C-189.44654559 160.68400827 -196.29732607 157.89329363 -201.7878418 152.12011719 C-206.33552281 146.48591332 -208.75509431 141.21532989 -210.8125 134.3125 C-211.47419001 132.2119021 -212.13700869 130.11165951 -212.80078125 128.01171875 C-213.14834473 126.8932959 -213.4959082 125.77487305 -213.85400391 124.62255859 C-215.10226108 120.67674694 -216.40700937 116.75310039 -217.73046875 112.83203125 C-217.96087357 112.14851089 -218.19127838 111.46499054 -218.42866516 110.76075745 C-219.3459989 108.04113625 -220.26436051 105.32186395 -221.18374634 102.60293579 C-221.82335524 100.70763466 -222.45865007 98.81087931 -223.09375 96.9140625 C-223.46177734 95.8204541 -223.82980469 94.7268457 -224.20898438 93.60009766 C-225 91 -225 91 -225 89 C-211.64354023 88.67641823 -198.96545267 88.40733826 -186 92 C-185.36723145 92.16628906 -184.73446289 92.33257812 -184.08251953 92.50390625 C-168.61438482 96.61352138 -150.07796546 103.34582505 -140.9296875 117.2890625 C-139.58602977 119.76184437 -138.72732392 122.28906539 -138 125 C-132.47457105 120.23479036 -127.10506344 115.33424963 -121.8125 110.3125 C-120.32074238 108.90319066 -118.82855042 107.49434095 -117.3359375 106.0859375 C-116.6047168 105.3959668 -115.87349609 104.70599609 -115.12011719 103.99511719 C-108.22814451 97.50948836 -101.29449421 91.07453161 -94.1328125 84.88671875 C-91.33434064 82.41114749 -88.60869034 79.85898451 -85.875 77.3125 C-80.65462517 72.45365973 -75.30960496 67.76747543 -69.84521484 63.18481445 C-66.99710248 60.78111525 -64.30752457 58.32824747 -61.71484375 55.6484375 C-59 53 -59 53 -57 53 C-57 52.34 -57 51.68 -57 51 C-55.5390625 49.4921875 -55.5390625 49.4921875 -53.625 47.875 C-52.99851562 47.33617187 -52.37203125 46.79734375 -51.7265625 46.2421875 C-50 45 -50 45 -48 45 C-47.67 44.01 -47.34 43.02 -47 42 C-45.50390625 40.4921875 -45.50390625 40.4921875 -43.5625 38.875 C-39.36886569 35.33119011 -35.32688698 31.64637155 -31.296875 27.91796875 C-29.24380935 26.2035891 -27.44010525 25.05775205 -25 24 C-25 23.34 -25 22.68 -25 22 C-23.50890766 20.67018907 -21.95293286 19.4130127 -20.375 18.1875 C-13.23704278 12.49202436 -6.63527621 6.26718789 0 0 Z " fill="#19244C" transform="translate(538,407)"/>
<path d="M0 0 C7.03718119 6.26992464 12.65096738 14.52951845 14 24 C14.72031319 37.6720984 14.05105745 49.00797086 5 60 C-3.12045948 68.50714803 -12.05049011 72.38544138 -23.73046875 73.1875 C-34.83475474 73.43809037 -42.81076395 71.27958528 -52 65 C-52.9075 64.4225 -53.815 63.845 -54.75 63.25 C-62.69332462 55.30667538 -66.91136993 44.31246083 -67.1875 33.25 C-67.00684824 22.26308848 -64.25593497 12.66290193 -56.62890625 4.4453125 C-40.81782027 -10.23469123 -18.11776389 -12.83914376 0 0 Z " fill="#1D274C" transform="translate(1069,438)"/>
<path d="M0 0 C6.6 0 13.2 0 20 0 C20.45890625 1.65386719 20.9178125 3.30773437 21.390625 5.01171875 C25.61393891 20.18944498 25.61393891 20.18944498 30.15625 35.2734375 C31.05378299 38.17379873 31.91795964 41.08015465 32.75 44 C32.99234375 44.845625 33.2346875 45.69125 33.484375 46.5625 C34.0232079 49.10971009 34.09270793 51.40417788 34 54 C34.66 54 35.32 54 36 54 C36.15130371 53.12492798 36.15130371 53.12492798 36.30566406 52.23217773 C37.58672182 45.30807413 39.54521941 38.74300601 41.75 32.0625 C42.46388632 29.86729955 43.17742393 27.67198567 43.890625 25.4765625 C44.24447266 24.3927832 44.59832031 23.30900391 44.96289062 22.19238281 C46.50365769 17.44966384 48.00404374 12.69450506 49.5 7.9375 C50.325 5.318125 51.15 2.69875 52 0 C58.27 0 64.54 0 71 0 C71.639375 2.2275 72.27875 4.455 72.9375 6.75 C75.72231736 16.32452327 78.79798398 25.8047786 81.87670898 35.28808594 C83.6755171 40.8365713 85.45748763 46.37436667 87 52 C89.4617804 46.62162347 91.14426275 41.26489702 92.6875 35.5625 C96.01676578 23.55916473 99.97933809 11.78645815 104 0 C109.94 0 115.88 0 122 0 C121.20635195 4.76188829 120.13004966 8.84687173 118.48828125 13.3203125 C117.97527934 14.74778029 117.46234234 16.17527141 116.94946289 17.6027832 C116.68183136 18.34178864 116.41419983 19.08079407 116.13845825 19.8421936 C112.08849105 31.03560564 108.17327542 42.21914845 104.88720703 53.66455078 C103.22547871 59.40952673 101.23458824 64.92463733 98.98046875 70.46875 C97.86151925 73.20188273 97.86151925 73.20188273 97 77 C90.73 77 84.46 77 78 77 C73.77363361 63.89376805 69.58523993 50.77598789 65.5 37.625 C65.15001953 36.50883301 64.80003906 35.39266602 64.43945312 34.24267578 C64.11912109 33.2061084 63.79878906 32.16954102 63.46875 31.1015625 C63.18451172 30.18713379 62.90027344 29.27270508 62.60742188 28.33056641 C62 26 62 26 62 23 C61.34 23 60.68 23 60 23 C59.79375 24.27875 59.5875 25.5575 59.375 26.875 C57.87844117 34.41124266 55.20654996 41.58015457 52.72851562 48.8359375 C51.03891557 53.85491032 49.53317279 58.93166021 48 64 C47.25108889 66.43783478 46.50110721 68.87534095 45.75 71.3125 C44.88375 74.1278125 44.88375 74.1278125 44 77 C37.73 77 31.46 77 25 77 C22.75894782 71.02386085 20.7393489 65.09384928 18.89453125 59 C17.89701252 55.7469453 16.83610873 52.5673364 15.62963867 49.38232422 C13.8223778 44.59577891 12.22826755 39.7471082 10.64453125 34.8828125 C10.33803146 33.9444455 10.03153168 33.00607849 9.71574402 32.03927612 C9.07365989 30.07140424 8.43250401 28.10322926 7.79223633 26.13476562 C6.80831354 23.11213912 5.81933235 20.09119771 4.83007812 17.0703125 C4.20542212 15.15374588 3.58106249 13.23708263 2.95703125 11.3203125 C2.6602095 10.415159 2.36338776 9.51000549 2.05757141 8.5774231 C1.78696396 7.74250336 1.51635651 6.90758362 1.23754883 6.04736328 C0.99788895 5.31204376 0.75822906 4.57672424 0.51130676 3.81912231 C0 2 0 2 0 0 Z " fill="#1D284D" transform="translate(1088,432)"/>
<path d="M0 0 C6.93 0 13.86 0 21 0 C27.93830401 17.1805623 34.33693933 34.54309524 40.66088867 51.95800781 C41.43542538 54.0880248 42.21215637 56.21724504 42.9909668 58.34570312 C44.13048891 61.46044441 45.26323809 64.57757446 46.39453125 67.6953125 C46.74240189 68.64221954 47.09027252 69.58912659 47.44868469 70.56472778 C49.06287197 75.03580188 50.44602686 79.24814152 51 84 C51.66 84 52.32 84 53 84 C53.14248169 82.55838501 53.14248169 82.55838501 53.2878418 81.08764648 C53.97373297 76.3343217 55.66384528 72.05663603 57.39453125 67.59765625 C57.73840881 66.69419464 58.08228638 65.79073303 58.43658447 64.8598938 C59.55529762 61.92486273 60.68388148 58.99373457 61.8125 56.0625 C62.58402871 54.04302119 63.35477575 52.02324359 64.12475586 50.00317383 C65.67360352 45.94086938 67.22545425 41.87973219 68.77929688 37.81933594 C71.91189562 29.62303354 74.98934129 21.40622803 78.0625 13.1875 C78.5732249 11.82361214 79.08404516 10.45975998 79.5949707 9.09594727 C80.7305949 6.06419492 81.86540742 3.03213856 83 0 C89.93 0 96.86 0 104 0 C102.25558121 5.81472931 100.61389163 11.27983491 98.43359375 16.87890625 C98.19873764 17.48475052 97.96388153 18.09059479 97.72190857 18.71479797 C96.96435358 20.6655825 96.20114651 22.6140929 95.4375 24.5625 C94.9003594 25.94084239 94.36341574 27.31926154 93.82666016 28.69775391 C89.36431294 40.13990083 84.81672505 51.547717 80.23095703 62.94091797 C78.08616787 68.27098703 75.94838746 73.60385842 73.8125 78.9375 C73.39935547 79.96915283 72.98621094 81.00080566 72.56054688 82.0637207 C68.980188 91.0196304 65.47756444 100.003692 62 109 C55.07 109 48.14 109 41 109 C40.35675781 107.30101562 39.71351563 105.60203125 39.05078125 103.8515625 C33.96856469 90.43580902 28.87225477 77.02552125 23.75 63.625 C23.48638672 62.93499908 23.22277344 62.24499817 22.95117188 61.53408813 C19.62206397 52.82175531 16.27470166 44.11667899 12.91015625 35.41796875 C11.88036327 32.75230845 10.85075283 30.08657771 9.82116699 27.4208374 C8.83259674 24.86446867 7.84066202 22.30942253 6.84863281 19.75439453 C6.23877298 18.17616832 5.62906492 16.59788346 5.01953125 15.01953125 C4.74303238 14.31056198 4.46653351 13.60159271 4.18165588 12.87113953 C3.92295212 12.19928116 3.66424835 11.52742279 3.39770508 10.83520508 C3.06347282 9.97310173 3.06347282 9.97310173 2.7224884 9.09358215 C1.69029365 6.10255213 0.86925197 3.0423819 0 0 Z " fill="#1C264C" transform="translate(588,400)"/>
<path d="M0 0 C10.86399187 10.86399187 12 23.12231258 12 38 C-16.215 38.495 -16.215 38.495 -45 39 C-41.22443161 49.42128272 -41.22443161 49.42128272 -32.96484375 54.9609375 C-24.24941792 58.31184196 -16.73627091 57.7852878 -8.2265625 54.16796875 C-5.94920677 52.97335583 -4.00848776 51.60037038 -2 50 C1.21524305 51.40844718 3.32183868 53.10344786 5.75 55.625 C6.36359375 56.25664062 6.9771875 56.88828125 7.609375 57.5390625 C8.06828125 58.02117187 8.5271875 58.50328125 9 59 C7.39152657 63.82542029 3.28306847 65.54702825 -1 68 C-13.11137694 73.84433667 -27.05404367 74.91563658 -40 71 C-50.61781631 66.1341486 -57.81424888 58.90584375 -62 48 C-65.81062447 35.23837744 -64.73249051 22.04093895 -58.40234375 10.31640625 C-53.09722089 1.55334816 -45.59584009 -3.50918052 -36 -7 C-22.8967328 -9.51985908 -11.02360976 -7.82642989 0 0 Z " fill="#1F294E" transform="translate(751,438)"/>
<path d="M0 0 C23.76 0 47.52 0 72 0 C72 5.61 72 11.22 72 17 C54.51 17 37.02 17 19 17 C19 26.57 19 36.14 19 46 C34.51 46 50.02 46 66 46 C66 51.61 66 57.22 66 63 C50.49 63 34.98 63 19 63 C19 78.18 19 93.36 19 109 C12.73 109 6.46 109 0 109 C0 73.03 0 37.06 0 0 Z " fill="#1D274C" transform="translate(882,400)"/>
<path d="M0 0 C32.92585828 -0.97136306 66.55876427 6.6516451 95.52734375 22.19921875 C93.93318872 26.11131183 91.38841043 28.57139961 88.40234375 31.51171875 C87.66854492 32.23476196 87.66854492 32.23476196 86.91992188 32.97241211 C82.06824619 37.71706554 77.18513658 42.42735686 71.52734375 46.19921875 C69.29760742 45.73950195 69.29760742 45.73950195 66.6953125 44.75 C65.73866699 44.39760254 64.78202148 44.04520508 63.79638672 43.68212891 C62.77947754 43.29589355 61.76256836 42.9096582 60.71484375 42.51171875 C51.99325185 39.337897 43.67673541 36.79992494 34.52734375 35.19921875 C33.63072021 35.02583984 32.73409668 34.85246094 31.81030273 34.67382812 C21.32254368 32.81189369 10.83902846 32.75115027 0.21484375 32.57421875 C-1.70118783 32.53594677 -3.6172039 32.49689005 -5.53320312 32.45703125 C-10.17955844 32.36205531 -14.82599372 32.27766765 -19.47265625 32.19921875 C-20.42564653 29.68971555 -21.37572151 27.17916997 -22.32421875 24.66796875 C-22.59049072 23.96768555 -22.8567627 23.26740234 -23.13110352 22.54589844 C-25.53219663 16.17730231 -27.57010454 9.73504344 -29.47265625 3.19921875 C-19.64118636 1.54186785 -9.94572941 0.5705649 0 0 Z " fill="#0354D1" transform="translate(310.47265625,399.80078125)"/>
<path d="M0 0 C5.94 0 11.88 0 18 0 C18 36.96 18 73.92 18 112 C12.06 112 6.12 112 0 112 C0 75.04 0 38.08 0 0 Z " fill="#1B264C" transform="translate(968,397)"/>
<path d="M0 0 C-0.11555504 1.70899819 -0.24293003 3.41719869 -0.375 5.125 C-0.44460938 6.07632812 -0.51421875 7.02765625 -0.5859375 8.0078125 C-1.02659872 11.19221342 -1.89984971 13.98576709 -3 17 C-4.00160156 16.95359375 -5.00320313 16.9071875 -6.03515625 16.859375 C-16.21127355 16.40952477 -16.21127355 16.40952477 -25 21 C-28.95661316 25.27741963 -31.22424911 28.90344482 -31.31884766 34.76855469 C-31.33871735 35.70922791 -31.35858704 36.64990112 -31.37905884 37.61907959 C-31.39638565 39.13021332 -31.39638565 39.13021332 -31.4140625 40.671875 C-31.43342865 41.70942932 -31.4527948 42.74698364 -31.4727478 43.815979 C-31.53248842 47.12723592 -31.5789073 50.43852771 -31.625 53.75 C-31.66318482 55.99610884 -31.70223685 58.24220312 -31.7421875 60.48828125 C-31.83818561 65.9920691 -31.9222374 71.49592551 -32 77 C-37.94 77 -43.88 77 -50 77 C-50 51.92 -50 26.84 -50 1 C-44.39 1 -38.78 1 -33 1 C-33 4.63 -33 8.26 -33 12 C-32.34 12 -31.68 12 -31 12 C-30.73574219 11.40316406 -30.47148438 10.80632812 -30.19921875 10.19140625 C-27.54824916 5.34712631 -22.2722186 1.44657245 -17.16796875 -0.5390625 C-12.05610146 -1.62590996 -4.76472942 -2.38236471 0 0 Z " fill="#1C264B" transform="translate(829,432)"/>
<path d="M0 0 C5.09330849 2.83486558 8.0797221 7.48435632 11.04296875 12.359375 C13.30816337 20.48742627 13.25594538 28.74399661 9.30078125 36.30859375 C6.14794231 41.22331327 1.70251999 45.3160626 -3.89453125 47.171875 C-10.88268613 48.13575843 -17.34431168 48.18292189 -23.17578125 43.87109375 C-29.21379778 37.90169104 -32.03498667 31.92843672 -32.14453125 23.484375 C-32.07771371 15.38274797 -30.82862246 9.10596621 -24.89453125 3.171875 C-17.32165726 -3.18863633 -9.11648678 -3.42069946 0 0 Z " fill="#F4F5F8" transform="translate(1052.89453125,447.828125)"/>
<path d="M0 0 C5.94 0 11.88 0 18 0 C18 25.41 18 50.82 18 77 C12.06 77 6.12 77 0 77 C0 51.59 0 26.18 0 0 Z " fill="#1D274C" transform="translate(841,432)"/>
<path d="M0 0 C6.82949225 4.99718945 7.64592233 8.25040047 9.5625 16.875 C-3.3075 16.875 -16.1775 16.875 -29.4375 16.875 C-28.33946248 10.28677485 -26.85888824 7.05424941 -21.9375 2.625 C-15.17442796 -2.10915043 -7.88067432 -2.57912978 0 0 Z " fill="#F4F5F8" transform="translate(735.4375,446.125)"/>
<path d="M0 0 C1.32 0 2.64 0 4 0 C4 9.57 4 19.14 4 29 C2.68 29 1.36 29 0 29 C0 28.34 0 27.68 0 27 C-0.99 27.66 -1.98 28.32 -3 29 C-7.21178243 29.46797583 -9.28599114 29.46565795 -12.875 27.125 C-15.73785628 24.26214372 -16.1865146 22.63283238 -16.3125 18.6875 C-16.28413514 15.16458401 -16.06650675 14.10641081 -14.125 11 C-11.2741 8.3168 -10.49053531 8.02627868 -6.5 7.8125 C-3 8 -3 8 -1 10 C-0.67 6.7 -0.34 3.4 0 0 Z " fill="#5B617C" transform="translate(697,570)"/>
<path d="M0 0 C3.75844859 0.08702631 5.9835272 0.46700246 8.8125 3 C11.89250289 6.70125348 12.32568025 9.7321441 12.25 14.5 C10.65626177 18.27464317 8.67695855 20.32308861 5.25 22.5 C0.34367511 23.45733168 -3.56983312 23.24663619 -7.8125 20.5625 C-10.34169033 16.56474754 -11.19914201 13.22430856 -10.75 8.5 C-8.0261254 3.33403093 -5.95701831 0.21661885 0 0 Z " fill="#212B53" transform="translate(849.75,396.5)"/>
<path d="M0 0 C4.00429845 0.26695323 5.65934743 0.76030765 8.75 3.25 C11.29357983 6.30229579 11.75903645 7.74395901 11.6875 11.75 C10.66988128 15.5491099 9.51506348 17.48493652 6.75 20.25 C3.14427296 21.45190901 0.5397565 21.57670315 -3.25 21.25 C-6.00329021 19.45437595 -7.77627461 18.19745078 -9.25 15.25 C-9.67068924 12.19098826 -9.74028455 9.30241674 -9.25 6.25 C-6.8125 3.25 -6.8125 3.25 -4.25 1.25 C-3.25 0.25 -3.25 0.25 0 0 Z " fill="#616680" transform="translate(1261.25,577.75)"/>
<path d="M0 0 C4.34655597 2.37084871 4.34655597 2.37084871 6 5 C7.02540786 9.77479997 6.6316835 13.6542395 4.5625 18.0625 C0.89797354 20.83323952 -2.45566287 21.29213596 -7 21 C-10.670261 19.43818681 -11.7727373 18.34089404 -14 15 C-14.73446576 10.43948005 -14.59262059 6.98088926 -12.1875 3 C-8.44619243 -0.42062407 -4.90770882 -0.49908903 0 0 Z " fill="#606680" transform="translate(538,578)"/>
<path d="M0 0 C2.79659888 2.18271132 3.76939596 3.66006916 4.37109375 7.15625 C4.59509008 11.22891057 4.32913718 13.45522123 2.1875 17 C-0.66243444 19.60565434 -2.54948686 19.95828582 -6.375 20.3125 C-10.59334314 19.94884973 -12.04884992 18.95115008 -15 16 C-16.8457676 12.30846481 -16.48175083 8.02978061 -16 4 C-11.9169395 -1.77260278 -6.35114138 -1.62790988 0 0 Z " fill="#696F86" transform="translate(806,579)"/>
<path d="M0 0 C3.5386994 1.65139305 4.81070153 2.71605229 7 6 C7.54522803 9.06475543 7.54842924 11.93524839 7 15 C4.5625 18 4.5625 18 2 20 C1.67 20.33 1.34 20.66 1 21 C-3.99035504 21.38387346 -6.99816167 21.08713243 -11 18 C-13.6790573 13.98141405 -13.69610694 10.72358279 -13 6 C-9.39669759 0.23471614 -6.65938858 -0.45148397 0 0 Z " fill="#6B6F86" transform="translate(1163,578)"/>
<path d="M0 0 C3.0625 2.0625 3.0625 2.0625 5 5 C5.80766074 10.08826267 5.59541298 11.94362213 3.0625 16.4375 C-0.37747468 19.31584616 -2.37842288 20.07749922 -6.77734375 20.3125 C-10.67346466 19.76471499 -12.35907923 17.83898983 -15 15 C-16.57455739 11.85088521 -16.34799118 9.47991184 -16 6 C-11.84274707 -0.980462 -7.49667803 -1.84831889 0 0 Z " fill="#676C84" transform="translate(969,579)"/>
<path d="M0 0 C3.26023324 0.22484367 4.93132641 0.5260489 7.625 2.25 C8.285 1.59 8.945 0.93 9.625 0.25 C13.96143601 -0.06537716 15.95153229 -0.19897847 19.625 2.25 C20.87933458 6.01300374 20.73195422 9.52210909 20.6875 13.4375 C20.68298828 14.18708984 20.67847656 14.93667969 20.67382812 15.70898438 C20.66206354 17.55602383 20.64412865 19.40302213 20.625 21.25 C19.635 21.25 18.645 21.25 17.625 21.25 C17.57601562 20.27417969 17.52703125 19.29835938 17.4765625 18.29296875 C17.40179687 17.02066406 17.32703125 15.74835937 17.25 14.4375 C17.18039062 13.17292969 17.11078125 11.90835938 17.0390625 10.60546875 C16.86397061 7.12244766 16.86397061 7.12244766 14.625 4.25 C11.33424004 4.62904208 11.33424004 4.62904208 8.625 6.25 C8.38846477 8.77596259 8.20326308 11.28107207 8.0625 13.8125 C8.01931641 14.52341797 7.97613281 15.23433594 7.93164062 15.96679688 C7.82528223 17.72761912 7.72461154 19.4887832 7.625 21.25 C6.305 21.25 4.985 21.25 3.625 21.25 C3.56441406 20.17878906 3.50382813 19.10757813 3.44140625 18.00390625 C3.35701463 16.60675609 3.27236594 15.20962143 3.1875 13.8125 C3.14818359 13.10544922 3.10886719 12.39839844 3.06835938 11.66992188 C3.14875562 8.16309581 3.14875562 8.16309581 1.625 5.25 C-0.83292029 4.91656449 -0.83292029 4.91656449 -3.375 5.25 C-5.72270643 8.77155964 -5.75169614 10.75771843 -6 14.9375 C-6.07476563 16.11699219 -6.14953125 17.29648437 -6.2265625 18.51171875 C-6.27554688 19.41535156 -6.32453125 20.31898438 -6.375 21.25 C-7.365 21.25 -8.355 21.25 -9.375 21.25 C-9.375 14.65 -9.375 8.05 -9.375 1.25 C-8.055 1.58 -6.735 1.91 -5.375 2.25 C-3.375 0.25 -3.375 0.25 0 0 Z " fill="#656B84" transform="translate(558.375,577.75)"/>
<path d="M0 0 C2.0625 1.625 2.0625 1.625 3 4 C3 6.31 3 8.62 3 11 C-1.62 11.33 -6.24 11.66 -11 12 C-10.01 13.32 -9.02 14.64 -8 16 C-6.63875 15.7525 -6.63875 15.7525 -5.25 15.5 C-2 15 -2 15 2 15 C0.25 18.875 0.25 18.875 -2 20 C-9.13230769 20.70153846 -9.13230769 20.70153846 -12.9375 17.625 C-16.15009583 13.53624167 -16.43553023 11.22636279 -16 6 C-12.02124874 -1.40870924 -7.71311002 -1.82414334 0 0 Z " fill="#5B6078" transform="translate(623,579)"/>
<path d="M0 0 C3.375 2.0625 3.375 2.0625 6 5 C6 7.31 6 9.62 6 12 C1.05 12 -3.9 12 -9 12 C-8.01 13.32 -7.02 14.64 -6 16 C-2.1345378 16.35140565 1.29567073 16.18538537 5 15 C4.66411682 17.51912388 4.42645046 18.67196119 2.375 20.25 C-0.99124381 21.31302436 -3.48699084 21.43142218 -7 21 C-10.02596031 18.96076588 -11.59473125 17.3834174 -12.6328125 13.83984375 C-13.22499094 10.06628112 -13.25825951 7.63885247 -11.8125 4.0625 C-8.36280739 0.13698771 -5.19181082 -0.72685352 0 0 Z " fill="#5D6179" transform="translate(877,578)"/>
<path d="M0 0 C2.75329021 1.79562405 4.52627461 3.05254922 6 6 C6 7.98 6 9.96 6 12 C1.05 12 -3.9 12 -9 12 C-7.35 13.65 -5.7 15.3 -4 17 C-1.41666667 16.91666667 -1.41666667 16.91666667 1 16 C2.32 16 3.64 16 5 16 C3.125 19.875 3.125 19.875 2 21 C-1.05397552 21.44169067 -3.95030077 21.47716383 -7 21 C-9.75569447 18.81840855 -11.43588747 17.12822506 -13 14 C-13.54724071 8.30869663 -12.59333707 5.43882815 -9 1 C-5.89951072 -0.55024464 -3.42105782 -0.28992015 0 0 Z " fill="#646880" transform="translate(718,578)"/>
<path d="M0 0 C2.703125 1.4765625 2.703125 1.4765625 5 4 C5.60985259 6.94058742 5.47348484 9.76311203 5.3125 12.75 C5.28994141 13.54277344 5.26738281 14.33554687 5.24414062 15.15234375 C5.18540471 17.1023762 5.09572654 19.05143312 5 21 C4.195625 20.814375 3.39125 20.62875 2.5625 20.4375 C1.716875 20.293125 0.87125 20.14875 0 20 C-0.33 20.33 -0.66 20.66 -1 21 C-8.13367174 21.46023689 -8.13367174 21.46023689 -11 19.9375 C-12.58433618 16.86784865 -12.36248449 14.38318857 -12 11 C-10.80078125 9.29296875 -10.80078125 9.29296875 -9 8 C-6.51953125 7.70703125 -6.51953125 7.70703125 -3.8125 7.8125 C-2.46091797 7.85310547 -2.46091797 7.85310547 -1.08203125 7.89453125 C-0.39496094 7.92933594 0.29210937 7.96414063 1 8 C0.34 6.68 -0.32 5.36 -1 4 C-5.455 4.495 -5.455 4.495 -10 5 C-10.33 4.01 -10.66 3.02 -11 2 C-7.34148709 -0.34144827 -4.27169964 -0.44965259 0 0 Z " fill="#646983" transform="translate(739,578)"/>
<path d="M0 0 C1.32 0 2.64 0 4 0 C4.67305018 1.60149886 5.33822227 3.20631029 6 4.8125 C6.37125 5.70582031 6.7425 6.59914063 7.125 7.51953125 C8 10 8 10 8 13 C8.66 13 9.32 13 10 13 C10.99 8.71 11.98 4.42 13 0 C14.32 0 15.64 0 17 0 C16.36757331 4.72502701 15.08186437 8.90570197 13.4375 13.375 C13.20353516 14.01566406 12.96957031 14.65632812 12.72851562 15.31640625 C12.15700381 16.8793161 11.57915771 18.43990727 11 20 C9.68 20 8.36 20 7 20 C4.55302334 15.63799813 3.49730652 11.97306516 3 7 C2.34 7 1.68 7 1 7 C0.86722656 7.60328125 0.73445313 8.2065625 0.59765625 8.828125 C0.33275391 10.02695312 0.33275391 10.02695312 0.0625 11.25 C-0.11152344 12.03890625 -0.28554687 12.8278125 -0.46484375 13.640625 C-0.947556 15.76878703 -1.46163178 17.88532842 -2 20 C-3.65 20 -5.3 20 -7 20 C-8.00605593 17.39802798 -9.00502525 14.79370638 -10 12.1875 C-10.42925781 11.08051758 -10.42925781 11.08051758 -10.8671875 9.95117188 C-11.13789062 9.23896484 -11.40859375 8.52675781 -11.6875 7.79296875 C-11.93886719 7.1383667 -12.19023438 6.48376465 -12.44921875 5.80932617 C-13 4 -13 4 -13 1 C-11.68 1 -10.36 1 -9 1 C-7.68 4.63 -6.36 8.26 -5 12 C-3.20931427 9.3139714 -2.33944209 7.3373411 -1.375 4.3125 C-1.11460938 3.50425781 -0.85421875 2.69601562 -0.5859375 1.86328125 C-0.39257812 1.24839844 -0.19921875 0.63351562 0 0 Z " fill="#626781" transform="translate(1287,578)"/>
<path d="M0 0 C3.28449608 1.12807171 4.49957451 2.65677621 6.05859375 5.70703125 C6.05859375 7.68703125 6.05859375 9.66703125 6.05859375 11.70703125 C1.10859375 12.03703125 -3.84140625 12.36703125 -8.94140625 12.70703125 C-7.95140625 14.02703125 -6.96140625 15.34703125 -5.94140625 16.70703125 C-4.30171875 16.45953125 -4.30171875 16.45953125 -2.62890625 16.20703125 C1.05859375 15.70703125 1.05859375 15.70703125 4.05859375 15.70703125 C4.05859375 16.69703125 4.05859375 17.68703125 4.05859375 18.70703125 C-0.41423704 21.32973658 -4.0204342 20.89889971 -8.94140625 19.70703125 C-11.50390625 18.33203125 -11.50390625 18.33203125 -12.94140625 15.70703125 C-13.70872963 11.30001466 -14.14177173 6.86768912 -11.90625 2.84375 C-8.31169835 -0.71075094 -4.66426886 -0.84161344 0 0 Z " fill="#70748C" transform="translate(1209.94140625,578.29296875)"/>
<path d="M0 0 C0.78503906 0.06703125 1.57007813 0.1340625 2.37890625 0.203125 C4.4375 0.75 4.4375 0.75 6.4375 3.75 C6.57995897 6.51655324 6.62519445 9.17653306 6.5625 11.9375 C6.55347656 12.68708984 6.54445313 13.43667969 6.53515625 14.20898438 C6.51162578 16.05612654 6.47575561 17.90310412 6.4375 19.75 C4.35752174 20.0265289 2.2731692 20.27030075 0.1875 20.5 C-0.97265625 20.63921875 -2.1328125 20.7784375 -3.328125 20.921875 C-6.5625 20.75 -6.5625 20.75 -8.98828125 18.9921875 C-10.5625 16.75 -10.5625 16.75 -10.5 13.125 C-9.5625 9.75 -9.5625 9.75 -6.5625 7.75 C-4.08203125 7.5546875 -4.08203125 7.5546875 -1.375 7.625 C-0.47394531 7.64304687 0.42710938 7.66109375 1.35546875 7.6796875 C2.04253906 7.70289063 2.72960938 7.72609375 3.4375 7.75 C2.7775 6.76 2.1175 5.77 1.4375 4.75 C-0.76975073 4.38637182 -0.76975073 4.38637182 -3.1875 4.5625 C-4.00476562 4.58957031 -4.82203125 4.61664062 -5.6640625 4.64453125 C-6.60378906 4.69673828 -6.60378906 4.69673828 -7.5625 4.75 C-7.5625 3.43 -7.5625 2.11 -7.5625 0.75 C-4.56887667 -0.24787444 -3.07153629 -0.30361149 0 0 Z " fill="#5B627A" transform="translate(1065.5625,578.25)"/>
<path d="M0 0 C2.9375 2.0625 2.9375 2.0625 5 5 C5 7.31 5 9.62 5 12 C0.38 12 -4.24 12 -9 12 C-8.34 13.32 -7.68 14.64 -7 16 C-3.7291021 16.99549067 -1.83266959 17.32868536 1.375 16.0625 C1.91125 15.711875 2.4475 15.36125 3 15 C3.99 16.485 3.99 16.485 5 18 C0.72628836 20.67106977 -2.28449884 21.52239102 -7.1640625 20.625 C-10.4358668 19.51119428 -11.4745418 18.0509164 -13 15 C-13.81551921 10.31076457 -13.67219428 7.07551085 -11.125 3 C-7.50431507 -0.40770346 -4.93066984 -0.50142405 0 0 Z " fill="#60667E" transform="translate(837,578)"/>
<path d="M0 0 C6.27 0 12.54 0 19 0 C19 1.32 19 2.64 19 4 C14.05 4 9.1 4 4 4 C4 6.64 4 9.28 4 12 C8.29 12 12.58 12 17 12 C17 13.32 17 14.64 17 16 C12.71 16 8.42 16 4 16 C4 19.96 4 23.92 4 28 C2.68 28 1.36 28 0 28 C0 18.76 0 9.52 0 0 Z " fill="#616780" transform="translate(490,571)"/>
<path d="M0 0 C1.32 0 2.64 0 4 0 C4.06058594 1.07121094 4.12117187 2.14242187 4.18359375 3.24609375 C4.26798537 4.64324391 4.35263406 6.04037857 4.4375 7.4375 C4.47681641 8.14455078 4.51613281 8.85160156 4.55664062 9.58007812 C4.47624438 13.08690419 4.47624438 13.08690419 6 16 C8.45792029 16.33343551 8.45792029 16.33343551 11 16 C13.34770643 12.47844036 13.37669614 10.49228157 13.625 6.3125 C13.69976563 5.13300781 13.77453125 3.95351563 13.8515625 2.73828125 C13.90054688 1.83464844 13.94953125 0.93101562 14 0 C15.32 0 16.64 0 18 0 C18 6.93 18 13.86 18 21 C16.68 21 15.36 21 14 21 C14 20.34 14 19.68 14 19 C13.01 19.66 12.02 20.32 11 21 C7.27394725 21.40647848 4.9618609 21.64351048 1.79296875 19.5234375 C-0.8309384 15.83053114 -0.44010813 12.65904628 -0.25 8.25 C-0.23195313 7.45722656 -0.21390625 6.66445313 -0.1953125 5.84765625 C-0.14833082 3.89791652 -0.07659044 1.94880122 0 0 Z " fill="#646A81" transform="translate(907,578)"/>
<path d="M0 0 C1.32 0 2.64 0 4 0 C4.33 0.66 4.66 1.32 5 2 C5.99 1.34 6.98 0.68 8 0 C10.875 -0.4375 10.875 -0.4375 14 0 C16.64874213 1.98752329 18.69629705 3.55055916 19.40039062 6.91088867 C19.49154526 9.06542973 19.4375403 11.15988307 19.3125 13.3125 C19.28994141 14.05306641 19.26738281 14.79363281 19.24414062 15.55664062 C19.1855815 17.37197357 19.09590886 19.18625681 19 21 C17.68 21 16.36 21 15 21 C14.93941406 20.01257813 14.87882812 19.02515625 14.81640625 18.0078125 C14.73261719 16.72648438 14.64882812 15.44515625 14.5625 14.125 C14.44068359 12.21074219 14.44068359 12.21074219 14.31640625 10.2578125 C14.20793973 7.11699848 14.20793973 7.11699848 13 5 C10.08365871 4.7497843 10.08365871 4.7497843 7 5 C4.65229357 8.52155964 4.62330386 10.50771843 4.375 14.6875 C4.30023437 15.86699219 4.22546875 17.04648437 4.1484375 18.26171875 C4.09945313 19.16535156 4.05046875 20.06898438 4 21 C2.68 21 1.36 21 0 21 C0 14.07 0 7.14 0 0 Z " fill="#656B85" transform="translate(1174,578)"/>
<path d="M0 0 C1.32 0 2.64 0 4 0 C4 0.66 4 1.32 4 2 C4.99 1.34 5.98 0.68 7 0 C9.875 -0.4375 9.875 -0.4375 13 0 C15.64874213 1.98752329 17.69629705 3.55055916 18.40039062 6.91088867 C18.49154526 9.06542973 18.4375403 11.15988307 18.3125 13.3125 C18.28994141 14.05306641 18.26738281 14.79363281 18.24414062 15.55664062 C18.1855815 17.37197357 18.09590886 19.18625681 18 21 C16.68 21 15.36 21 14 21 C13.67 15.39 13.34 9.78 13 4 C6.6 4.2 6.6 4.2 5 6 C4.76346477 8.52596259 4.57826308 11.03107207 4.4375 13.5625 C4.39431641 14.27341797 4.35113281 14.98433594 4.30664062 15.71679688 C4.20028223 17.47761912 4.09961154 19.2387832 4 21 C2.68 21 1.36 21 0 21 C0 14.07 0 7.14 0 0 Z " fill="#696E86" transform="translate(1117,578)"/>
<path d="M0 0 C2.475 0.495 2.475 0.495 5 1 C5.66 0.67 6.32 0.34 7 0 C10.34919863 -0.29123466 12.35756835 -0.36462337 15.3125 1.3125 C17.92612074 3.92612074 17.99798178 5.92613313 18.09765625 9.57421875 C18.09103244 10.94534658 18.07914198 12.31645717 18.0625 13.6875 C18.05798828 14.38939453 18.05347656 15.09128906 18.04882812 15.81445312 C18.03706927 17.54300538 18.01913454 19.27151365 18 21 C16.68 21 15.36 21 14 21 C13.93941406 19.92878906 13.87882813 18.85757813 13.81640625 17.75390625 C13.73201463 16.35675609 13.64736594 14.95962143 13.5625 13.5625 C13.52318359 12.85544922 13.48386719 12.14839844 13.44335938 11.41992188 C13.52375562 7.91309581 13.52375562 7.91309581 12 5 C9.04195427 4.66659529 9.04195427 4.66659529 6 5 C3.73045369 8.40431947 3.63450051 10.16524202 3.375 14.1875 C3.30023437 15.27417969 3.22546875 16.36085938 3.1484375 17.48046875 C3.09945312 18.31191406 3.05046875 19.14335938 3 20 C2.01 20 1.02 20 0 20 C0 13.4 0 6.8 0 0 Z " fill="#686C84" transform="translate(978,578)"/>
<path d="M0 0 C0.99 0.66 1.98 1.32 3 2 C2.67 2.99 2.34 3.98 2 5 C-0.64 5 -3.28 5 -6 5 C-6.33 5.66 -6.66 6.32 -7 7 C-6.37351562 7.19335938 -5.74703125 7.38671875 -5.1015625 7.5859375 C-3.87566406 7.97652344 -3.87566406 7.97652344 -2.625 8.375 C-1.81289063 8.63023437 -1.00078125 8.88546875 -0.1640625 9.1484375 C2 10 2 10 4 12 C3.8125 15.5 3.8125 15.5 3 19 C0.00261059 20.99825961 -0.63347508 21.27550398 -4 21.25 C-5.0209375 21.25773438 -5.0209375 21.25773438 -6.0625 21.265625 C-8 21 -8 21 -11 19 C-10.67 17.68 -10.34 16.36 -10 15 C-8.88625 15.495 -8.88625 15.495 -7.75 16 C-4.86116688 17.22782871 -4.86116688 17.22782871 -1 17 C-1 16.01 -1 15.02 -1 14 C-1.56589844 13.72285156 -2.13179687 13.44570313 -2.71484375 13.16015625 C-3.44832031 12.79792969 -4.18179688 12.43570313 -4.9375 12.0625 C-6.03384766 11.52302734 -6.03384766 11.52302734 -7.15234375 10.97265625 C-9 10 -9 10 -10 9 C-10.25 5.5625 -10.25 5.5625 -10 2 C-6.31282562 -0.45811625 -4.35654296 -0.31118164 0 0 Z " fill="#666B85" transform="translate(759,578)"/>
<path d="M0 0 C2.25 -0.375 2.25 -0.375 5 0 C7.3125 3 7.3125 3 9 6 C9.7425 5.154375 10.485 4.30875 11.25 3.4375 C12.61125 2.2309375 12.61125 2.2309375 14 1 C16.171875 1.34765625 16.171875 1.34765625 18 2 C17.62746094 2.45890625 17.25492188 2.9178125 16.87109375 3.390625 C16.39800781 4.00421875 15.92492187 4.6178125 15.4375 5.25 C14.96183594 5.85328125 14.48617187 6.4565625 13.99609375 7.078125 C12.80992236 8.94373558 12.80992236 8.94373558 13.1875 11.0390625 C14.05792136 13.13979097 15.02918307 14.45626192 16.5625 16.125 C19 19 19 19 19 21 C16.75 20.875 16.75 20.875 14 20 C11.6875 16.9375 11.6875 16.9375 10 14 C9.071875 15.175625 9.071875 15.175625 8.125 16.375 C6 19 6 19 4 21 C2.68 21 1.36 21 0 21 C1.02046533 17.938604 1.81090589 16.17828874 4.1875 13.9375 C6.19887378 12.21360517 6.19887378 12.21360517 6.0625 10.125 C5.03106872 8.06213745 3.92339826 6.62411453 2.4375 4.875 C0 2 0 2 0 0 Z " fill="#585D78" transform="translate(844,578)"/>
<path d="M0 0 C0.33 1.32 0.66 2.64 1 4 C-0.65 4.33 -2.3 4.66 -4 5 C-4.33 5.99 -4.66 6.98 -5 8 C-3.02 8 -1.04 8 1 8 C0.67 9.32 0.34 10.64 0 12 C-1.65 12 -3.3 12 -5 12 C-5 17.61 -5 23.22 -5 29 C-6.32 29 -7.64 29 -9 29 C-9 23.39 -9 17.78 -9 12 C-9.99 12 -10.98 12 -12 12 C-12 10.68 -12 9.36 -12 8 C-11.01 8 -10.02 8 -9 8 C-8.896875 7.05125 -8.79375 6.1025 -8.6875 5.125 C-7.5463369 -0.062105 -4.75621621 -0.25709277 0 0 Z " fill="#626880" transform="translate(1240,570)"/>
<path d="M0 0 C0.99 0.66 1.98 1.32 3 2 C3 2.99 3 3.98 3 5 C0.03 4.67 -2.94 4.34 -6 4 C-6 4.99 -6 5.98 -6 7 C-5.15115234 7.30744141 -5.15115234 7.30744141 -4.28515625 7.62109375 C-3.55167969 7.89050781 -2.81820312 8.15992188 -2.0625 8.4375 C-1.33160156 8.70433594 -0.60070312 8.97117187 0.15234375 9.24609375 C2 10 2 10 3 11 C3.57417974 17.20114123 3.57417974 17.20114123 1.5625 20 C-2.27803585 21.4987457 -6.06830385 21.19924323 -10 20 C-10.66 19.01 -11.32 18.02 -12 17 C-11.01 16.34 -10.02 15.68 -9 15 C-8.01 15.66 -7.02 16.32 -6 17 C-3.35367713 16.6878236 -3.35367713 16.6878236 -1 16 C-1.33 15.01 -1.66 14.02 -2 13 C-4.31104818 11.94952356 -6.64583651 10.94992562 -9 10 C-9.66 9.34 -10.32 8.68 -11 8 C-10.8125 5 -10.8125 5 -10 2 C-6.31282562 -0.45811625 -4.35654296 -0.31118164 0 0 Z " fill="#5B5F79" transform="translate(640,578)"/>
<path d="M0 0 C0.66 0.66 1.32 1.32 2 2 C2.99 2 3.98 2 5 2 C7.04296875 2.875 7.04296875 2.875 9.1875 4 C9.90292969 4.37125 10.61835937 4.7425 11.35546875 5.125 C11.89816406 5.41375 12.44085937 5.7025 13 6 C13 7.32 13 8.64 13 10 C10.08517222 10.80967438 8.53886783 11.21845993 5.6875 10.0625 C5.130625 9.711875 4.57375 9.36125 4 9 C2.68 9.99 1.36 10.98 0 12 C-0.66 11.67 -1.32 11.34 -2 11 C-2 10.34 -2 9.68 -2 9 C-2.721875 9.350625 -3.44375 9.70125 -4.1875 10.0625 C-7.41498485 11.13832828 -8.84349497 11.24598883 -12 10 C-12.99 8.35 -13.98 6.7 -15 5 C-10.05 5 -5.1 5 0 5 C0 3.35 0 1.7 0 0 Z " fill="#EEEFF2" transform="translate(626,585)"/>
<path d="M0 0 C1.32 0 2.64 0 4 0 C4 1.65 4 3.3 4 5 C5.98 5 7.96 5 10 5 C10 6.32 10 7.64 10 9 C8.02 9 6.04 9 4 9 C4.33 12.96 4.66 16.92 5 21 C6.65 21.33 8.3 21.66 10 22 C10 23.32 10 24.64 10 26 C3.58718861 26.36298932 3.58718861 26.36298932 1.28125 24.9375 C-0.69137102 21.95451212 -0.28441673 19.33380768 -0.1875 15.8125 C-0.16042969 14.54019531 -0.13335938 13.26789062 -0.10546875 11.95703125 C-0.07066406 10.98121094 -0.03585937 10.00539063 0 9 C-0.99 9 -1.98 9 -3 9 C-3 8.01 -3 7.02 -3 6 C-2.01 6 -1.02 6 0 6 C0 4.02 0 2.04 0 0 Z " fill="#6D7389" transform="translate(931,573)"/>
<path d="M0 0 C2.9375 1 2.9375 1 4.875 2.6875 C6.35616 5.91120117 5.98670525 7.64254319 4.9375 11 C3.25 13.4375 3.25 13.4375 0.9375 15 C-2.125 15.0625 -2.125 15.0625 -5.0625 14 C-7.32154098 11.37659758 -8.08469488 9.90999008 -8 6.4375 C-6.3530042 2.15531091 -4.75311674 0 0 0 Z " fill="#F0F0F3" transform="translate(1263.0625,581)"/>
<path d="M0 0 C2.5 0.5625 2.5 0.5625 4.875 2.6875 C6.5 5.5625 6.5 5.5625 6.5 8.625 C5.34512907 12.01743336 4.47643092 13.55139803 1.5 15.5625 C-1.625 15.5 -1.625 15.5 -4.5 14.5625 C-6.98038907 10.8419164 -6.96337203 8.96453429 -6.5 4.5625 C-4.52929117 1.71592058 -3.37646044 0.7597036 0 0 Z " fill="#F0F1F4" transform="translate(534.5,580.4375)"/>
<path d="M0 0 C0.99 0 1.98 0 3 0 C3 1.65 3 3.3 3 5 C4.98 5 6.96 5 9 5 C9 6.32 9 7.64 9 9 C7.02 9 5.04 9 3 9 C3.33 12.96 3.66 16.92 4 21 C5.65 21.33 7.3 21.66 9 22 C9 22.99 9 23.98 9 25 C6.69 25.33 4.38 25.66 2 26 C-0.34290892 23.51565563 -0.97982934 22.22268407 -1.29296875 18.765625 C-1.25816406 17.60546875 -1.22335937 16.4453125 -1.1875 15.25 C-1.16042969 14.07953125 -1.13335938 12.9090625 -1.10546875 11.703125 C-1.07066406 10.81109375 -1.03585937 9.9190625 -1 9 C-1.99 9 -2.98 9 -4 9 C-4 7.68 -4 6.36 -4 5 C-2.68 5 -1.36 5 0 5 C0 3.35 0 1.7 0 0 Z " fill="#72768A" transform="translate(779,573)"/>
<path d="M0 0 C2 1.625 2 1.625 3 4 C2.92530315 7.58544859 2.35518507 9.48695489 0.3125 12.4375 C-2 14 -2 14 -5.0625 14 C-8.42258858 12.85614006 -9.42464938 12.15070125 -11 9 C-11.57662998 5.70497154 -11.31878245 4.47179802 -9.4375 1.6875 C-6.08673477 -0.63226055 -3.98782145 -0.58004676 0 0 Z " fill="#EEEFF2" transform="translate(1164,582)"/>
<path d="M0 0 C1.875 1.625 1.875 1.625 3 4 C2.93310811 7.81283745 2.79698862 10.08915586 0.25 13 C-2.6891904 14.30630684 -4.01155593 14.14940157 -7 13 C-8.875 11.375 -8.875 11.375 -10 9 C-9.93310811 5.18716255 -9.79698862 2.91084414 -7.25 0 C-4.3108096 -1.30630684 -2.98844407 -1.14940157 0 0 Z " fill="#F0F1F4" transform="translate(967,582)"/>
<path d="M0 0 C2.4375 2 2.4375 2 4 4 C1.23464562 4.95723806 -0.07708883 4.98233381 -3 4.3125 C-6.05673741 3.67871169 -6.05673741 3.67871169 -8.4375 5.5625 C-10.30545911 7.94886418 -10.30545911 7.94886418 -9.8125 11.0625 C-9.26084603 13.05694126 -8.65437895 15.03686316 -8 17 C-4.05272412 17.17942163 -1.4019487 17.09350689 2 15 C2.99 16.485 2.99 16.485 4 18 C0.7324318 20.63513565 -1.54375642 21.22786445 -5.625 20.875 C-8.2599982 20.57822546 -9.62830588 20.29701585 -11.7109375 18.6328125 C-14.22140411 15.45288813 -14.38849441 11.95686681 -14.359375 8.00390625 C-13.75048815 4.60870025 -11.61319515 3.05322476 -9 1 C-5.90826248 -0.54586876 -3.40570448 -0.29359521 0 0 Z " fill="#5F647D" transform="translate(900,578)"/>
<path d="M0 0 C3.89173729 1.49682203 3.89173729 1.49682203 5.4375 3.9375 C5.94565187 7.9301218 6.02788159 10.06286061 3.75 13.4375 C1.4375 14.9375 1.4375 14.9375 -1.125 14.875 C-5.01673729 13.37817797 -5.01673729 13.37817797 -6.5625 10.9375 C-7.07065187 6.9448782 -7.15288159 4.81213939 -4.875 1.4375 C-2.5625 -0.0625 -2.5625 -0.0625 0 0 Z " fill="#F2F2F5" transform="translate(800.5625,581.0625)"/>
<path d="M0 0 C3.30672925 1.40535993 4.65176442 3.0058027 6.5 6.0625 C6.39946873 9.38003196 4.86094578 11.78296615 2.5 14.0625 C-0.5 14.5625 -0.5 14.5625 -3.5 14.0625 C-6.06002346 11.843813 -6.44923191 10.41062407 -6.9375 7.0625 C-6.5 4.0625 -6.5 4.0625 -4.8125 1.625 C-2.5 0.0625 -2.5 0.0625 0 0 Z " fill="#F3F3F5" transform="translate(691.5,580.9375)"/>
<path d="M0 0 C0.99 0 1.98 0 3 0 C3.33 1.65 3.66 3.3 4 5 C5.65 5.33 7.3 5.66 9 6 C9 6.66 9 7.32 9 8 C7.35 8 5.7 8 4 8 C4.33 12.62 4.66 17.24 5 22 C6.32 22 7.64 22 9 22 C9 23.32 9 24.64 9 26 C3.59016393 26.36065574 3.59016393 26.36065574 1.3125 24.96875 C-0.708874 21.936689 -0.31526465 18.82111386 -0.1875 15.3125 C-0.16719727 14.2596582 -0.16719727 14.2596582 -0.14648438 13.18554688 C-0.11120182 11.45670171 -0.05739583 9.72825235 0 8 C-0.99 8 -1.98 8 -3 8 C-3 7.34 -3 6.68 -3 6 C-2.01 6 -1.02 6 0 6 C0 4.02 0 2.04 0 0 Z " fill="#50556F" transform="translate(596,573)"/>
<path d="M0 0 C2.9375 2.5 2.9375 2.5 5 5 C4 8 4 8 2 9 C-0.55157655 9.0716735 -3.07472971 9.09308442 -5.625 9.0625 C-6.33140625 9.05798828 -7.0378125 9.05347656 -7.765625 9.04882812 C-9.51045275 9.03703875 -11.255237 9.01910324 -13 9 C-12.47518614 5.6333749 -12.24110049 4.26237407 -9.875 1.6875 C-6.20197931 -0.46840345 -4.19688661 -0.67449963 0 0 Z " fill="#636981" transform="translate(837,578)"/>
<path d="M0 0 C0.99 0 1.98 0 3 0 C3 1.98 3 3.96 3 6 C4.98 6 6.96 6 9 6 C9 6.99 9 7.98 9 9 C7.02 9 5.04 9 3 9 C3.33 12.96 3.66 16.92 4 21 C5.65 21.33 7.3 21.66 9 22 C8.67 23.32 8.34 24.64 8 26 C5.6568787 25.74438677 3.32156597 25.40729228 1 25 C-0.53266582 21.93466836 -0.10276471 18.73245728 -0.0625 15.375 C-0.05798828 14.66859375 -0.05347656 13.9621875 -0.04882812 13.234375 C-0.03703875 11.48954725 -0.01910324 9.744763 0 8 C-0.99 8 -1.98 8 -3 8 C-3 7.34 -3 6.68 -3 6 C-2.01 6 -1.02 6 0 6 C0 4.02 0 2.04 0 0 Z " fill="#595D77" transform="translate(649,573)"/>
<path d="M0 0 C1.32 0 2.64 0 4 0 C3.67 1.32 3.34 2.64 3 4 C3.84304688 3.98839844 4.68609375 3.97679687 5.5546875 3.96484375 C6.65039062 3.95582031 7.74609375 3.94679688 8.875 3.9375 C9.96554687 3.92589844 11.05609375 3.91429687 12.1796875 3.90234375 C15 4 15 4 17 5 C17.33 4.01 17.66 3.02 18 2 C18 3.32 18 4.64 18 6 C13.05 6 8.1 6 3 6 C4.98 8.97 4.98 8.97 7 12 C8.093125 11.835 9.18625 11.67 10.3125 11.5 C14 11 14 11 17 11 C17 11.99 17 12.98 17 14 C12.52716921 16.62270533 8.92097205 16.19186846 4 15 C1.4375 13.625 1.4375 13.625 0 11 C-0.31384231 7.30836337 -0.22932373 3.69466002 0 0 Z " fill="#4A506E" transform="translate(1197,583)"/>
<path d="M0 0 C6.27 0 12.54 0 19 0 C19 1.32 19 2.64 19 4 C13.72 4 8.44 4 3 4 C3 6.31 3 8.62 3 11 C2.67 11 2.34 11 2 11 C1.67 16.28 1.34 21.56 1 27 C1.99 27.33 2.98 27.66 4 28 C2.68 28 1.36 28 0 28 C0 18.76 0 9.52 0 0 Z " fill="#7C8295" transform="translate(490,571)"/>
<path d="M0 0 C0.33 0 0.66 0 1 0 C1.165 0.9075 1.33 1.815 1.5 2.75 C3.57961505 7.25583262 6.53527991 8.23487811 11 10 C10.67 11.32 10.34 12.64 10 14 C5.80530429 13.40075776 1.99000166 12.42500059 -2 11 C-2.33 12.65 -2.66 14.3 -3 16 C-3.33 16 -3.66 16 -4 16 C-4 11.38 -4 6.76 -4 2 C-3.01 2.33 -2.02 2.66 -1 3 C-0.67 2.01 -0.34 1.02 0 0 Z " fill="#EAECF0" transform="translate(748,582)"/>
<path d="M0 0 C10.23 0 20.46 0 31 0 C31 0.99 31 1.98 31 3 C20.77 3 10.54 3 0 3 C0 2.01 0 1.02 0 0 Z " fill="#535A75" transform="translate(1010,585)"/>
<path d="M0 0 C0.99 0.33 1.98 0.66 3 1 C2.67 1.515625 2.34 2.03125 2 2.5625 C0.27348323 6.77088462 0.58066487 10.74199462 2 15 C1.01 15.99 0.02 16.98 -1 18 C-1.66 17.34 -2.32 16.68 -3 16 C-3.99 15.67 -4.98 15.34 -6 15 C-6 11.04 -6 7.08 -6 3 C-4.35 2.67 -2.7 2.34 -1 2 C-0.67 1.34 -0.34 0.68 0 0 Z " fill="#F0F0F4" transform="translate(607,580)"/>
<path d="M0 0 C1.32 0 2.64 0 4 0 C5.65 4.29 7.3 8.58 9 13 C9.99 12.67 10.98 12.34 12 12 C11.67 14.31 11.34 16.62 11 19 C9.35 19 7.7 19 6 19 C4.99394407 16.39802798 3.99497475 13.79370638 3 11.1875 C2.57074219 10.08051758 2.57074219 10.08051758 2.1328125 8.95117188 C1.86210938 8.23896484 1.59140625 7.52675781 1.3125 6.79296875 C1.06113281 6.1383667 0.80976562 5.48376465 0.55078125 4.80932617 C0 3 0 3 0 0 Z " fill="#62687F" transform="translate(1274,579)"/>
<path d="M0 0 C0 1.32 0 2.64 0 4 C-2.4375 5.625 -2.4375 5.625 -5 7 C-6.28446919 9.56893838 -6.32977144 11.76576337 -6.5625 14.625 C-6.68818359 16.12933594 -6.68818359 16.12933594 -6.81640625 17.6640625 C-6.87699219 18.43492187 -6.93757812 19.20578125 -7 20 C-7.99 20 -8.98 20 -10 20 C-10 13.73 -10 7.46 -10 1 C-9.01 1 -8.02 1 -7 1 C-7 1.66 -7 2.32 -7 3 C-6.401875 2.505 -5.80375 2.01 -5.1875 1.5 C-3 0 -3 0 0 0 Z " fill="#555B75" transform="translate(522,578)"/>
<path d="M0 0 C0.66 0 1.32 0 2 0 C2.2475 0.9075 2.495 1.815 2.75 2.75 C4.07732078 6.20103402 4.96784767 7.89433866 8 10 C11.02685532 9.82888749 11.02685532 9.82888749 14 9 C15.32 9 16.64 9 18 9 C16.25 12.875 16.25 12.875 14 14 C6.86769231 14.70153846 6.86769231 14.70153846 3.0625 11.625 C-0.16998406 7.51092937 -0.09640109 5.20565883 0 0 Z " fill="#676C86" transform="translate(607,585)"/>
<path d="M0 0 C0.66 0 1.32 0 2 0 C2.0825 1.11375 2.165 2.2275 2.25 3.375 C2.62133028 6.94246192 2.62133028 6.94246192 4.625 8.5 C8.01650987 9.21400208 10.64806988 8.80694614 14 8 C14.66 7.01 15.32 6.02 16 5 C16.66 5 17.32 5 18 5 C17.7323244 8.30133235 17.4396165 9.62503298 14.875 11.8125 C11.26808676 13.30231199 8.87306828 13.48413353 5 13 C2.24670979 11.20437595 0.47372539 9.94745078 -1 7 C-1.125 3.9375 -1.125 3.9375 -1 1 C-0.67 0.67 -0.34 0.34 0 0 Z " fill="#5C617B" transform="translate(791,586)"/>
<path d="M0 0 C1.32 0 2.64 0 4 0 C4 6.93 4 13.86 4 21 C2.68 21 1.36 21 0 21 C0 14.07 0 7.14 0 0 Z " fill="#6C7189" transform="translate(945,578)"/>
<path d="M0 0 C0.99 0 1.98 0 3 0 C3 9.24 3 18.48 3 28 C2.01 28 1.02 28 0 28 C0 18.76 0 9.52 0 0 Z " fill="#555B77" transform="translate(1088,570)"/>
<path d="M0 0 C2.31 0.33 4.62 0.66 7 1 C7 1.66 7 2.32 7 3 C8.32 3.33 9.64 3.66 11 4 C10.21625 4.103125 9.4325 4.20625 8.625 4.3125 C5.66954819 4.77595022 5.66954819 4.77595022 4 8 C3.54084493 10.96842658 3.54084493 10.96842658 3.375 14.1875 C3.30023437 15.27417969 3.22546875 16.36085938 3.1484375 17.48046875 C3.09945312 18.31191406 3.05046875 19.14335938 3 20 C2.01 20 1.02 20 0 20 C0 13.4 0 6.8 0 0 Z " fill="#616680" transform="translate(978,578)"/>
<path d="M0 0 C0.99 0 1.98 0 3 0 C3 9.24 3 18.48 3 28 C2.01 28 1.02 28 0 28 C0 18.76 0 9.52 0 0 Z " fill="#535A74" transform="translate(1078,570)"/>
<path d="M0 0 C1.32 0 2.64 0 4 0 C4 6.93 4 13.86 4 21 C2.68 21 1.36 21 0 21 C0 14.07 0 7.14 0 0 Z " fill="#6C728A" transform="translate(1174,578)"/>
<path d="M0 0 C1.32 0 2.64 0 4 0 C4 6.6 4 13.2 4 20 C2.68 20.33 1.36 20.66 0 21 C0 14.07 0 7.14 0 0 Z " fill="#6C7186" transform="translate(673,578)"/>
<path d="M0 0 C0.66 0 1.32 0 2 0 C2 8.91 2 17.82 2 27 C1.34 27 0.68 27 0 27 C0.020625 26.05125 0.04125 25.1025 0.0625 24.125 C0.22551826 21.09333717 0.22551826 21.09333717 -1 19 C-1.12375 18.195625 -1.2475 17.39125 -1.375 16.5625 C-2.07848918 13.67819436 -2.6037602 12.71159986 -5 11 C-7.60611077 10.27802838 -7.60611077 10.27802838 -10 10 C-9.67 9.34 -9.34 8.68 -9 8 C-3.375 7.75 -3.375 7.75 0 10 C0 6.7 0 3.4 0 0 Z " fill="#494F6B" transform="translate(698,571)"/>
<path d="M0 0 C0.99 0 1.98 0 3 0 C3 8.91 3 17.82 3 27 C2.01 27 1.02 27 0 27 C0 18.09 0 9.18 0 0 Z " fill="#4A4F6B" transform="translate(1244,571)"/>
<path d="M0 0 C3.80909391 0.25971095 5.55981301 0.58298075 8.375 3.25 C10 6 10 6 10 11 C5.38 11 0.76 11 -4 11 C-4 10.34 -4 9.68 -4 9 C-0.7 9 2.6 9 6 9 C4.21092278 5.24848856 4.21092278 5.24848856 0.8125 3.1875 C0.214375 3.125625 -0.38375 3.06375 -1 3 C-0.67 2.01 -0.34 1.02 0 0 Z " fill="#535873" transform="translate(714,578)"/>
<path d="M0 0 C1.32 0 2.64 0 4 0 C4 9.57 4 19.14 4 29 C2.68 29 1.36 29 0 29 C-0.33 28.34 -0.66 27.68 -1 27 C-3.32156597 26.59270772 -5.6568787 26.25561323 -8 26 C-8 25.67 -8 25.34 -8 25 C-7.05125 24.71125 -6.1025 24.4225 -5.125 24.125 C-1.94788422 23.23174891 -1.94788422 23.23174891 0 21 C0.66 21 1.32 21 2 21 C1.67 23.31 1.34 25.62 1 28 C1.66 28 2.32 28 3 28 C3 19.09 3 10.18 3 1 C2.34 1 1.68 1 1 1 C1 4.3 1 7.6 1 11 C0.67 11 0.34 11 0 11 C0 7.37 0 3.74 0 0 Z " fill="#6D7186" transform="translate(697,570)"/>
<path d="M0 0 C2.10409639 -0.02701408 4.20829178 -0.04640223 6.3125 -0.0625 C7.48425781 -0.07410156 8.65601563 -0.08570313 9.86328125 -0.09765625 C13 0 13 0 16 1 C15.67 2.98 15.34 4.96 15 7 C14.34 6.67 13.68 6.34 13 6 C13 5.34 13 4.68 13 4 C12.278125 4.350625 11.55625 4.70125 10.8125 5.0625 C7.61636431 6.12787856 6.1605851 6.0812528 3 5 C1.1875 3.5625 1.1875 3.5625 0 2 C0 1.34 0 0.68 0 0 Z " fill="#EEF0F2" transform="translate(709,590)"/>
<path d="M0 0 C0.66 0.33 1.32 0.66 2 1 C1.814375 1.680625 1.62875 2.36125 1.4375 3.0625 C0.90336133 6.64885962 1.21450969 9.4652936 2 13 C3.41591827 14.92283085 3.41591827 14.92283085 5 16 C4.01 16.33 3.02 16.66 2 17 C-2.66666667 14.66666667 -2.66666667 14.66666667 -4 12 C-4.40423599 7.71509847 -4.45828448 5.67310532 -2 2.0625 C-1.34 1.381875 -0.68 0.70125 0 0 Z " fill="#63677E" transform="translate(957,580)"/>
<path d="M0 0 C2.4375 2 2.4375 2 4 4 C1.25977374 4.94853986 -0.04814141 4.98873286 -2.9375 4.3125 C-6.13314119 3.64390356 -6.13314119 3.64390356 -8.6875 5.9375 C-9.450625 6.618125 -10.21375 7.29875 -11 8 C-11.99 8 -12.98 8 -14 8 C-13.07870137 4.90108642 -12.32841931 3.27211886 -9.8125 1.1875 C-6.25115378 -0.31617952 -3.83165326 -0.48766496 0 0 Z " fill="#616682" transform="translate(900,578)"/>
<path d="M0 0 C1.23556641 0.01740234 1.23556641 0.01740234 2.49609375 0.03515625 C3.32238281 0.04417969 4.14867187 0.05320312 5 0.0625 C5.63808594 0.07410156 6.27617188 0.08570313 6.93359375 0.09765625 C6.21383097 3.32325984 5.70328431 5.11930585 2.93359375 7.09765625 C0.37109375 7.41015625 0.37109375 7.41015625 -2.06640625 7.09765625 C-2.72640625 6.43765625 -3.38640625 5.77765625 -4.06640625 5.09765625 C-3.31779097 0.15679541 -3.31779097 0.15679541 0 0 Z " fill="#E5E7EB" transform="translate(734.06640625,588.90234375)"/>
<path d="M0 0 C0.33 0 0.66 0 1 0 C1 3.96 1 7.92 1 12 C3.31 12.33 5.62 12.66 8 13 C8 14.32 8 15.64 8 17 C4.625 17.125 4.625 17.125 1 17 C-1 15 -1 15 -1.23046875 11.77734375 C-1.20919922 9.87662109 -1.20919922 9.87662109 -1.1875 7.9375 C-1.18105469 6.66777344 -1.17460938 5.39804687 -1.16796875 4.08984375 C-1 1 -1 1 0 0 Z " fill="#626880" transform="translate(933,582)"/>
<path d="M0 0 C3.96 0 7.92 0 12 0 C12 0.66 12 1.32 12 2 C12.66 2 13.32 2 14 2 C12.70525365 4.58949269 11.67336607 4.96035764 9 6 C6.5 6.4375 6.5 6.4375 4 6 C0 1.78378378 0 1.78378378 0 0 Z " fill="#E9EBEF" transform="translate(1200,590)"/>
<path d="M0 0 C0.99 0 1.98 0 3 0 C3 6.6 3 13.2 3 20 C2.01 20 1.02 20 0 20 C0 13.4 0 6.8 0 0 Z " fill="#565C75" transform="translate(1108,578)"/>
<path d="M0 0 C0.33 0 0.66 0 1 0 C1.33 4.29 1.66 8.58 2 13 C3.32 13 4.64 13 6 13 C6 14.32 6 15.64 6 17 C0.51923077 17.36538462 0.51923077 17.36538462 -1.6875 15.8125 C-3.45312631 13.37425415 -3.30348915 11.78955493 -3.1875 8.8125 C-3.16042969 7.91144531 -3.13335938 7.01039063 -3.10546875 6.08203125 C-3.07066406 5.39496094 -3.03585937 4.70789063 -3 4 C-2.01 4.495 -2.01 4.495 -1 5 C-0.67 3.35 -0.34 1.7 0 0 Z " fill="#70748A" transform="translate(599,582)"/>
<path d="M0 0 C2.97 0 5.94 0 9 0 C8.34 1.98 7.68 3.96 7 6 C4.125 6.625 4.125 6.625 1 7 C0.34 6.34 -0.32 5.68 -1 5 C-0.625 2.375 -0.625 2.375 0 0 Z " fill="#E7E8EC" transform="translate(1060,589)"/>
<path d="M0 0 C3 0.0625 3 0.0625 6 1 C6.66 2.65 7.32 4.3 8 6 C4.04 6 0.08 6 -4 6 C-2 2 -2 2 0 0 Z " fill="#E3E4E9" transform="translate(1204,581)"/>
<path d="M0 0 C2.4375 1.5 2.4375 1.5 4 3 C3.67 4.65 3.34 6.3 3 8 C2.525625 7.319375 2.05125 6.63875 1.5625 5.9375 C-1.44687638 3.66211786 -2.14283302 3.82395666 -5.75 4.25 C-7.17020201 4.47906484 -8.58845901 4.72251758 -10 5 C-10.33 4.01 -10.66 3.02 -11 2 C-7.35187527 -0.33479983 -4.25812212 -0.38018947 0 0 Z " fill="#525975" transform="translate(739,578)"/>
<path d="M0 0 C0.66 0.33 1.32 0.66 2 1 C5.83936768 1.1421988 9.32016639 1.17754676 13 0 C12.66411682 2.51912388 12.42645046 3.67196119 10.375 5.25 C7.14133835 6.27115631 4.36767564 6.24945745 1 6 C0.34 5.34 -0.32 4.68 -1 4 C-0.625 1.875 -0.625 1.875 0 0 Z " fill="#646881" transform="translate(869,593)"/>
<path d="M0 0 C1.5 1.3125 1.5 1.3125 3 3 C3 3.99 3 4.98 3 6 C-1.15217057 7.58177926 -4.54736965 8.40478458 -9 8 C-9.66 7.34 -10.32 6.68 -11 6 C-10.625 3.375 -10.625 3.375 -10 1 C-9.62875 1.515625 -9.2575 2.03125 -8.875 2.5625 C-6.96826848 4.36319983 -6.96826848 4.36319983 -3.8125 3.6875 C-2.884375 3.460625 -1.95625 3.23375 -1 3 C-0.67 2.01 -0.34 1.02 0 0 Z " fill="#6E748D" transform="translate(1068,591)"/>
<path d="M0 0 C4.29 0 8.58 0 13 0 C13 0.99 13 1.98 13 3 C9.30513897 5.46324069 7.36706908 5.38991688 3 5 C1.0625 3.625 1.0625 3.625 0 2 C0 1.34 0 0.68 0 0 Z " fill="#EFF0F2" transform="translate(868,590)"/>
<path d="M0 0 C0.66 0.33 1.32 0.66 2 1 C1.87431641 1.97839844 1.87431641 1.97839844 1.74609375 2.9765625 C1.17445896 7.88249144 0.84688018 12.13127185 2 17 C-1.875 15.25 -1.875 15.25 -3 13 C-3.42535668 8.76279307 -3.68440794 5.16919689 -1.5 1.4375 C-0.7575 0.7259375 -0.7575 0.7259375 0 0 Z " fill="#585E77" transform="translate(1153,580)"/>
<path d="M0 0 C0.33 0.66 0.66 1.32 1 2 C1.99 1.67 2.98 1.34 4 1 C4 5.29 4 9.58 4 14 C2.68 14 1.36 14 0 14 C0 9.38 0 4.76 0 0 Z " fill="#737990" transform="translate(562,585)"/>
<path d="M0 0 C0.99 0.33 1.98 0.66 3 1 C2.34 1 1.68 1 1 1 C1 2.65 1 4.3 1 6 C1.66 6 2.32 6 3 6 C3 10.62 3 15.24 3 20 C2.01 20 1.02 20 0 20 C0 13.4 0 6.8 0 0 Z " fill="#565C77" transform="translate(549,579)"/>
<path d="M0 0 C3.29714793 0.32971479 4.6226839 0.6226839 7 3 C7 3.99 7 4.98 7 6 C3.37 6 -0.26 6 -4 6 C-2 2 -2 2 0 0 Z " fill="#E9EAED" transform="translate(872,581)"/>
<path d="M0 0 C2.87687481 0.22129806 4.53951144 0.63478494 6.8125 2.4375 C8 4 8 4 8 6 C4.37 6 0.74 6 -3 6 C-2 2 -2 2 0 0 Z " fill="#F1F1F4" transform="translate(831,581)"/>
<path d="M0 0 C3.29714793 0.32971479 4.6226839 0.6226839 7 3 C7 3.99 7 4.98 7 6 C3.37 6 -0.26 6 -4 6 C-2 2 -2 2 0 0 Z " fill="#E1E2E7" transform="translate(713,581)"/>
<path d="M0 0 C3.29714793 0.32971479 4.6226839 0.6226839 7 3 C7 3.99 7 4.98 7 6 C3.37 6 -0.26 6 -4 6 C-2 2 -2 2 0 0 Z " fill="#EAEBEF" transform="translate(615,581)"/>
<path d="M0 0 C0.66 0.33 1.32 0.66 2 1 C1.29875 1.680625 0.5975 2.36125 -0.125 3.0625 C-2.15069229 5.07684387 -3.99640915 7.17081302 -5.8125 9.375 C-9.13976137 13.29703089 -12.77845894 17.03862045 -17 20 C-17.99 20 -18.98 20 -20 20 C-13.4 13.4 -6.8 6.8 0 0 Z " fill="#0857D2" transform="translate(473,381)"/>
<path d="M0 0 C0.99 0.99 1.98 1.98 3 3 C2.360625 3.721875 1.72125 4.44375 1.0625 5.1875 C-0.98673535 7.98191184 -1.61332946 9.61663274 -2 13 C-2.99 12.67 -3.98 12.34 -5 12 C-5.32469403 7.34605219 -4.79790518 4.76641082 -2 1 C-1.34 0.67 -0.68 0.34 0 0 Z " fill="#5B6078" transform="translate(869,579)"/>
<path d="M0 0 C0.99 0.66 1.98 1.32 3 2 C2.67 2.99 2.34 3.98 2 5 C0.56260487 5.02712066 -0.87493863 5.04645067 -2.3125 5.0625 C-3.51326172 5.07990234 -3.51326172 5.07990234 -4.73828125 5.09765625 C-7 5 -7 5 -10 4 C-9.67 3.01 -9.34 2.02 -9 1 C-5.98131566 -0.50934217 -3.32702771 -0.17510672 0 0 Z " fill="#656B84" transform="translate(759,578)"/>
<path d="M0 0 C0.33 0 0.66 0 1 0 C1.268125 1.258125 1.53625 2.51625 1.8125 3.8125 C2.62037502 7.0157527 3.1881664 9.05334597 6 11 C7.32835862 11.67652465 8.66120274 12.34437501 10 13 C1.89470038 12.80949082 1.89470038 12.80949082 -1.625 9.625 C-2.305625 8.325625 -2.305625 8.325625 -3 7 C-2.1654738 4.49642139 -1.20628008 2.33214148 0 0 Z " fill="#6C7187" transform="translate(527,586)"/>
<path d="M0 0 C0.33 0 0.66 0 1 0 C1 3.63 1 7.26 1 11 C-0.98 11.66 -2.96 12.32 -5 13 C-4.34 12.01 -3.68 11.02 -3 10 C-3 8.68 -3 7.36 -3 6 C-6.3 5.67 -9.6 5.34 -13 5 C-13 4.67 -13 4.34 -13 4 C-12.22914063 3.96261719 -11.45828125 3.92523437 -10.6640625 3.88671875 C-9.15972656 3.78810547 -9.15972656 3.78810547 -7.625 3.6875 C-6.62726562 3.62949219 -5.62953125 3.57148437 -4.6015625 3.51171875 C-3.74304688 3.34285156 -2.88453125 3.17398438 -2 3 C-1.34 2.01 -0.68 1.02 0 0 Z " fill="#696E87" transform="translate(743,582)"/>
<path d="M0 0 C0.66 0 1.32 0 2 0 C2 4.95 2 9.9 2 15 C1.01 15 0.02 15 -1 15 C-1.02693575 12.87506859 -1.04636628 10.75004088 -1.0625 8.625 C-1.07410156 7.44164062 -1.08570313 6.25828125 -1.09765625 5.0390625 C-1 2 -1 2 0 0 Z " fill="#585E78" transform="translate(1133,583)"/>
<path d="M0 0 C0.99773438 0.02320313 1.99546875 0.04640625 3.0234375 0.0703125 C4.52777344 0.09738281 4.52777344 0.09738281 6.0625 0.125 C6.83335937 0.14820313 7.60421875 0.17140625 8.3984375 0.1953125 C8.7284375 0.8553125 9.0584375 1.5153125 9.3984375 2.1953125 C8.47611328 2.23398437 8.47611328 2.23398437 7.53515625 2.2734375 C2.45974531 2.45216881 2.45974531 2.45216881 -1.5390625 5.1953125 C-1.8896875 5.8553125 -2.2403125 6.5153125 -2.6015625 7.1953125 C-3.5915625 7.6903125 -3.5915625 7.6903125 -4.6015625 8.1953125 C-4.7265625 5.3203125 -4.7265625 5.3203125 -4.6015625 2.1953125 C-2.6015625 0.1953125 -2.6015625 0.1953125 0 0 Z " fill="#525773" transform="translate(731.6015625,586.8046875)"/>
<path d="M0 0 C0 0.33 0 0.66 0 1 C-0.78375 1.0825 -1.5675 1.165 -2.375 1.25 C-5.06882213 1.7223712 -5.06882213 1.7223712 -6.1875 3.6875 C-7.15782716 6.44920037 -8.11241269 9.21043989 -9 12 C-10.9451 9.08235 -11.45276317 7.37462715 -12 4 C-7.99899414 0.12023674 -5.51903037 -0.43286513 0 0 Z " fill="#6C7186" transform="translate(694,578)"/>
<path d="M0 0 C1.32 0 2.64 0 4 0 C3.40075776 4.19469571 2.42500059 8.00999834 1 12 C-0.55078125 10.79296875 -0.55078125 10.79296875 -2 9 C-1.85546875 6.73828125 -1.85546875 6.73828125 -1.1875 4.3125 C-0.97480469 3.50425781 -0.76210937 2.69601562 -0.54296875 1.86328125 C-0.36378906 1.24839844 -0.18460938 0.63351562 0 0 Z " fill="#696E88" transform="translate(1300,578)"/>
<path d="M0 0 C0.99 0 1.98 0 3 0 C3 4.62 3 9.24 3 14 C2.01 14.495 2.01 14.495 1 15 C-0.09506492 11.71480525 -0.09960608 9.26336585 -0.0625 5.8125 C-0.05347656 4.72582031 -0.04445313 3.63914062 -0.03515625 2.51953125 C-0.02355469 1.68808594 -0.01195312 0.85664062 0 0 Z " fill="#5B617C" transform="translate(1088,570)"/>
<path d="M0 0 C0.33 0 0.66 0 1 0 C1 4.95 1 9.9 1 15 C0.01 15 -0.98 15 -2 15 C-2.05406122 13.06280622 -2.09282025 11.12518079 -2.125 9.1875 C-2.14820313 8.10855469 -2.17140625 7.02960937 -2.1953125 5.91796875 C-2 3 -2 3 0 0 Z " fill="#5A617A" transform="translate(578,584)"/>
<path d="M0 0 C0.33 1.32 0.66 2.64 1 4 C-0.1446875 4.1546875 -0.1446875 4.1546875 -1.3125 4.3125 C-4.19497655 5.04987772 -5.09539142 5.80970014 -7 8 C-7.33 8 -7.66 8 -8 8 C-8.1875 5.125 -8.1875 5.125 -8 2 C-4.77208445 -0.1519437 -3.71599191 -0.20086443 0 0 Z " fill="#595F78" transform="translate(1240,570)"/>
<path d="M0 0 C0.99 0.99 1.98 1.98 3 3 C0.58301501 4.94918144 -1.18746401 6.00815254 -4.3359375 5.9765625 C-6.57364473 5.71537901 -8.78327805 5.40084514 -11 5 C-10.67 4.34 -10.34 3.68 -10 3 C-7.96875 2.40234375 -7.96875 2.40234375 -5.5 1.9375 C-2.46226779 1.54135157 -2.46226779 1.54135157 0 0 Z " fill="#616682" transform="translate(1212,593)"/>
<path d="M0 0 C0.33 0.66 0.66 1.32 1 2 C4.96 2 8.92 2 13 2 C13.33 1.34 13.66 0.68 14 0 C14.66 0 15.32 0 16 0 C16 1.32 16 2.64 16 4 C10.72 4 5.44 4 0 4 C0 2.68 0 1.36 0 0 Z " fill="#535872" transform="translate(826,585)"/>
<path d="M0 0 C0.99 0 1.98 0 3 0 C3 0.99 3 1.98 3 3 C3.804375 3.268125 4.60875 3.53625 5.4375 3.8125 C6.283125 4.204375 7.12875 4.59625 8 5 C8.33 5.99 8.66 6.98 9 8 C2.25 7.25 2.25 7.25 0 5 C-0.125 2.375 -0.125 2.375 0 0 Z " fill="#5A5F79" transform="translate(749,582)"/>
<path d="M0 0 C-0.99 0.33 -1.98 0.66 -3 1 C-3.33 1.66 -3.66 2.32 -4 3 C-6.3125 3.5625 -6.3125 3.5625 -9 4 C-10.33542939 4.32483418 -11.66961551 4.6550855 -13 5 C-13 2 -13 2 -11.5625 0.25 C-7.66772374 -1.64989086 -4.16559674 -0.73877036 0 0 Z " fill="#5F657F" transform="translate(1212,579)"/>
<path d="M0 0 C3 1 3 1 5 4 C5.125 6.6875 5.125 6.6875 5 9 C3.02 9 1.04 9 -1 9 C-0.34 8.67 0.32 8.34 1 8 C0.01 6.02 -0.98 4.04 -2 2 C-1.34 1.34 -0.68 0.68 0 0 Z " fill="#61667F" transform="translate(621,579)"/>
<path d="M0 0 C4.875 1.875 4.875 1.875 6 3 C5.6875 6.5 5.6875 6.5 5 10 C4.01 10.495 4.01 10.495 3 11 C2.566875 9.576875 2.566875 9.576875 2.125 8.125 C1.23174891 4.94788422 1.23174891 4.94788422 -1 3 C-0.67 2.01 -0.34 1.02 0 0 Z " fill="#6A6E88" transform="translate(757,587)"/>
<path d="M0 0 C0.99 0 1.98 0 3 0 C2.835 0.66 2.67 1.32 2.5 2 C2.0756415 4.54615101 1.99269096 6.63248912 2.0625 9.1875 C2 13 2 13 0 15 C0 12.03 0 9.06 0 6 C-0.99 6.33 -1.98 6.66 -3 7 C-2.25 2.25 -2.25 2.25 0 0 Z " fill="#6C7088" transform="translate(793,580)"/>
<path d="M0 0 C5.53846154 0.49230769 5.53846154 0.49230769 7.875 3.0625 C8.431875 4.0215625 8.431875 4.0215625 9 5 C8.01 6.32 7.02 7.64 6 9 C5.5875 8.195625 5.175 7.39125 4.75 6.5625 C3.26547669 3.85890282 3.26547669 3.85890282 0.8125 3.1875 C0.214375 3.125625 -0.38375 3.06375 -1 3 C-0.67 2.01 -0.34 1.02 0 0 Z " fill="#585D78" transform="translate(714,578)"/>
<path d="M0 0 C0.66 0 1.32 0 2 0 C2.13277344 0.60328125 2.26554688 1.2065625 2.40234375 1.828125 C2.57894531 2.62734375 2.75554688 3.4265625 2.9375 4.25 C3.11152344 5.03890625 3.28554688 5.8278125 3.46484375 6.640625 C3.947556 8.76878703 4.46163178 10.88532842 5 13 C1.125 11.25 1.125 11.25 0 9 C-0.06950541 7.45976004 -0.08452357 5.91665012 -0.0625 4.375 C-0.05347656 3.55773437 -0.04445313 2.74046875 -0.03515625 1.8984375 C-0.02355469 1.27195312 -0.01195312 0.64546875 0 0 Z " fill="#595D74" transform="translate(681,584)"/>
<path d="M0 0 C0.99 0.33 1.98 0.66 3 1 C3 5.95 3 10.9 3 16 C2.01 15.67 1.02 15.34 0 15 C0.66 15 1.32 15 2 15 C1.67257812 14.45859375 1.34515625 13.9171875 1.0078125 13.359375 C-0.21664767 10.49280933 -0.19892146 8.3547013 -0.125 5.25 C-0.09792969 3.77273438 -0.09792969 3.77273438 -0.0703125 2.265625 C-0.04710937 1.51796875 -0.02390625 0.7703125 0 0 Z " fill="#535872" transform="translate(1069,582)"/>
<path d="M0 0 C-0.33 2.31 -0.66 4.62 -1 7 C-2.65 7 -4.3 7 -6 7 C-6.33 5.02 -6.66 3.04 -7 1 C-2.25 0 -2.25 0 0 0 Z " fill="#565B74" transform="translate(1286,591)"/>
<path d="M0 0 C0.66 0.66 1.32 1.32 2 2 C1.7578125 4.1640625 1.7578125 4.1640625 1.125 6.625 C0.92132812 7.44226563 0.71765625 8.25953125 0.5078125 9.1015625 C0.34023437 9.72804688 0.17265625 10.35453125 0 11 C-1.32 11 -2.64 11 -4 11 C-3.67 9.35 -3.34 7.7 -3 6 C-2.34 6 -1.68 6 -1 6 C-0.67 4.02 -0.34 2.04 0 0 Z " fill="#4F5672" transform="translate(1298,587)"/>
<path d="M0 0 C2.375 -0.125 2.375 -0.125 5 0 C7 2 7 2 7 5 C4.69 5 2.38 5 0 5 C-0.33 4.01 -0.66 3.02 -1 2 C-0.67 1.34 -0.34 0.68 0 0 Z " fill="#E7E9ED" transform="translate(733,581)"/>
<path d="M0 0 C0.33 0.99 0.66 1.98 1 3 C-0.6875 5.6875 -0.6875 5.6875 -3 8 C-4.32 8 -5.64 8 -7 8 C-4.18918919 0 -4.18918919 0 0 0 Z " fill="#656B87" transform="translate(851,591)"/>
<path d="M0 0 C0.99 0 1.98 0 3 0 C2.39009109 3.55780196 1.4216319 6.6828589 0 10 C-0.66 9.67 -1.32 9.34 -2 9 C-2.25 3.375 -2.25 3.375 0 0 Z " fill="#5D637C" transform="translate(526,581)"/>
<path d="M0 0 C0.66 0.33 1.32 0.66 2 1 C0.57276992 3.88734564 -0.90295564 6.54479707 -3 9 C-6.8125 10 -6.8125 10 -10 10 C-6.66666667 6.66666667 -3.33333333 3.33333333 0 0 Z " fill="#292F5A" transform="translate(538,407)"/>
<path d="M0 0 C-0.6875 1.9375 -0.6875 1.9375 -2 4 C-4.4375 4.9375 -4.4375 4.9375 -7 5 C-8.8125 3.5625 -8.8125 3.5625 -10 2 C-3.375 -1.125 -3.375 -1.125 0 0 Z " fill="#5E637E" transform="translate(625,594)"/>
<path d="M0 0 C0.99 0 1.98 0 3 0 C2.67 2.31 2.34 4.62 2 7 C2.99 7.33 3.98 7.66 5 8 C3.68 8 2.36 8 1 8 C0.67 7.34 0.34 6.68 0 6 C-2.32156597 5.59270772 -4.6568787 5.25561323 -7 5 C-7 4.67 -7 4.34 -7 4 C-6.030625 3.71125 -5.06125 3.4225 -4.0625 3.125 C-0.89335797 2.35785318 -0.89335797 2.35785318 0 0 Z " fill="#787D92" transform="translate(696,591)"/>
<path d="M0 0 C0.99 0.33 1.98 0.66 3 1 C2.7834375 1.8353125 2.7834375 1.8353125 2.5625 2.6875 C1.97230872 5.11384195 1.476571 7.54906345 1 10 C0.34 10 -0.32 10 -1 10 C-2.25 3.375 -2.25 3.375 0 0 Z " fill="#636980" transform="translate(1057,587)"/>
<path d="M0 0 C0.33 0.66 0.66 1.32 1 2 C2.98 2 4.96 2 7 2 C6.67 2.66 6.34 3.32 6 4 C4.8553125 3.9071875 4.8553125 3.9071875 3.6875 3.8125 C0.95474688 3.74101915 0.95474688 3.74101915 -0.8125 5.5 C-1.4003125 6.2425 -1.4003125 6.2425 -2 7 C-2.66 6.67 -3.32 6.34 -4 6 C-4 4.35 -4 2.7 -4 1 C-2.68 0.67 -1.36 0.34 0 0 Z " fill="#6A6F88" transform="translate(554,579)"/>
<path d="M0 0 C0 1.32 0 2.64 0 4 C-2.4375 5.625 -2.4375 5.625 -5 7 C-5.33 7.66 -5.66 8.32 -6 9 C-6.66 9 -7.32 9 -8 9 C-5.4 0 -5.4 0 0 0 Z " fill="#5F667C" transform="translate(522,578)"/>
<path d="M0 0 C0 3 0 3 -2.1875 5.26171875 C-3.115625 6.06222656 -4.04375 6.86273438 -5 7.6875 C-5.928125 8.49574219 -6.85625 9.30398438 -7.8125 10.13671875 C-8.8953125 11.05904297 -8.8953125 11.05904297 -10 12 C-10.66 11.67 -11.32 11.34 -12 11 C-10.37807179 9.35113941 -8.75236228 7.7059976 -7.125 6.0625 C-6.22007812 5.14597656 -5.31515625 4.22945313 -4.3828125 3.28515625 C-2 1 -2 1 0 0 Z " fill="#2679D3" transform="translate(439,415)"/>
<path d="M0 0 C2 3 2 3 2 6 C2.66 6 3.32 6 4 6 C4 6.66 4 7.32 4 8 C2 9.625 2 9.625 0 11 C-1.4606285 8.35261084 -2 7.10551666 -2 4 C-1.34 4 -0.68 4 0 4 C0 2.68 0 1.36 0 0 Z " fill="#6C7188" transform="translate(1293,585)"/>
<path d="M0 0 C1.65 0 3.3 0 5 0 C5.66 1.32 6.32 2.64 7 4 C6.01 4.99 5.02 5.98 4 7 C0 2.25 0 2.25 0 0 Z " fill="#676C84" transform="translate(844,578)"/>
<path d="M0 0 C-0.33 0.66 -0.66 1.32 -1 2 C-2.65 2 -4.3 2 -6 2 C-6 2.66 -6 3.32 -6 4 C-7.32 4.33 -8.64 4.66 -10 5 C-10.33 4.01 -10.66 3.02 -11 2 C-7.36576791 -0.32590854 -4.22911669 -0.16265833 0 0 Z " fill="#5E657E" transform="translate(739,578)"/>
<path d="M0 0 C0.99 0.33 1.98 0.66 3 1 C2.814375 1.5775 2.62875 2.155 2.4375 2.75 C1.95976454 5.20692525 2.24270636 6.64397534 3 9 C1.68 9 0.36 9 -1 9 C-1.33 7.68 -1.66 6.36 -2 5 C-1.34 5 -0.68 5 0 5 C0 3.35 0 1.7 0 0 Z " fill="#535771" transform="translate(867,587)"/>
<path d="M0 0 C1.65 0.33 3.3 0.66 5 1 C5.33 1.99 5.66 2.98 6 4 C3.36 4 0.72 4 -2 4 C-1.34 2.68 -0.68 1.36 0 0 Z " fill="#F0F0F3" transform="translate(1063,582)"/>
<path d="M0 0 C6.4 -0.49230769 6.4 -0.49230769 9.4375 2 C10.2109375 2.99 10.2109375 2.99 11 4 C9.1875 4.6875 9.1875 4.6875 7 5 C5.5 3.6875 5.5 3.6875 4 2 C1.90010348 0.82425289 1.90010348 0.82425289 0 0 Z " fill="#6D728C" transform="translate(893,578)"/>
<path d="M0 0 C2.475 0.495 2.475 0.495 5 1 C5.80967438 3.91482778 6.21845993 5.46113217 5.0625 8.3125 C4.5365625 9.1478125 4.5365625 9.1478125 4 10 C3.79503906 9.44570313 3.59007812 8.89140625 3.37890625 8.3203125 C3.10949219 7.59585938 2.84007812 6.87140625 2.5625 6.125 C2.29566406 5.40570312 2.02882813 4.68640625 1.75390625 3.9453125 C1.02083146 1.96351155 1.02083146 1.96351155 0 0 Z " fill="#5C617C" transform="translate(803,580)"/>
<path d="M0 0 C6.625 -0.25 6.625 -0.25 10 2 C10 2.99 10 3.98 10 5 C8.68 4.67 7.36 4.34 6 4 C6 3.34 6 2.68 6 2 C4.35 2 2.7 2 1 2 C0.67 1.34 0.34 0.68 0 0 Z " fill="#676C84" transform="translate(633,578)"/>
<path d="M0 0 C0.66 1.32 1.32 2.64 2 4 C1.34 4.66 0.68 5.32 0 6 C-0.66 5.67 -1.32 5.34 -2 5 C-2 5.66 -2 6.32 -2 7 C-1.34 7.33 -0.68 7.66 0 8 C-0.99 8 -1.98 8 -3 8 C-3 6.68 -3 5.36 -3 4 C-2.01 4 -1.02 4 0 4 C0 2.68 0 1.36 0 0 Z M2 3 C4.64 3.33 7.28 3.66 10 4 C9.67 4.99 9.34 5.98 9 7 C9 6.34 9 5.68 9 5 C7.02 5 5.04 5 3 5 C2.67 4.34 2.34 3.68 2 3 Z " fill="#979BAA" transform="translate(1231,574)"/>
<path d="M0 0 C2.5 1.375 2.5 1.375 5 3 C5 3.66 5 4.32 5 5 C5.66 5.33 6.32 5.66 7 6 C3.625 5.6875 3.625 5.6875 0 5 C-0.66 4.01 -1.32 3.02 -2 2 C-1.34 1.34 -0.68 0.68 0 0 Z " fill="#626784" transform="translate(630,593)"/>
<path d="M0 0 C0.721875 0.804375 1.44375 1.60875 2.1875 2.4375 C5.02515689 5.02292072 6.27166147 5.68042813 10 6 C10 6.33 10 6.66 10 7 C3.375 7.25 3.375 7.25 0 5 C-0.33 4.01 -0.66 3.02 -1 2 C-0.67 1.34 -0.34 0.68 0 0 Z " fill="#71758C" transform="translate(1154,592)"/>
<path d="M0 0 C1.32 0 2.64 0 4 0 C4.33 1.98 4.66 3.96 5 6 C3.68 5.67 2.36 5.34 1 5 C0.67 3.35 0.34 1.7 0 0 Z " fill="#585F79" transform="translate(1274,579)"/>
<path d="M0 0 C-3.75 2 -3.75 2 -6 2 C-6.66 3.32 -7.32 4.64 -8 6 C-8.33 5.01 -8.66 4.02 -9 3 C-9.66 2.67 -10.32 2.34 -11 2 C-7.36576791 -0.32590854 -4.22911669 -0.16265833 0 0 Z " fill="#73788E" transform="translate(538,578)"/>
<path d="M0 0 C0.33 1.32 0.66 2.64 1 4 C-1.70879335 5.35439668 -4.00933268 5.06501451 -7 5 C-7.33 4.34 -7.66 3.68 -8 3 C-5.36 2.01 -2.72 1.02 0 0 Z " fill="#595E77" transform="translate(1166,593)"/>
<path d="M0 0 C1.98 0 3.96 0 6 0 C5.67 1.32 5.34 2.64 5 4 C3.35 4 1.7 4 0 4 C0 2.68 0 1.36 0 0 Z " fill="#5F647F" transform="translate(652,595)"/>
<path d="M0 0 C0.99 0 1.98 0 3 0 C4.6875 2.5 4.6875 2.5 6 5 C4.1875 5.6875 4.1875 5.6875 2 6 C0.25 4.5625 0.25 4.5625 -1 3 C-0.67 2.01 -0.34 1.02 0 0 Z " fill="#575C75" transform="translate(1198,591)"/>
<path d="M0 0 C1.5 1.3125 1.5 1.3125 3 3 C3 3.99 3 4.98 3 6 C0.6875 6.625 0.6875 6.625 -2 7 C-2.99 6.34 -3.98 5.68 -5 5 C-4.360625 4.731875 -3.72125 4.46375 -3.0625 4.1875 C-0.66868314 3.11332248 -0.66868314 3.11332248 0 0 Z " fill="#636983" transform="translate(1068,591)"/>
<path d="M0 0 C2.29013653 3.4352048 2.17842973 4.985331 2 9 C1.01 9 0.02 9 -1 9 C-1.09765625 2.84765625 -1.09765625 2.84765625 -1 1 C-0.67 0.67 -0.34 0.34 0 0 Z " fill="#5B607B" transform="translate(513,589)"/>
<path d="M0 0 C0.99 0.33 1.98 0.66 3 1 C3.625 3.8125 3.625 3.8125 4 7 C3.01 8.485 3.01 8.485 2 10 C0.39644899 6.49223216 -0.22036864 3.85645121 0 0 Z " fill="#676C85" transform="translate(1269,583)"/>
<path d="M0 0 C5.53846154 -0.36923077 5.53846154 -0.36923077 7.875 1.5 C8.24625 1.995 8.6175 2.49 9 3 C8.01 3.66 7.02 4.32 6 5 C5.34 4.34 4.68 3.68 4 3 C1.42938689 2.35232207 1.42938689 2.35232207 -1 2 C-0.67 1.34 -0.34 0.68 0 0 Z " fill="#5A6079" transform="translate(689,579)"/>
<path d="M0 0 C0.33 0.99 0.66 1.98 1 3 C1.66 3 2.32 3 3 3 C2.67 6.3 2.34 9.6 2 13 C1.67 13 1.34 13 1 13 C0.67 10.36 0.34 7.72 0 5 C-0.99 4.67 -1.98 4.34 -3 4 C-2.01 4 -1.02 4 0 4 C0 2.68 0 1.36 0 0 Z " fill="#D7D9DF" transform="translate(522,578)"/>
<path d="M0 0 C2.97 0.99 5.94 1.98 9 3 C9 3.33 9 3.66 9 4 C7.8553125 3.9690625 7.8553125 3.9690625 6.6875 3.9375 C3.89814214 3.87057159 3.89814214 3.87057159 1 5 C0.34 4.67 -0.32 4.34 -1 4 C-0.67 2.68 -0.34 1.36 0 0 Z " fill="#525771" transform="translate(749,593)"/>
<path d="M0 0 C1.32 0 2.64 0 4 0 C3.625 2.4375 3.625 2.4375 3 5 C2.01 5.495 2.01 5.495 1 6 C0.67 5.34 0.34 4.68 0 4 C-0.99 4 -1.98 4 -3 4 C-1.75 2 -1.75 2 0 0 Z " fill="#6A6D85" transform="translate(1166,590)"/>
<path d="M0 0 C0.66 0.33 1.32 0.66 2 1 C1.01 2.485 1.01 2.485 0 4 C-0.70812814 6.32108669 -1.38024152 8.65377147 -2 11 C-2.33 11 -2.66 11 -3 11 C-3.36923077 3.49230769 -3.36923077 3.49230769 -1.5 1 C-1.005 0.67 -0.51 0.34 0 0 Z " fill="#585D77" transform="translate(957,580)"/>
<path d="M0 0 C0.99 0.99 1.98 1.98 3 3 C1.68 3.99 0.36 4.98 -1 6 C-1.99 5.34 -2.98 4.68 -4 4 C-2.68 2.68 -1.36 1.36 0 0 Z " fill="#666B84" transform="translate(869,579)"/>
<path d="M0 0 C1.98 0.66 3.96 1.32 6 2 C4 4 4 4 0.875 4.125 C-0.548125 4.063125 -0.548125 4.063125 -2 4 C-1.34 2.68 -0.68 1.36 0 0 Z " fill="#F9F9F9" transform="translate(712,582)"/>
<path d="M0 0 C1.65 0 3.3 0 5 0 C5.33 0.66 5.66 1.32 6 2 C5.01 2.33 4.02 2.66 3 3 C2.67 3.66 2.34 4.32 2 5 C1.01 4.67 0.02 4.34 -1 4 C-0.67 2.68 -0.34 1.36 0 0 Z " fill="#DDDEE4" transform="translate(634,581)"/>
<path d="M0 0 C2.0625 0.4375 2.0625 0.4375 4 1 C4 5 4 5 3 8 C1.02 4.535 1.02 4.535 -1 1 C-0.67 0.67 -0.34 0.34 0 0 Z " fill="#595F78" transform="translate(1266,580)"/>
<path d="M0 0 C1.98 0.495 1.98 0.495 4 1 C3.67 2.32 3.34 3.64 3 5 C1.68 4.67 0.36 4.34 -1 4 C-0.67 2.68 -0.34 1.36 0 0 Z " fill="#656C85" transform="translate(1108,570)"/>
<path d="M0 0 C0.66 0.66 1.32 1.32 2 2 C-1.465 4.97 -1.465 4.97 -5 8 C-5.66 7.67 -6.32 7.34 -7 7 C-4.69 4.69 -2.38 2.38 0 0 Z " fill="#242E54" transform="translate(427,507)"/>
<path d="M0 0 C1.65 0.33 3.3 0.66 5 1 C3.63016497 4.16115776 3.0109362 4.9927092 0 7 C0 4.66666667 0 2.33333333 0 0 Z " fill="#135FDA" transform="translate(401,421)"/>
<path d="M0 0 C0.66 0.33 1.32 0.66 2 1 C2 2.98 2 4.96 2 7 C1.01 7 0.02 7 -1 7 C-1.33 5.02 -1.66 3.04 -2 1 C-1.34 0.67 -0.68 0.34 0 0 Z " fill="#565A75" transform="translate(1168,583)"/>
<path d="M0 0 C0.66 0.33 1.32 0.66 2 1 C1.67 2.65 1.34 4.3 1 6 C-0.32 6 -1.64 6 -3 6 C-1.125 1.125 -1.125 1.125 0 0 Z " fill="#5F647B" transform="translate(1153,580)"/>
<path d="M0 0 C3.875 1.75 3.875 1.75 5 4 C4.34 4.66 3.68 5.32 3 6 C2.34 6 1.68 6 1 6 C0.34 4.35 -0.32 2.7 -1 1 C-0.67 0.67 -0.34 0.34 0 0 Z " fill="#61657D" transform="translate(1164,579)"/>
<path d="M0 0 C0.66 0.33 1.32 0.66 2 1 C1.67 3.97 1.34 6.94 1 10 C0.67 9.34 0.34 8.68 0 8 C-0.99 8 -1.98 8 -3 8 C-3 7.34 -3 6.68 -3 6 C-2.34 5.67 -1.68 5.34 -1 5 C-0.34444881 2.47266765 -0.34444881 2.47266765 0 0 Z " fill="#515871" transform="translate(779,573)"/>
<path d="M0 0 C1.98 0 3.96 0 6 0 C6 0.99 6 1.98 6 3 C4.02 3 2.04 3 0 3 C0 2.01 0 1.02 0 0 Z " fill="#515871" transform="translate(614,578)"/>
<path d="M0 0 C0.33 0.99 0.66 1.98 1 3 C0.01 4.485 0.01 4.485 -1 6 C-1.66 6 -2.32 6 -3 6 C-3.33 4.68 -3.66 3.36 -4 2 C-2.68 1.34 -1.36 0.68 0 0 Z " fill="#555D78" transform="translate(566,581)"/>
<path d="M0 0 C1.875 0.3125 1.875 0.3125 4 1 C4.66 1.99 5.32 2.98 6 4 C4.125 4.625 4.125 4.625 2 5 C1.34 4.34 0.68 3.68 0 3 C0 2.01 0 1.02 0 0 Z " fill="#626781" transform="translate(966,579)"/>
<path d="M0 0 C2.475 0.495 2.475 0.495 5 1 C5.33 1.99 5.66 2.98 6 4 C4.35 3.67 2.7 3.34 1 3 C0.67 2.01 0.34 1.02 0 0 Z " fill="#6F7187" transform="translate(857,595)"/>
<path d="M0 0 C0.66 0 1.32 0 2 0 C1.67 2.31 1.34 4.62 1 7 C0.34 7 -0.32 7 -1 7 C-1.04254356 5.00045254 -1.04080783 2.99958364 -1 1 C-0.67 0.67 -0.34 0.34 0 0 Z " fill="#575B7A" transform="translate(887,585)"/>
<path d="M0 0 C0.66 0.33 1.32 0.66 2 1 C2 2.65 2 4.3 2 6 C0.35 6 -1.3 6 -3 6 C-2.01 4.02 -1.02 2.04 0 0 Z " fill="#4A4D6A" transform="translate(722,583)"/>
<path d="M0 0 C0.99 0.66 1.98 1.32 3 2 C3 2.66 3 3.32 3 4 C-0.3 4 -3.6 4 -7 4 C-7 3.67 -7 3.34 -7 3 C-3.535 2.505 -3.535 2.505 0 2 C0 1.34 0 0.68 0 0 Z " fill="#E7E8EE" transform="translate(836,583)"/>
<path d="M0 0 C1.32 0.33 2.64 0.66 4 1 C3.67 2.32 3.34 3.64 3 5 C2.01 5 1.02 5 0 5 C0 3.35 0 1.7 0 0 Z " fill="#60637D" transform="translate(673,570)"/>
<path d="M0 0 C0.99 0.33 1.98 0.66 3 1 C3 2.32 3 3.64 3 5 C1.68 5 0.36 5 -1 5 C-0.67 3.35 -0.34 1.7 0 0 Z " fill="#63677F" transform="translate(946,570)"/>
<path d="M0 0 C1.32 1.65 2.64 3.3 4 5 C2.02 5.99 2.02 5.99 0 7 C-1.125 2.25 -1.125 2.25 0 0 Z " fill="#666A81" transform="translate(685,591)"/>
<path d="M0 0 C1.65 0 3.3 0 5 0 C3.68 0.33 2.36 0.66 1 1 C1.33 2.32 1.66 3.64 2 5 C0.68 5.33 -0.64 5.66 -2 6 C-1.34 4.02 -0.68 2.04 0 0 Z " fill="#DCDEE3" transform="translate(1273,578)"/>
<path d="M0 0 C1.98 0 3.96 0 6 0 C6 0.99 6 1.98 6 3 C5 4 5 4 2.4375 4.0625 C1.2309375 4.0315625 1.2309375 4.0315625 0 4 C0.99 3.34 1.98 2.68 3 2 C2.01 1.34 1.02 0.68 0 0 Z " fill="#71768E" transform="translate(1124,578)"/>
<path d="M0 0 C0.99 0 1.98 0 3 0 C3 0.66 3 1.32 3 2 C4.65 2 6.3 2 8 2 C8 2.33 8 2.66 8 3 C5.36 3.33 2.72 3.66 0 4 C0 2.68 0 1.36 0 0 Z " fill="#6A7187" transform="translate(1058,579)"/>
<path d="M0 0 C2.64 0.33 5.28 0.66 8 1 C8 1.33 8 1.66 8 2 C1.25 4.125 1.25 4.125 -1 3 C-0.67 2.01 -0.34 1.02 0 0 Z " fill="#585E78" transform="translate(631,579)"/>
<path d="M0 0 C0.99 0 1.98 0 3 0 C3 1.98 3 3.96 3 6 C2.01 6 1.02 6 0 6 C0 4.02 0 2.04 0 0 Z " fill="#535771" transform="translate(649,573)"/>
</svg>
