<?xml version="1.0" encoding="UTF-8"?>
<svg version="1.1" xmlns="http://www.w3.org/2000/svg" width="1536" height="1024">
<path d="M0 0 C506.88 0 1013.76 0 1536 0 C1536 337.92 1536 675.84 1536 1024 C1029.12 1024 522.24 1024 0 1024 C0 686.08 0 348.16 0 0 Z " fill="#F8F9FB" transform="translate(0,0)"/>
<path d="M0 0 C-3.67084008 4.9605947 -7.42980406 9.84175703 -11.25 14.6875 C-15.20976363 19.71078122 -19.13461547 24.75841744 -23.02734375 29.83398438 C-26.58301868 34.46630001 -30.16345746 39.07905202 -33.75 43.6875 C-34.33982666 44.44538818 -34.92965332 45.20327637 -35.53735352 45.98413086 C-37.96849664 49.10725769 -40.4002777 52.22988752 -42.83203125 55.35253906 C-44.63832373 57.67229048 -46.44429624 59.99229029 -48.25 62.3125 C-49.12797241 63.4406311 -49.12797241 63.4406311 -50.02368164 64.59155273 C-53.42613067 68.96667874 -56.81438665 73.35222902 -60.1875 77.75 C-63.96197917 82.66602897 -67.77728136 87.54761722 -71.61181641 92.41674805 C-80.27199017 103.41942783 -88.84869155 114.48711136 -97.375 125.59375 C-101.17099643 130.52854536 -105.00298039 135.43545131 -108.828125 140.34765625 C-112.23242429 144.72144077 -115.62497594 149.10358707 -119 153.5 C-127.55111844 164.63470759 -136.17267345 175.71565675 -144.87988281 186.72875977 C-147.38832239 189.91215914 -149.854662 193.12282998 -152.2890625 196.36328125 C-164.55143245 212.68252105 -175.86885035 224.11856287 -196.66015625 227.52734375 C-197.76230469 227.68332031 -198.86445312 227.83929687 -200 228 C-200.90905594 228.17175247 -201.81811188 228.34350494 -202.75471497 228.52046204 C-206.30124131 229.04451278 -209.67931208 229.13443284 -213.2644043 229.14526367 C-213.96627869 229.14862228 -214.66815308 229.1519809 -215.39129639 229.15544128 C-217.70228881 229.16490332 -220.01320818 229.1668931 -222.32421875 229.16796875 C-223.95164519 229.17118849 -225.57907134 229.17455308 -227.20649719 229.17805481 C-230.62180245 229.18403705 -234.03708246 229.18589603 -237.45239258 229.18530273 C-241.773004 229.18520205 -246.09344759 229.19875984 -250.41401958 229.21607494 C-253.78179118 229.22735131 -257.14952449 229.2292171 -260.517313 229.22869301 C-262.10648989 229.2298534 -263.69566843 229.2341622 -265.28482628 229.24202538 C-311.40521732 229.44857458 -311.40521732 229.44857458 -326.35546875 214.671875 C-334.74789493 204.65764789 -338.59890096 192.86019545 -342.5625 180.625 C-343.07917317 179.05018529 -343.59668576 177.47564576 -344.11499023 175.90136719 C-345.19586165 172.61598487 -346.27309322 169.32944302 -347.34765625 166.04199219 C-349.79776283 158.55470772 -352.28671644 151.08035904 -354.77780151 143.60662842 C-355.54658539 141.29779521 -356.31271221 138.98809443 -357.07836914 136.67822266 C-357.55347254 135.24899829 -358.02864787 133.81979783 -358.50390625 132.390625 C-359.11987671 130.5348584 -359.11987671 130.5348584 -359.74829102 128.64160156 C-360.66617809 125.97118932 -361.6328618 123.35465536 -362.65600586 120.72558594 C-364 117 -364 117 -364 114 C-342.762089 113.67295328 -322.02832987 113.60939836 -301 117 C-299.60178343 117.19688789 -298.2033631 117.39233743 -296.8046875 117.5859375 C-271.8045042 121.53873856 -242.55357094 131.87280558 -221.203125 145.828125 C-219.12336038 147.21426323 -219.12336038 147.21426323 -217.0637207 146.71264648 C-213.56277166 145.5036946 -210.83258802 143.06190557 -207.9375 140.8125 C-206.49545294 139.71137303 -205.05271593 138.61114918 -203.609375 137.51171875 C-202.47725586 136.64619385 -202.47725586 136.64619385 -201.32226562 135.76318359 C-197.47479145 132.84198316 -193.5810832 129.98428735 -189.6875 127.125 C-188.08072171 125.94271847 -186.47395094 124.76042672 -184.8671875 123.578125 C-182.43274497 121.78823757 -179.99811067 119.99861121 -177.56347656 118.20898438 C-175.14603629 116.43159759 -172.7290793 114.65355719 -170.3125 112.875 C-169.52198242 112.29322998 -168.73146484 111.71145996 -167.91699219 111.11206055 C-162.90181737 107.41598659 -157.91253823 103.68736074 -152.9375 99.9375 C-147.4480145 95.79988232 -141.90017054 91.75385538 -136.3125 87.75 C-128.60597917 82.22507678 -121.06329189 76.50286381 -113.53857422 70.73364258 C-108.19803644 66.64810652 -102.80758216 62.66375271 -97.31103516 58.79174805 C-89.5489178 53.30277347 -81.99367 47.53104664 -74.40283203 41.80908203 C-72.23896116 40.17991284 -70.07185351 38.55524211 -67.90234375 36.93359375 C-61.31740934 32.01110176 -54.75332307 27.06286761 -48.2199707 22.07202148 C-46.41176683 20.69456647 -44.59911006 19.32293666 -42.78198242 17.95727539 C-38.664674 14.85476218 -34.63409003 11.7310366 -30.7734375 8.3125 C-20.73183577 -0.35483114 -13.10467899 -1.53837536 0 0 Z " fill="#282C59" transform="translate(969,419)"/>
<path d="M0 0 C3.09329934 0.00314803 6.18562737 -0.02034868 9.27880859 -0.0456543 C22.90778579 -0.08666874 36.04965901 1.0889127 49.49365234 3.31567383 C42.39997281 21.89087592 20.3221222 39.60555681 5.49365234 52.31567383 C4.3781528 53.29379658 3.2636595 54.27306753 2.14990234 55.25317383 C-4.57569124 61.15500842 -11.3809995 66.89073661 -18.45727539 72.36816406 C-22.11478453 75.20295218 -25.6717889 78.12464039 -29.19384766 81.12817383 C-36.53166534 87.28843722 -44.28524037 92.87254122 -52.02734375 98.51000977 C-55.9860889 101.39349205 -59.93551354 104.28955569 -63.88134766 107.19067383 C-64.65792725 107.76124512 -65.43450684 108.33181641 -66.23461914 108.91967773 C-72.25410994 113.35730091 -78.19764682 117.88925251 -84.13134766 122.44067383 C-91.11844209 127.79687084 -98.18864512 132.98819023 -105.40966797 138.02368164 C-110.80550792 141.79386825 -116.08402036 145.70038468 -121.33642578 149.66723633 C-131.47797996 157.32575512 -141.72037204 164.85236129 -152.00634766 172.31567383 C-163.77403488 180.85732842 -175.51490821 189.42802138 -186.93994141 198.42504883 C-187.78685547 199.04895508 -188.63376953 199.67286133 -189.50634766 200.31567383 C-190.13541016 200.80293945 -190.76447266 201.29020508 -191.41259766 201.79223633 C-194.9299622 202.67157746 -197.56924657 200.61972826 -200.56884766 198.94067383 C-208.97404949 194.48580951 -217.57911338 190.7586736 -226.38916016 187.18237305 C-228.18674429 186.44650777 -229.97291696 185.68286328 -231.75634766 184.91333008 C-250.93308264 176.93152416 -272.00793348 173.75994176 -292.50634766 171.31567383 C-293.2419693 171.22783127 -293.97759094 171.13998871 -294.73550415 171.04948425 C-300.87972116 170.36895174 -306.92963451 170.18300806 -313.10791016 170.21801758 C-314.07038666 170.21943253 -315.03286316 170.22084747 -316.02450562 170.2223053 C-319.06015298 170.22784576 -322.09572307 170.24038666 -325.13134766 170.25317383 C-327.20556533 170.25819654 -329.27978418 170.26275809 -331.35400391 170.2668457 C-336.40481435 170.27779559 -341.45556796 170.29501819 -346.50634766 170.31567383 C-346.87602661 169.10790283 -346.87602661 169.10790283 -347.25317383 167.87573242 C-348.19185617 164.81455458 -349.13346708 161.75429554 -350.0769043 158.69458008 C-350.48037629 157.3840545 -350.88276498 156.07319479 -351.28393555 154.76196289 C-351.86936179 152.84922771 -352.45816933 150.93758598 -353.04931641 149.02661133 C-353.24588837 148.39084167 -353.44246033 147.75507202 -353.64498901 147.10003662 C-355.42245451 141.43025789 -357.46373985 135.87804319 -359.58178711 130.32592773 C-360.46416136 127.45302716 -360.70101699 125.29414921 -360.50634766 122.31567383 C-353.91123256 121.33219607 -347.45418439 121.13922471 -340.79150391 121.11254883 C-339.6635289 121.10684875 -338.53555389 121.10114868 -337.37339783 121.09527588 C-334.98388597 121.08585406 -332.59436129 121.07930314 -330.20483398 121.07543945 C-326.63907363 121.06586244 -323.07392295 121.03486605 -319.50830078 121.00317383 C-298.81756998 120.90566456 -278.51885644 122.46295864 -258.44384766 127.69067383 C-257.22487793 127.99666504 -256.0059082 128.30265625 -254.75 128.61791992 C-245.88955762 130.8734986 -237.16537441 133.38154445 -228.50634766 136.31567383 C-227.07700002 136.78935685 -225.64729892 137.26197435 -224.21728516 137.73364258 C-220.64279023 138.91534104 -217.07328285 140.11132071 -213.50634766 141.31567383 C-210.31458674 138.15327801 -207.12873956 134.98498624 -203.94384766 131.81567383 C-203.04859375 130.92879883 -202.15333984 130.04192383 -201.23095703 129.12817383 C-196.74133204 124.65499435 -192.41579585 120.13201031 -188.29174805 115.3215332 C-183.95171302 110.44559614 -179.18398662 105.95891091 -174.53369141 101.38208008 C-173.73060547 100.58672852 -172.92751953 99.79137695 -172.10009766 98.97192383 C-171.02791992 97.91714844 -171.02791992 97.91714844 -169.93408203 96.84106445 C-167.98891839 94.8176561 -166.15447354 92.76724296 -164.32568359 90.64160156 C-160.02967491 85.69740876 -155.43012686 81.07740302 -150.80322266 76.44458008 C-149.88478577 75.52281479 -148.96634888 74.6010495 -148.02008057 73.65135193 C-146.08546095 71.71078756 -144.14883002 69.77225664 -142.2109375 67.83496094 C-139.75762201 65.38174681 -137.31125343 62.92173128 -134.86661911 60.45987034 C-132.49589687 58.07519557 -130.11784068 55.69787916 -127.74072266 53.31958008 C-126.44796417 52.01604332 -126.44796417 52.01604332 -125.12908936 50.68617249 C-103.04409865 28.68231606 -77.32308558 11.9218658 -46.88134766 4.50317383 C-46.0838208 4.30820312 -45.28629395 4.11323242 -44.46459961 3.91235352 C-29.69146751 0.55273619 -15.08761732 -0.03196028 0 0 Z " fill="#0159FC" transform="translate(942.50634765625,339.684326171875)"/>
<path d="M0 0 C1.12797501 -0.00570007 2.25595001 -0.01140015 3.41810608 -0.01727295 C5.80761793 -0.02669477 8.19714262 -0.03324569 10.58666992 -0.03710938 C14.15243027 -0.04668639 17.71758095 -0.07768278 21.28320312 -0.109375 C41.97393393 -0.20688427 62.27264747 1.35040982 82.34765625 6.578125 C83.56662598 6.88411621 84.7855957 7.19010742 86.04150391 7.50537109 C94.90379654 9.76142078 103.62012343 12.28286532 112.28515625 15.203125 C113.70242669 15.65454205 115.12042413 16.10368166 116.5390625 16.55078125 C117.93376291 16.99686731 119.32829953 17.44346581 120.72265625 17.890625 C121.95886719 18.28636719 123.19507813 18.68210937 124.46875 19.08984375 C127.28515625 20.203125 127.28515625 20.203125 128.28515625 22.203125 C130.28248168 22.87776237 132.28345016 23.5415986 134.28515625 24.203125 C138.14150245 25.88182375 141.93101207 27.69621689 145.72265625 29.515625 C147.35775146 30.29945557 147.35775146 30.29945557 149.02587891 31.09912109 C161.40054077 37.1143588 173.82236586 43.56126474 185.28515625 51.203125 C183.87850094 54.56112305 182.33845026 56.19933941 179.390625 58.3046875 C178.6056665 58.8728418 177.82070801 59.44099609 177.01196289 60.02636719 C176.1739917 60.62094727 175.33602051 61.21552734 174.47265625 61.828125 C172.74521234 63.07429994 171.01865369 64.32170291 169.29296875 65.5703125 C168.44250977 66.18358398 167.59205078 66.79685547 166.71582031 67.42871094 C162.34603383 70.61870774 158.10161119 73.96565592 153.8515625 77.3125 C153.00464844 77.93640625 152.15773438 78.5603125 151.28515625 79.203125 C150.65609375 79.69039062 150.02703125 80.17765625 149.37890625 80.6796875 C145.86154171 81.55902863 143.22225733 79.50717943 140.22265625 77.828125 C131.81745442 73.37326068 123.21239053 69.64612477 114.40234375 66.06982422 C112.60475962 65.33395894 110.81858695 64.57031445 109.03515625 63.80078125 C89.85842127 55.81897533 68.78357042 52.64739293 48.28515625 50.203125 C47.18172379 50.07136116 47.18172379 50.07136116 46.05599976 49.93693542 C39.91178274 49.25640291 33.8618694 49.07045923 27.68359375 49.10546875 C26.72111725 49.1068837 25.75864075 49.10829865 24.76699829 49.10975647 C21.73135093 49.11529693 18.69578084 49.12783784 15.66015625 49.140625 C13.58593857 49.14564771 11.51171973 49.15020926 9.4375 49.15429688 C4.38668956 49.16524676 -0.66406405 49.18246936 -5.71484375 49.203125 C-5.96129639 48.39794434 -6.20774902 47.59276367 -6.46166992 46.76318359 C-7.40035227 43.70200575 -8.34196317 40.64174671 -9.28540039 37.58203125 C-9.68887238 36.27150568 -10.09126107 34.96064597 -10.49243164 33.64941406 C-11.07785788 31.73667888 -11.66666542 29.82503715 -12.2578125 27.9140625 C-12.45438446 27.27829285 -12.65095642 26.64252319 -12.85348511 25.98748779 C-14.63095061 20.31770907 -16.67223594 14.76549436 -18.7902832 9.21337891 C-19.67265745 6.34047833 -19.90951308 4.18160038 -19.71484375 1.203125 C-13.11972865 0.21964725 -6.66268048 0.02667588 0 0 Z " fill="#23BAF0" transform="translate(601.71484375,460.796875)"/>
<path d="M0 0 C1.18964355 0.15275391 1.18964355 0.15275391 2.40332031 0.30859375 C38.99100889 5.03711832 72.1345951 16.45184531 105 33 C103.33029336 36.52700507 101.33368202 39.05116029 98.6875 41.9375 C97.92824219 42.77152344 97.16898438 43.60554688 96.38671875 44.46484375 C93.97270193 47.02899583 91.49016636 49.50983364 89 52 C87.80008587 53.26633947 86.60233641 54.53473204 85.40625 55.8046875 C84.1044426 57.16172309 82.80235386 58.51848885 81.5 59.875 C80.52353516 60.926875 80.52353516 60.926875 79.52734375 62 C78.88925781 62.65742188 78.25117187 63.31484375 77.59375 63.9921875 C77.02333984 64.59401855 76.45292969 65.19584961 75.86523438 65.81591797 C74 67 74 67 71.64526367 66.80395508 C70.77232666 66.5386499 69.89938965 66.27334473 69 66 C68.07034424 65.7213208 67.14068848 65.4426416 66.18286133 65.15551758 C65.1595874 64.82189209 64.13631348 64.4882666 63.08203125 64.14453125 C30.95215148 53.81738909 0.18692176 47.76241822 -33.625 47.6875 C-34.57139343 47.68373352 -35.51778687 47.67996704 -36.49285889 47.67608643 C-46.75727449 47.65537633 -56.74050137 47.93204947 -66.88427734 49.57348633 C-69.96553126 49.99528155 -72.89445971 50.07343985 -76 50 C-77.97951916 43.9690024 -79.9545597 37.93655156 -81.92651367 31.90307617 C-82.59768633 29.85130736 -83.26987835 27.79987171 -83.94311523 25.7487793 C-84.91138475 22.79823698 -85.87596573 19.84651065 -86.83984375 16.89453125 C-87.14091537 15.97976517 -87.441987 15.06499908 -87.75218201 14.12251282 C-88.032397 13.26199814 -88.312612 12.40148346 -88.60131836 11.51489258 C-88.84780624 10.76210526 -89.09429413 10.00931793 -89.34825134 9.23371887 C-90.04637025 6.84107661 -90.54434139 4.44937359 -91 2 C-60.77051447 -2.02479247 -30.3505277 -4.15795813 0 0 Z " fill="#0259FD" transform="translate(650,390)"/>
<path d="M0 0 C2.31 0 4.62 0 7 0 C6.34 0.66 5.68 1.32 5 2 C4.01 2 3.02 2 2 2 C2 3.65 2 5.3 2 7 C0 5 0 5 -0.125 2.375 C-0.08375 1.59125 -0.0425 0.8075 0 0 Z " fill="#43CBF6" transform="translate(582,462)"/>
</svg>
